<?xml version="1.0" encoding="utf-8"?>
<!-- Generator: Adobe Illustrator 28.2.0, SVG Export Plug-In . SVG Version: 6.00 Build 0)  -->
<svg version="1.1" id="Layer_1" xmlns="http://www.w3.org/2000/svg" xmlns:xlink="http://www.w3.org/1999/xlink" x="0px" y="0px"
	 viewBox="0 0 72 72" style="enable-background:new 0 0 72 72;" xml:space="preserve">
<style type="text/css">
	.st0{fill:#68C07B;}
</style>
<g>
	<g>
		<path class="st0" d="M20.95,61.67c-0.09-0.12-0.13-0.25-0.13-0.38c0-0.19,0.03-0.33,0.08-0.44c0.06-0.11,0.13-0.2,0.22-0.26
			s0.2-0.1,0.32-0.12s0.25-0.03,0.39-0.03c0.1,0,0.2,0.03,0.28,0.09s0.16,0.13,0.22,0.22s0.11,0.18,0.14,0.28s0.05,0.18,0.05,0.26
			c0,0.17-0.03,0.32-0.09,0.47c-0.06,0.14-0.15,0.27-0.26,0.37s-0.24,0.19-0.38,0.25s-0.29,0.09-0.46,0.09
			c-0.39,0-0.73-0.1-1.01-0.32c-0.28-0.21-0.51-0.47-0.69-0.79s-0.3-0.66-0.39-1.02c-0.08-0.36-0.12-0.69-0.12-1
			c0-0.1,0-0.21,0.01-0.31s0.02-0.21,0.03-0.31c0.03-0.3,0.11-0.64,0.26-1.01c0.14-0.37,0.33-0.71,0.57-1.03s0.51-0.58,0.83-0.8
			s0.67-0.32,1.05-0.32l0.85,0.84c-0.46,0.04-0.85,0.17-1.2,0.38c-0.34,0.21-0.63,0.47-0.86,0.78s-0.4,0.65-0.51,1.02
			c-0.11,0.37-0.17,0.74-0.17,1.12c0,0.19,0.02,0.39,0.05,0.6s0.09,0.4,0.17,0.58s0.18,0.34,0.3,0.48
			C20.63,61.5,20.78,61.6,20.95,61.67z"/>
		<path class="st0" d="M27.9,56.43v6.28c-0.17-0.11-0.29-0.2-0.37-0.26s-0.15-0.12-0.2-0.18c-0.06-0.06-0.11-0.11-0.17-0.18
			c-0.05-0.06-0.12-0.13-0.2-0.21c0.01-0.58,0.03-1.1,0.04-1.56c0.01-0.19,0.01-0.38,0.02-0.57c0-0.19,0-0.36,0-0.51s0-0.27,0-0.36
			s0-0.14,0-0.15c0-0.06-0.02-0.14-0.05-0.24c-0.04-0.1-0.08-0.19-0.13-0.29c-0.05-0.1-0.11-0.2-0.17-0.28
			c-0.06-0.09-0.12-0.16-0.18-0.22l-2.04,2.07l-1.15-0.43c0.1-0.1,0.17-0.17,0.21-0.21s0.08-0.08,0.12-0.12
			c0.03-0.03,0.07-0.07,0.1-0.1s0.07-0.06,0.1-0.1c0.05-0.08,0.1-0.14,0.14-0.21c0.04-0.06,0.06-0.13,0.06-0.2
			c0-0.05,0-0.1-0.01-0.16s-0.02-0.11-0.04-0.16s-0.04-0.09-0.08-0.12c-0.04-0.03-0.09-0.05-0.15-0.05s-0.11,0.01-0.17,0.03
			s-0.12,0.04-0.18,0.07c-0.03,0.01-0.07,0.03-0.11,0.04c-0.04,0.01-0.07,0.03-0.11,0.04c-0.08,0.04-0.16,0.05-0.23,0.05
			c-0.08,0-0.15-0.02-0.22-0.06s-0.14-0.09-0.19-0.15s-0.1-0.13-0.13-0.21c-0.04-0.08-0.05-0.15-0.05-0.22
			c0-0.26,0.09-0.51,0.28-0.73c0.19-0.23,0.41-0.42,0.68-0.59c0.27-0.17,0.54-0.29,0.83-0.39c0.29-0.09,0.53-0.14,0.73-0.14
			c0.23,0,0.45,0.04,0.66,0.11c0.21,0.07,0.41,0.17,0.59,0.3c0.18,0.13,0.35,0.28,0.51,0.45s0.29,0.36,0.41,0.55
			c-0.01-0.19-0.02-0.37-0.03-0.56s-0.01-0.39-0.01-0.59c0-0.2-0.01-0.42-0.01-0.65s0-0.48,0-0.74l0.56,0.4l0.06,0.11
			c0.01,0.16,0.04,0.27,0.07,0.33s0.11,0.12,0.23,0.19h0.34h0.29l0.85,0.87h-1.5V56.43z M23.91,57.12c0.2,0.03,0.37,0.14,0.52,0.31
			c0.14,0.17,0.23,0.36,0.27,0.56l1.11-1.1c-0.21-0.21-0.45-0.31-0.73-0.31C24.55,56.58,24.17,56.76,23.91,57.12z"/>
		<path class="st0" d="M27.48,62.73c-0.03-0.06-0.07-0.12-0.1-0.18s-0.06-0.1-0.07-0.13c-0.12-0.21-0.23-0.39-0.32-0.53
			c-0.09-0.14-0.19-0.25-0.3-0.34c-0.11-0.08-0.25-0.14-0.41-0.17s-0.37-0.05-0.63-0.05s-0.52,0.01-0.78,0.03s-0.51,0.03-0.77,0.03
			c-0.28,0-0.55-0.05-0.8-0.14c-0.25-0.09-0.47-0.23-0.67-0.4c-0.19-0.17-0.35-0.38-0.46-0.62S22,59.72,22,59.42
			c0-0.17,0.01-0.34,0.02-0.54c0.01-0.19,0.04-0.43,0.1-0.72l0.58,0.58c-0.03,0.08-0.06,0.13-0.07,0.18s-0.02,0.08-0.02,0.11
			c0,0.23,0.04,0.41,0.12,0.55c0.08,0.14,0.2,0.25,0.36,0.33c0.16,0.08,0.34,0.14,0.55,0.17s0.45,0.06,0.71,0.08
			c0.26,0.01,0.53,0.03,0.79,0.06c0.26,0.02,0.53,0.07,0.78,0.13s0.5,0.16,0.73,0.28s0.43,0.3,0.59,0.52
			c0.1,0.12,0.18,0.22,0.24,0.32s0.13,0.18,0.18,0.27c0.06,0.09,0.11,0.18,0.15,0.26c0.04,0.09,0.09,0.19,0.13,0.3v0.92
			c-0.14-0.1-0.24-0.19-0.29-0.26S27.53,62.81,27.48,62.73z"/>
		<path class="st0" d="M30.14,56.43v6.39c-0.04,0-0.11-0.04-0.21-0.11s-0.19-0.15-0.29-0.24c-0.12-0.1-0.24-0.22-0.37-0.35V57.5
			c0-0.36-0.06-0.63-0.18-0.83c-0.12-0.19-0.34-0.27-0.67-0.23l-0.73-0.9c0.12,0.01,0.22,0.01,0.29,0.02c0.07,0,0.13,0.01,0.18,0.01
			s0.09,0,0.12,0s0.06,0,0.1,0c0.25,0,0.46,0.05,0.62,0.14c0.16,0.09,0.3,0.24,0.41,0.43c-0.01-0.08-0.03-0.16-0.04-0.25
			s-0.03-0.2-0.04-0.32s-0.03-0.27-0.05-0.43c-0.02-0.17-0.04-0.36-0.06-0.58l0.53,0.41c0.01,0.12,0.03,0.2,0.04,0.24
			c0.01,0.04,0.03,0.08,0.05,0.12s0.05,0.08,0.08,0.11l0.12,0.12h0.91l0.87,0.87L30.14,56.43L30.14,56.43z"/>
		<path class="st0" d="M37.11,58.55c-0.01-0.18-0.08-0.33-0.21-0.44c-0.12-0.11-0.27-0.2-0.42-0.26c-0.16-0.06-0.31-0.09-0.46-0.1
			s-0.26,0-0.32,0.03l-0.01,4.98l-0.48-0.42c-0.15-0.32-0.32-0.61-0.52-0.88c-0.19-0.27-0.41-0.5-0.66-0.7s-0.52-0.35-0.82-0.47
			c-0.3-0.12-0.64-0.18-1.01-0.19l-0.8-1.16c0.28-0.3,0.56-0.58,0.84-0.82c0.28-0.24,0.55-0.48,0.84-0.7
			c-0.05-0.04-0.11-0.08-0.18-0.12c-0.06-0.04-0.12-0.08-0.18-0.11c-0.28-0.03-0.52-0.08-0.74-0.16c-0.22-0.08-0.42-0.18-0.62-0.32
			c-0.2-0.13-0.39-0.29-0.59-0.48s-0.41-0.42-0.64-0.68h7.99l0.87,0.87h-5.91c0.26,0.21,0.51,0.43,0.73,0.68
			c0.23,0.25,0.45,0.53,0.68,0.86c-0.26,0.22-0.51,0.43-0.74,0.62c-0.23,0.19-0.46,0.38-0.68,0.57c0.33,0.14,0.65,0.33,0.96,0.58
			s0.57,0.52,0.79,0.81v-3.86c0.12-0.06,0.22-0.09,0.32-0.1s0.18-0.02,0.26-0.02c0.34,0,0.64,0.05,0.92,0.14s0.51,0.22,0.7,0.37
			s0.36,0.33,0.48,0.53c0.12,0.2,0.21,0.4,0.27,0.61c0.05,0.21,0.06,0.41,0.05,0.62c-0.02,0.2-0.07,0.39-0.17,0.55
			s-0.22,0.29-0.39,0.39s-0.37,0.15-0.61,0.15c-0.25,0-0.45-0.09-0.6-0.26c-0.16-0.17-0.23-0.38-0.23-0.61
			c0-0.22,0.08-0.39,0.24-0.52c0.16-0.12,0.34-0.19,0.53-0.19c0.08,0,0.15,0.01,0.21,0.04s0.13,0.05,0.18,0.08
			c0.02,0.01,0.04,0.03,0.06,0.04C37.07,58.53,37.09,58.54,37.11,58.55z"/>
		<path class="st0" d="M39.75,56.43v6.39c-0.04,0-0.11-0.04-0.21-0.11s-0.19-0.15-0.29-0.24c-0.12-0.1-0.24-0.22-0.37-0.35V57.5
			c0-0.36-0.06-0.63-0.18-0.83c-0.12-0.19-0.34-0.27-0.67-0.23l-0.73-0.9c0.12,0.01,0.22,0.01,0.29,0.02c0.07,0,0.13,0.01,0.18,0.01
			s0.09,0,0.12,0s0.06,0,0.1,0c0.25,0,0.46,0.05,0.62,0.14c0.16,0.09,0.3,0.24,0.41,0.43c-0.01-0.08-0.03-0.16-0.04-0.25
			s-0.03-0.2-0.04-0.32s-0.03-0.27-0.05-0.43c-0.02-0.17-0.04-0.36-0.06-0.58l0.53,0.41c0.01,0.12,0.03,0.2,0.04,0.24
			c0.01,0.04,0.03,0.08,0.05,0.12s0.05,0.08,0.08,0.11l0.12,0.12h0.91l0.87,0.87L39.75,56.43L39.75,56.43z"/>
		<path class="st0" d="M42.54,56.55c-0.04-0.02-0.08-0.04-0.12-0.07c-0.01-0.01-0.03-0.01-0.04-0.02s-0.02-0.01-0.04-0.02h-1.87
			l-0.87-0.87h5.03c-0.01-0.16-0.06-0.28-0.13-0.38c-0.08-0.09-0.19-0.14-0.34-0.14c-0.33,0-0.68,0.01-1.04,0.04
			c-0.36,0.03-0.71,0.04-1.04,0.04c-0.18,0-0.37-0.03-0.57-0.1s-0.39-0.16-0.57-0.28s-0.32-0.27-0.44-0.45s-0.18-0.37-0.18-0.58
			c0-0.14,0.02-0.29,0.05-0.47s0.13-0.34,0.28-0.48l0.56,0.18c-0.1,0.12-0.16,0.22-0.2,0.29s-0.05,0.14-0.05,0.2
			c0,0.16,0.03,0.28,0.1,0.36s0.16,0.14,0.26,0.18c0.11,0.04,0.24,0.06,0.4,0.07c0.08,0.01,0.15,0.01,0.22,0.01s0.15-0.01,0.22-0.01
			c0.24,0,0.5-0.01,0.77-0.04c0.27-0.02,0.53-0.04,0.77-0.04c0.23,0,0.45,0.04,0.66,0.12c0.2,0.08,0.38,0.19,0.53,0.33
			s0.27,0.31,0.37,0.5c0.09,0.19,0.15,0.41,0.16,0.64h0.8l0.87,0.87h-3.95l0.12-0.17c0.01,0.02,0.02,0.04,0.03,0.05
			c0.01,0.01,0.02,0.01,0.03,0.02c0,0.01,0.01,0.01,0.03,0.02c0.03,0.03,0.05,0.05,0.06,0.07c0.02,0.03,0.06,0.06,0.11,0.08
			s0.12,0.04,0.2,0.07c0.05,0.02,0.1,0.04,0.15,0.06s0.1,0.04,0.16,0.07c0.05,0.03,0.11,0.06,0.17,0.08
			c0.05,0.03,0.11,0.06,0.17,0.09c0.12,0.07,0.23,0.15,0.34,0.24s0.21,0.21,0.29,0.34c0.08,0.13,0.15,0.28,0.2,0.45
			s0.08,0.36,0.08,0.57c0,0.2-0.02,0.38-0.07,0.54c-0.05,0.16-0.11,0.3-0.19,0.42s-0.17,0.23-0.27,0.33
			c-0.1,0.09-0.21,0.17-0.32,0.23c-0.21,0.12-0.42,0.2-0.62,0.25c0.15,0.07,0.28,0.13,0.39,0.19s0.21,0.12,0.31,0.18
			s0.19,0.13,0.29,0.2s0.21,0.16,0.34,0.25c0.1,0.08,0.2,0.17,0.32,0.27c0.11,0.1,0.22,0.2,0.32,0.3c0.11,0.11,0.22,0.22,0.33,0.34
			l0.32,1.35c-0.39-0.43-0.78-0.81-1.17-1.12s-0.79-0.57-1.2-0.79s-0.83-0.4-1.26-0.55s-0.88-0.28-1.34-0.39l-0.94-1.99
			c0.21,0.14,0.41,0.25,0.6,0.35c0.19,0.09,0.36,0.17,0.53,0.22c0.17,0.06,0.32,0.09,0.47,0.11s0.3,0.03,0.45,0.03
			c0.16,0,0.32-0.01,0.5-0.04c0.17-0.02,0.34-0.07,0.5-0.12c0.16-0.06,0.3-0.14,0.43-0.24s0.23-0.23,0.3-0.39
			c0.04-0.1,0.04-0.21,0.01-0.33c-0.04-0.12-0.09-0.22-0.18-0.32s-0.19-0.17-0.31-0.22s-0.26-0.06-0.39-0.04
			c-0.01,0.14-0.06,0.29-0.14,0.42s-0.18,0.26-0.3,0.37s-0.25,0.19-0.39,0.25c-0.15,0.06-0.29,0.09-0.43,0.09
			c-0.21,0-0.41-0.06-0.58-0.17c-0.18-0.11-0.26-0.31-0.26-0.57c0-0.22,0.05-0.41,0.16-0.56c0.1-0.15,0.23-0.28,0.37-0.38
			c0.08-0.06,0.15-0.1,0.23-0.15c0.08-0.04,0.16-0.08,0.24-0.12c0.06-0.03,0.11-0.05,0.17-0.07s0.12-0.04,0.17-0.07L42.54,56.55z"/>
		<path class="st0" d="M51.63,56.43v6.41c-0.13-0.12-0.25-0.24-0.37-0.35c-0.1-0.1-0.19-0.19-0.28-0.28s-0.16-0.16-0.2-0.21v-3.42
			c0-0.08-0.02-0.15-0.06-0.23c-0.04-0.08-0.09-0.14-0.16-0.21c-0.06-0.06-0.13-0.11-0.21-0.15s-0.16-0.06-0.23-0.06
			c-0.12,0-0.21,0.04-0.27,0.11c-0.07,0.08-0.1,0.18-0.1,0.32c0,0.03,0,0.07,0,0.09c0,0.03,0.01,0.06,0.02,0.09
			c0.01,0.04,0.01,0.07,0.02,0.11c0.01,0.04,0.02,0.11,0.03,0.2l-0.5,0.19c-0.03-0.17-0.09-0.33-0.17-0.46
			c-0.08-0.13-0.18-0.25-0.29-0.34c-0.11-0.09-0.24-0.17-0.37-0.22s-0.27-0.09-0.41-0.1c-0.3-0.04-0.54,0.01-0.74,0.14
			c-0.2,0.13-0.32,0.32-0.36,0.56c-0.04,0.28,0.01,0.48,0.16,0.6c-0.02-0.07-0.03-0.14-0.03-0.23c0.01-0.23,0.09-0.42,0.25-0.57
			c0.16-0.14,0.35-0.22,0.58-0.22c0.15,0,0.28,0.04,0.39,0.11c0.11,0.08,0.2,0.17,0.27,0.29c0.07,0.11,0.13,0.24,0.17,0.37
			s0.06,0.26,0.06,0.37c0,0.15-0.04,0.28-0.13,0.4c-0.09,0.11-0.21,0.21-0.35,0.28c-0.15,0.07-0.3,0.12-0.48,0.15
			c-0.17,0.03-0.34,0.03-0.51,0.01c-0.18-0.02-0.35-0.07-0.52-0.16c-0.17-0.08-0.31-0.2-0.43-0.35s-0.22-0.34-0.28-0.56
			c-0.07-0.22-0.09-0.49-0.07-0.8c0.01-0.21,0.07-0.42,0.16-0.61c0.09-0.19,0.22-0.35,0.37-0.49c0.15-0.14,0.33-0.25,0.53-0.33
			s0.42-0.12,0.66-0.12c0.28,0,0.52,0.06,0.72,0.17c0.2,0.11,0.37,0.26,0.53,0.44c0.08-0.15,0.19-0.29,0.35-0.4
			c0.16-0.12,0.31-0.17,0.45-0.17c0.21,0,0.4,0.06,0.56,0.19c0.16,0.12,0.29,0.27,0.4,0.43v-0.98h-4.64
			c-0.04-0.04-0.07-0.08-0.11-0.11c-0.03-0.04-0.07-0.07-0.12-0.11c-0.04-0.04-0.08-0.08-0.12-0.12s-0.08-0.08-0.12-0.11
			s-0.07-0.07-0.1-0.1c-0.02-0.01-0.04-0.03-0.07-0.06c-0.01-0.01-0.01-0.01-0.02-0.01c0.01,0,0.01,0,0.02,0
			c0,0,0.01,0.01,0.02,0.01c0-0.04,0.01-0.08,0.04-0.11c0.02-0.03,0.07-0.03,0.14-0.01l-0.12-0.13h6.59
			c0.03-0.01,0.07-0.01,0.11,0.01c0.01,0.01,0.03,0.02,0.06,0.05c0.01,0.01,0.03,0.02,0.04,0.03s0.02,0.02,0.04,0.04
			c0.03,0.03,0.07,0.07,0.11,0.1c0.04,0.03,0.07,0.07,0.11,0.11c0.04,0.04,0.09,0.09,0.16,0.15c0.06,0.06,0.12,0.12,0.18,0.17
			c0.07,0.07,0.14,0.14,0.22,0.21h-1.58V56.43z"/>
	</g>
	<g>
		<path class="st0" d="M47.72,8.59H22.66c-3.68,0-6.67,2.99-6.67,6.67v25.06c0,4.57,3.72,8.29,8.29,8.29h31.73V16.88
			C56.01,12.31,52.29,8.59,47.72,8.59z M54.43,47.03H24.28c-3.7,0-6.71-3.01-6.71-6.71V15.26c0-2.81,2.28-5.09,5.09-5.09h25.06
			c3.7,0,6.71,3.01,6.71,6.71V47.03z"/>
		<path class="st0" d="M49.06,29.99c-0.53,0-1.06,0-1.61,0c0-0.28,0-0.49,0-0.69c0-3.59,0-7.19,0-10.78c0-0.28,0.01-0.57,0-0.85
			c-0.02-0.92-0.5-1.39-1.41-1.4c-0.31,0-0.62,0-0.96,0c0-0.38,0.01-0.69,0-1.01c-0.03-0.9-0.49-1.36-1.39-1.36
			c-4.33,0-8.67-0.01-13,0.01c-0.28,0-0.62,0.15-0.82,0.34c-1.36,1.32-2.63,2.73-4.04,3.98c-1.07,0.94-1.58,1.96-1.41,3.4
			c0.11,0.94,0.02,1.91,0.02,2.93c-0.59,0-1.09,0-1.59,0c-1.14,0-1.62,0.47-1.62,1.6c0,5.47,0,10.94,0,16.4
			c0,1.11,0.49,1.59,1.58,1.59c8.76,0,17.53,0,26.29,0c1.09,0,1.58-0.49,1.58-1.59c0-3.66,0-7.31,0-10.97
			C50.66,30.48,50.18,29.99,49.06,29.99z M29.81,16.1c0,1.02,0,2.08,0,3.17c-1.07,0-2.14,0-3.15,0
			C27.69,18.23,28.75,17.16,29.81,16.1z M25.65,20.53c0.16-0.01,0.32-0.02,0.49-0.03c1.15,0,2.3,0,3.45,0
			c0.96,0,1.42-0.47,1.42-1.42c0-1.3,0-2.61,0-3.95c4.3,0,8.55,0,12.87,0c0,0.19,0,0.36,0,0.53c0,1.59,0,3.18,0,4.77
			c0,0.48,0.22,0.76,0.59,0.76c0.36,0,0.58-0.27,0.6-0.76c0.01-0.17,0-0.35,0-0.52c0-0.79,0-1.57,0-2.4c0.39,0,0.76,0,1.15,0
			c0,4.14,0,8.28,0,12.46c-0.38,0-0.73,0-1.12,0c-0.01-0.18-0.03-0.34-0.03-0.51c0-1.2,0-2.39,0-3.59c0-0.13,0-0.25,0-0.38
			c-0.02-0.49-0.25-0.75-0.62-0.72c-0.43,0.04-0.57,0.33-0.57,0.73c0,1.31,0,2.61,0,3.92c0,0.17,0,0.34,0,0.56
			c-0.96,0-1.86,0.01-2.77,0c-0.56-0.01-1.23,0.14-1.66-0.1c-0.42-0.24-0.6-0.89-0.88-1.36c-0.6-1.02-1.2-2.03-1.77-3.06
			c-0.34-0.62-0.82-0.89-1.53-0.89c-3.01,0.02-6.02,0.01-9.03,0.01c-0.19,0-0.37,0-0.59,0C25.65,23.22,25.65,21.9,25.65,20.53z
			 M48.93,42.99c-8.67-0.01-17.33-0.01-26,0c-0.36,0-0.53-0.05-0.53-0.48c0.01-5.43,0.01-10.87,0.01-16.3
			c0-0.12,0.01-0.25,0.02-0.42c0.17-0.01,0.32-0.03,0.47-0.03c4.08,0,8.16,0,12.24-0.01c0.33,0,0.51,0.11,0.67,0.39
			c0.8,1.41,1.63,2.8,2.43,4.21c0.33,0.58,0.79,0.85,1.46,0.84c3.04-0.01,6.08,0,9.12,0c0.19,0,0.37,0,0.59,0
			c0.01,0.2,0.02,0.36,0.02,0.51c0,3.59-0.01,7.18,0.01,10.77C49.47,42.9,49.33,42.99,48.93,42.99z"/>
		<path class="st0" d="M32.54,34.82c-0.12-0.06-0.25-0.11-0.37-0.17c0.95-1.88,0.79-3.32-0.48-4.35c-1.11-0.91-2.73-0.91-3.84-0.01
			c-1.29,1.05-1.46,2.48-0.49,4.37c-1.11,0.44-1.85,1.18-1.94,2.37c-0.08,1.03-0.07,2.08-0.03,3.11c0.03,0.67,0.56,1.09,1.25,1.1
			c2.08,0.01,4.16,0.01,6.24,0c0.78,0,1.26-0.5,1.26-1.28c0.01-0.88,0.02-1.76,0-2.65C34.11,36.16,33.54,35.34,32.54,34.82z
			 M29.76,30.81c1.04,0,1.85,0.81,1.86,1.85c0.01,1.06-0.82,1.88-1.88,1.88s-1.88-0.84-1.86-1.9C27.9,31.61,28.72,30.81,29.76,30.81
			z M32.95,40c-2.14,0-4.23,0-6.36,0c0-1.03-0.07-2.05,0.02-3.06c0.06-0.7,0.78-1.19,1.5-1.19c1.06-0.01,2.11-0.01,3.17,0
			c0.92,0.01,1.59,0.55,1.65,1.47C33,38.12,32.95,39.03,32.95,40z"/>
		<path class="st0" d="M44.75,34.93c-2.6,0-5.19,0-7.79,0c-0.15,0-0.37,0.01-0.44,0.1c-0.14,0.18-0.28,0.44-0.26,0.64
			c0.05,0.33,0.35,0.45,0.68,0.45c1.31,0,2.61,0,3.92,0c1.29,0,2.58,0,3.87,0c0.5,0,0.75-0.2,0.75-0.59
			C45.49,35.14,45.25,34.93,44.75,34.93z"/>
		<path class="st0" d="M44.99,37.32c-0.09-0.07-0.27-0.03-0.42-0.03c-1.23,0-2.46,0-3.68,0c-0.9,0-1.79,0-2.69,0
			c-0.44,0-0.88,0-1.32,0c-0.39,0.01-0.65,0.2-0.65,0.59c0,0.39,0.27,0.58,0.66,0.59c0.08,0,0.16,0,0.24,0c2.49,0,4.97,0,7.46,0
			c0.14,0,0.29,0.01,0.42-0.02c0.32-0.07,0.55-0.28,0.46-0.6C45.41,37.65,45.18,37.46,44.99,37.32z"/>
		<path class="st0" d="M40.71,39.65c-0.61-0.01-1.22,0-1.84,0c-0.63,0-1.26-0.01-1.88,0c-0.47,0-0.76,0.23-0.77,0.58
			c-0.01,0.36,0.28,0.6,0.75,0.61c1.24,0.01,2.48,0.01,3.72,0c0.49,0,0.74-0.21,0.75-0.59C41.44,39.87,41.19,39.66,40.71,39.65z"/>
		<path class="st0" d="M33.57,20c0.13,0.01,0.25,0.01,0.38,0.01c1.15,0,2.3,0,3.45,0l0,0c1.24,0,2.49,0,3.73,0
			c0.39,0,0.65-0.21,0.64-0.6c-0.01-0.36-0.25-0.57-0.62-0.57c-2.52,0-5.04,0-7.56,0c-0.37,0-0.6,0.19-0.61,0.58
			C32.98,19.79,33.2,19.98,33.57,20z"/>
		<path class="st0" d="M41.09,21.19c-0.54-0.01-1.07,0-1.61,0c-1.92,0-3.84,0-5.77,0c-0.39,0-0.69,0.1-0.73,0.55
			c-0.03,0.4,0.21,0.62,0.7,0.62c1.23,0.01,2.46,0,3.69,0c1.24,0,2.49,0,3.73,0c0.39,0,0.64-0.18,0.68-0.57
			C41.82,21.45,41.52,21.2,41.09,21.19z"/>
		<path class="st0" d="M44.45,23.56c0.34,0.02,0.61-0.24,0.59-0.58c-0.01-0.35-0.21-0.54-0.51-0.58c-0.38-0.01-0.66,0.25-0.64,0.58
			C43.91,23.34,44.11,23.54,44.45,23.56z"/>
	</g>
</g>
</svg>
