<?xml version="1.0" encoding="utf-8"?>
<!-- Generator: Adobe Illustrator 28.2.0, SVG Export Plug-In . SVG Version: 6.00 Build 0)  -->
<svg version="1.1" id="Layer_1" xmlns="http://www.w3.org/2000/svg" xmlns:xlink="http://www.w3.org/1999/xlink" x="0px" y="0px"
	 viewBox="0 0 72 72" style="enable-background:new 0 0 72 72;" xml:space="preserve">
<style type="text/css">
	.st0{fill:#68C07B;}
</style>
<g>
	<g>
		<path class="st0" d="M30.95,56.85v6.37l-0.48-0.37c-0.1-0.43-0.26-0.83-0.47-1.19c-0.21-0.37-0.45-0.72-0.71-1.05
			c-0.17,0.24-0.38,0.44-0.63,0.59c-0.24,0.15-0.53,0.23-0.85,0.23s-0.63-0.07-0.91-0.22c-0.28-0.14-0.54-0.34-0.78-0.58
			s-0.45-0.53-0.64-0.84c-0.19-0.32-0.36-0.65-0.5-0.99s-0.27-0.68-0.37-1.02c-0.1-0.34-0.17-0.65-0.22-0.94l0.64,0.27
			c0.12,0.35,0.26,0.71,0.41,1.06s0.32,0.68,0.53,0.97c0.2,0.29,0.44,0.53,0.72,0.71s0.62,0.27,1.01,0.27
			c0.21,0,0.38-0.03,0.52-0.09c0.14-0.06,0.25-0.13,0.33-0.22s0.13-0.19,0.17-0.31c0.03-0.11,0.05-0.23,0.05-0.36
			c-0.01-0.24-0.06-0.44-0.16-0.61s-0.19-0.27-0.28-0.31c-0.08,0.19-0.19,0.33-0.34,0.44s-0.34,0.17-0.57,0.17
			c-0.13,0-0.26-0.02-0.39-0.07c-0.13-0.04-0.25-0.11-0.36-0.19s-0.19-0.18-0.26-0.31c-0.07-0.12-0.1-0.26-0.1-0.41
			c0-0.18,0.04-0.33,0.13-0.46c0.09-0.12,0.19-0.22,0.32-0.3s0.27-0.13,0.42-0.16c0.15-0.03,0.29-0.05,0.42-0.05
			c0.32,0,0.62,0.08,0.89,0.23c0.28,0.16,0.52,0.36,0.71,0.6s0.34,0.53,0.44,0.84s0.12,0.62,0.08,0.93l0.35,0.69v-3.35h-5.72
			l-0.87-0.87h8.08l0.89,0.87h-1.5V56.85z"/>
		<path class="st0" d="M34.64,56.85v2.1c0.14-0.02,0.26-0.07,0.37-0.14s0.21-0.17,0.32-0.29c0.05-0.07,0.11-0.14,0.17-0.21
			c0.06-0.07,0.12-0.14,0.17-0.21c0.06-0.08,0.11-0.15,0.17-0.22s0.14-0.15,0.23-0.23c0.2,0.08,0.38,0.21,0.53,0.39
			s0.29,0.37,0.39,0.57c0.11,0.21,0.19,0.42,0.24,0.64s0.08,0.42,0.08,0.59c0,0.37-0.05,0.7-0.14,1c-0.09,0.3-0.24,0.56-0.43,0.77
			s-0.43,0.38-0.72,0.5s-0.62,0.18-1.01,0.18c-0.42,0-0.79-0.09-1.11-0.26s-0.59-0.41-0.82-0.7s-0.42-0.62-0.58-0.99
			c-0.16-0.37-0.28-0.76-0.38-1.16c-0.1-0.4-0.18-0.8-0.23-1.2c-0.06-0.4-0.1-0.77-0.13-1.11l0.63,0.34
			c0.03,0.39,0.11,0.81,0.22,1.25s0.27,0.85,0.48,1.22c0.21,0.37,0.46,0.68,0.77,0.93s0.67,0.37,1.09,0.37
			c0.21,0,0.41-0.03,0.61-0.1c0.2-0.07,0.38-0.17,0.54-0.29s0.29-0.27,0.39-0.44s0.15-0.37,0.15-0.58c0-0.1-0.02-0.19-0.05-0.28
			c-0.04-0.09-0.08-0.17-0.13-0.25c-0.08,0.12-0.18,0.25-0.33,0.38c-0.14,0.13-0.29,0.25-0.46,0.36c-0.16,0.11-0.32,0.19-0.49,0.26
			s-0.3,0.1-0.43,0.1s-0.25-0.02-0.37-0.07s-0.22-0.11-0.31-0.2c-0.09-0.08-0.16-0.18-0.22-0.29s-0.08-0.23-0.08-0.36v-2.37h-2.29
			l-0.87-0.87h7.24l0.87,0.87H34.64z"/>
		<path class="st0" d="M36.13,55.83h-1.91l3.87-2.85l0.86,0.11L36.13,55.83z"/>
		<path class="st0" d="M39.47,56.85v6.39c-0.04,0-0.11-0.04-0.21-0.11s-0.19-0.15-0.29-0.24c-0.12-0.1-0.24-0.22-0.37-0.35v-4.62
			c0-0.36-0.06-0.63-0.18-0.83c-0.12-0.19-0.34-0.27-0.67-0.23l-0.73-0.9c0.12,0.01,0.22,0.01,0.29,0.02s0.13,0,0.18,0
			s0.09,0,0.12,0s0.06,0,0.1,0c0.25,0,0.46,0.05,0.62,0.14s0.3,0.24,0.41,0.43c-0.01-0.08-0.03-0.16-0.04-0.25s-0.03-0.2-0.04-0.32
			s-0.03-0.27-0.05-0.43c-0.02-0.17-0.04-0.36-0.06-0.58l0.53,0.41c0.01,0.12,0.03,0.2,0.04,0.24s0.03,0.08,0.05,0.12
			s0.05,0.08,0.08,0.11l0.12,0.12h0.91l0.87,0.87h-1.68V56.85z"/>
		<path class="st0" d="M44.7,56.85v6.25c-0.13-0.08-0.22-0.13-0.26-0.15c-0.04-0.02-0.08-0.05-0.1-0.08
			c-0.03-0.03-0.1-0.1-0.19-0.22c-0.06-0.1-0.12-0.22-0.19-0.34c-0.06-0.12-0.13-0.25-0.21-0.38s-0.16-0.26-0.24-0.4
			c-0.09-0.13-0.18-0.26-0.29-0.39c-0.22-0.25-0.5-0.47-0.83-0.66s-0.77-0.3-1.32-0.34l-0.9-1.24c0.6-0.42,1.2-0.79,1.79-1.12
			c0.6-0.32,1.22-0.59,1.87-0.79v-0.18h-3.64l-0.89-0.87h6.02l0.88,0.87h-1.5V56.85z M42.26,62.53c-0.1,0-0.2-0.02-0.3-0.06
			c-0.1-0.04-0.18-0.1-0.25-0.17s-0.13-0.16-0.18-0.25c-0.04-0.1-0.07-0.2-0.07-0.3c0-0.2,0.07-0.37,0.21-0.51
			c0.14-0.14,0.31-0.21,0.5-0.21c0.21,0,0.39,0.08,0.55,0.23c0.16,0.15,0.24,0.33,0.24,0.54c0,0.19-0.07,0.36-0.2,0.51
			C42.62,62.45,42.46,62.53,42.26,62.53z M43.83,58.2c-0.37,0.14-0.71,0.29-1.02,0.45c-0.32,0.17-0.63,0.36-0.95,0.58
			c0.41,0.19,0.78,0.42,1.11,0.69c0.33,0.28,0.62,0.6,0.86,0.97L43.83,58.2L43.83,58.2z"/>
	</g>
	<g>
		<path class="st0" d="M46.47,9.01H21.41c-3.68,0-6.67,2.99-6.67,6.67v25.06c0,4.57,3.72,8.29,8.29,8.29h31.73V17.3
			C54.75,12.73,51.04,9.01,46.47,9.01z M53.18,47.45H23.03c-3.7,0-6.71-3.01-6.71-6.71V15.68c0-2.81,2.28-5.09,5.09-5.09h25.06
			c3.7,0,6.71,3.01,6.71,6.71V47.45z"/>
		<path class="st0" d="M46.37,14.68c-6.96,0-13.92,0-20.88,0c-1.05,0.42-1.4,1.21-1.39,2.31c0.03,4.27,0.01,8.54,0.01,12.8
			c0,0.23,0,0.45,0,0.72c0.5,0,0.97,0,1.51,0c0-0.25,0-0.49,0-0.73c0-4.27,0.01-8.54-0.01-12.8c0-0.58,0.14-0.79,0.76-0.79
			c6.39,0.02,12.79,0.02,19.18,0c0.54,0,0.71,0.14,0.71,0.7c-0.02,7.43-0.02,14.86,0,22.3c0,0.56-0.14,0.75-0.73,0.75
			c-3.89-0.03-7.79,0-11.68-0.03c-0.56,0-0.9,0.1-0.99,0.7c-0.04,0.26-0.16,0.5-0.26,0.82c0.26,0,0.46,0,0.66,0
			c4.14,0,8.29,0,12.43,0c1.41,0,2.07-0.66,2.07-2.06c0-7.52-0.01-15.03,0.01-22.55C47.79,15.73,47.38,15.04,46.37,14.68z"/>
		<path class="st0" d="M23.84,41.55c-0.49-0.11-0.92,0.03-1.15,0.5c-0.21,0.42-0.16,0.84,0.19,1.19c0.11,0.11,0.25,0.2,0.37,0.3
			c0.21,0,0.42,0,0.63,0c0.39-0.25,0.76-0.54,0.72-1.06C24.56,42.02,24.33,41.66,23.84,41.55z"/>
		<path class="st0" d="M28.3,41.54c-0.48-0.08-0.88,0.06-1.1,0.5c-0.21,0.42-0.17,0.84,0.17,1.2c0.11,0.11,0.25,0.21,0.37,0.31
			c0.21,0,0.42,0,0.63,0c0.42-0.26,0.79-0.56,0.73-1.11C29.05,41.96,28.79,41.62,28.3,41.54z"/>
		<path class="st0" d="M33.48,32.82c0.15-0.04,0.32-0.21,0.35-0.36c0.02-0.11-0.13-0.31-0.25-0.38c-0.47-0.25-2.13,0.01-2.5,0.4
			c-0.19,0.21-0.39,0.47-0.44,0.74c-0.09,0.49-0.37,0.55-0.79,0.54c-2.79-0.01-5.58-0.01-8.37-0.01c-0.76,0-0.86,0.13-0.68,0.84
			c0.3,1.21,0.65,2.41,0.89,3.63c0.13,0.64,0.43,0.79,1.02,0.78c1.9-0.03,3.79-0.01,5.69-0.01c0.18,0,0.37,0.02,0.6,0.03
			c-0.15,0.9-0.39,1.13-1.18,1.13c-1.71,0.01-3.42,0-5.12,0c-0.33,0-0.76-0.05-0.73,0.42c0.01,0.15,0.45,0.39,0.69,0.39
			c1.73,0.02,3.46,0.03,5.19-0.02c1.27-0.04,1.69-0.41,2.03-1.69c0.47-1.74,0.93-3.49,1.39-5.24c0.28-1.07,0.39-1.17,1.49-1.17
			C32.99,32.85,33.25,32.89,33.48,32.82z"/>
		<path class="st0" d="M41.61,27.3c-3.79,0-7.58,0-11.37,0c-0.66,0-1,0.27-0.99,0.77c0,0.5,0.33,0.74,1.01,0.74c1.9,0,3.79,0,5.69,0
			s3.79,0,5.69,0c0.66,0,1.01-0.27,1-0.75C42.62,27.58,42.26,27.3,41.61,27.3z"/>
		<path class="st0" d="M41.61,21.05c-3.79,0-7.58,0-11.37,0c-0.67,0-1,0.26-1,0.76s0.32,0.75,1.01,0.75c1.9,0,3.79,0,5.69,0
			s3.79,0,5.69,0c0.66,0,1-0.26,1-0.75C42.62,21.31,42.27,21.05,41.61,21.05z"/>
		<path class="st0" d="M41.86,33.58c-1.68-0.03-3.36-0.03-5.04,0c-0.47,0.01-0.78,0.31-0.74,0.82c0.03,0.47,0.33,0.68,0.8,0.68
			c0.83,0,1.66,0,2.49,0c0.81,0,1.62-0.01,2.43,0c0.47,0,0.77-0.22,0.81-0.68C42.66,33.89,42.32,33.59,41.86,33.58z"/>
	</g>
</g>
</svg>
