<?xml version="1.0" encoding="utf-8"?>
<!-- Generator: Adobe Illustrator 28.2.0, SVG Export Plug-In . SVG Version: 6.00 Build 0)  -->
<svg version="1.1" id="Layer_1" xmlns="http://www.w3.org/2000/svg" xmlns:xlink="http://www.w3.org/1999/xlink" x="0px" y="0px"
	 viewBox="0 0 72 72" style="enable-background:new 0 0 72 72;" xml:space="preserve">
<style type="text/css">
	.st0{fill:#68C07B;}
</style>
<g>
	<g>
		<path class="st0" d="M21.3,63.06c-0.09-0.12-0.13-0.25-0.13-0.38c0-0.19,0.03-0.33,0.08-0.44c0.06-0.11,0.13-0.2,0.22-0.26
			s0.2-0.1,0.32-0.12s0.25-0.03,0.39-0.03c0.1,0,0.2,0.03,0.28,0.09s0.16,0.13,0.22,0.22s0.11,0.18,0.14,0.28s0.05,0.18,0.05,0.26
			c0,0.17-0.03,0.32-0.09,0.47c-0.06,0.14-0.15,0.27-0.26,0.37s-0.24,0.19-0.38,0.25s-0.29,0.09-0.46,0.09
			c-0.39,0-0.73-0.1-1.01-0.32c-0.28-0.21-0.51-0.47-0.69-0.79s-0.3-0.66-0.39-1.02c-0.08-0.36-0.12-0.69-0.12-1
			c0-0.1,0-0.21,0.01-0.31s0.02-0.21,0.03-0.31c0.03-0.3,0.11-0.64,0.26-1.01c0.14-0.37,0.33-0.71,0.57-1.03s0.51-0.58,0.83-0.8
			s0.67-0.32,1.05-0.32l0.85,0.84c-0.46,0.04-0.85,0.17-1.2,0.38c-0.34,0.21-0.63,0.47-0.86,0.78s-0.4,0.65-0.51,1.02
			c-0.11,0.37-0.17,0.74-0.17,1.12c0,0.19,0.02,0.39,0.05,0.6s0.09,0.4,0.17,0.58s0.18,0.34,0.3,0.48
			C20.98,62.9,21.13,63,21.3,63.06z"/>
		<path class="st0" d="M28.05,57.83v6.41c-0.13-0.12-0.25-0.24-0.37-0.35c-0.1-0.1-0.19-0.19-0.28-0.28s-0.16-0.16-0.2-0.21v-3.42
			c0-0.08-0.02-0.15-0.06-0.23c-0.04-0.08-0.09-0.14-0.16-0.21c-0.06-0.06-0.13-0.11-0.21-0.15s-0.16-0.06-0.23-0.06
			c-0.12,0-0.21,0.04-0.27,0.11c-0.07,0.08-0.1,0.18-0.1,0.32c0,0.03,0,0.07,0,0.09c0,0.03,0.01,0.06,0.02,0.09
			c0.01,0.04,0.01,0.07,0.02,0.11c0.01,0.04,0.02,0.11,0.03,0.2l-0.5,0.19c-0.03-0.17-0.09-0.33-0.17-0.46
			c-0.08-0.13-0.18-0.25-0.29-0.34c-0.11-0.09-0.24-0.17-0.37-0.22s-0.27-0.09-0.41-0.1c-0.3-0.04-0.54,0.01-0.74,0.14
			c-0.2,0.13-0.32,0.32-0.36,0.56c-0.04,0.28,0.01,0.48,0.16,0.6c-0.02-0.07-0.03-0.14-0.03-0.23c0.01-0.23,0.09-0.42,0.25-0.57
			c0.16-0.14,0.35-0.22,0.58-0.22c0.15,0,0.28,0.04,0.39,0.11c0.11,0.08,0.2,0.17,0.27,0.29c0.07,0.11,0.13,0.24,0.17,0.37
			s0.06,0.26,0.06,0.37c0,0.15-0.04,0.28-0.13,0.4c-0.09,0.11-0.21,0.21-0.35,0.28c-0.15,0.07-0.3,0.12-0.48,0.15
			c-0.17,0.03-0.34,0.03-0.51,0.01c-0.18-0.02-0.35-0.07-0.52-0.16c-0.17-0.08-0.31-0.2-0.43-0.35s-0.22-0.34-0.28-0.56
			c-0.07-0.22-0.09-0.49-0.07-0.8c0.01-0.21,0.07-0.42,0.16-0.61c0.09-0.19,0.22-0.35,0.37-0.49c0.15-0.14,0.33-0.25,0.53-0.33
			s0.42-0.12,0.66-0.12c0.28,0,0.52,0.06,0.72,0.17c0.2,0.11,0.37,0.26,0.53,0.44c0.08-0.15,0.19-0.29,0.35-0.4
			c0.16-0.12,0.31-0.17,0.45-0.17c0.21,0,0.4,0.06,0.56,0.19c0.16,0.12,0.29,0.27,0.4,0.43v-0.98h-4.64
			c-0.04-0.04-0.07-0.08-0.11-0.11c-0.03-0.04-0.07-0.07-0.12-0.11c-0.04-0.04-0.08-0.08-0.12-0.12s-0.08-0.08-0.12-0.11
			s-0.07-0.07-0.1-0.1c-0.02-0.01-0.04-0.03-0.07-0.06c-0.01-0.01-0.01-0.01-0.02-0.01c0.01,0,0.01,0,0.02,0
			c0,0,0.01,0.01,0.02,0.01c0-0.04,0.01-0.08,0.04-0.11c0.02-0.03,0.07-0.03,0.14-0.01l-0.12-0.13h6.59
			c0.03-0.01,0.07-0.01,0.11,0.01c0.01,0.01,0.03,0.02,0.06,0.05c0.01,0.01,0.03,0.02,0.04,0.03s0.02,0.02,0.04,0.04
			c0.03,0.03,0.07,0.07,0.11,0.1c0.04,0.03,0.07,0.07,0.11,0.11c0.04,0.04,0.09,0.09,0.16,0.15c0.06,0.06,0.12,0.12,0.18,0.17
			c0.07,0.07,0.14,0.14,0.22,0.21h-1.58V57.83z"/>
		<path class="st0" d="M30.91,59.94c0.01,0.01,0.01,0.02,0.02,0.03c0,0,0.01,0.01,0.02,0.03c0.03,0.03,0.05,0.07,0.08,0.11
			c0.02,0.04,0.04,0.08,0.06,0.11c0.09,0.17,0.13,0.35,0.13,0.55c0,0.3-0.1,0.52-0.29,0.66s-0.42,0.22-0.67,0.22
			c-0.41,0-0.73-0.11-0.96-0.34c-0.22-0.22-0.34-0.54-0.34-0.96c0-0.23,0.04-0.43,0.13-0.62c0.09-0.18,0.2-0.34,0.35-0.47
			s0.32-0.23,0.51-0.31c0.19-0.07,0.4-0.11,0.61-0.11c0.25,0,0.48,0.04,0.68,0.13s0.39,0.21,0.56,0.36s0.32,0.32,0.46,0.5
			c0.14,0.19,0.26,0.38,0.37,0.57v-2.58h-4.06l-0.87-0.87h6.43l0.9,0.87H33.5v6.61L33,63.78c0.01-0.05,0.02-0.1,0.02-0.12
			s0-0.05,0-0.08c0-0.19-0.02-0.41-0.07-0.66s-0.11-0.5-0.2-0.77c-0.09-0.27-0.2-0.53-0.32-0.79s-0.26-0.49-0.42-0.7
			c-0.15-0.21-0.33-0.38-0.52-0.51S31.12,59.95,30.91,59.94z"/>
		<path class="st0" d="M36.3,63.12c-0.05-0.08-0.1-0.17-0.14-0.27s-0.06-0.19-0.06-0.28c0-0.11,0.03-0.22,0.08-0.32
			s0.12-0.19,0.2-0.26c0.08-0.07,0.18-0.13,0.28-0.17s0.21-0.06,0.31-0.06c0.12,0,0.24,0.03,0.34,0.09s0.19,0.13,0.27,0.22
			s0.14,0.19,0.18,0.3s0.07,0.22,0.07,0.33c0,0.17-0.04,0.32-0.1,0.46c-0.07,0.14-0.16,0.26-0.27,0.36s-0.24,0.17-0.39,0.23
			c-0.15,0.05-0.3,0.08-0.45,0.08c-0.26,0-0.5-0.05-0.71-0.14c-0.21-0.1-0.4-0.23-0.56-0.39s-0.3-0.35-0.42-0.56
			c-0.12-0.21-0.22-0.43-0.29-0.66s-0.13-0.46-0.17-0.69s-0.06-0.45-0.06-0.65c0-0.55,0.11-1.07,0.32-1.56
			c0.21-0.49,0.48-0.94,0.81-1.36h-1.61l-0.87-0.87h4.64c0.12,0.14,0.23,0.26,0.33,0.38c0.08,0.1,0.16,0.19,0.23,0.29
			s0.11,0.16,0.11,0.2c-0.22,0-0.42,0.02-0.58,0.06c-0.17,0.04-0.33,0.09-0.49,0.15c-0.37,0.15-0.68,0.34-0.94,0.55
			c-0.25,0.22-0.45,0.47-0.6,0.75s-0.26,0.6-0.32,0.94s-0.09,0.71-0.09,1.11c0,0.15,0.02,0.32,0.07,0.51s0.11,0.37,0.2,0.54
			s0.19,0.32,0.31,0.44C36.02,63.01,36.15,63.09,36.3,63.12z"/>
		<path class="st0" d="M39.35,57.83v2.19c0.22-0.17,0.42-0.32,0.59-0.46c0.17-0.14,0.34-0.28,0.52-0.4c0.2-0.15,0.42-0.3,0.66-0.43
			c0.24-0.14,0.54-0.28,0.9-0.42l1.2,0.9c-0.25,0.5-0.45,0.98-0.61,1.46c-0.16,0.48-0.24,0.96-0.24,1.46c0,0.31,0.02,0.63,0.07,0.95
			c0.05,0.32,0.11,0.7,0.19,1.12l-0.69-0.33c-0.1-0.46-0.18-0.89-0.26-1.31c-0.08-0.42-0.11-0.84-0.11-1.28
			c0-0.48,0.04-0.95,0.13-1.4c-0.48,0.21-0.91,0.51-1.3,0.92c-0.39,0.4-0.7,0.89-0.92,1.47l-0.99-1.01v-3.41h-0.75l-0.89-0.87h6.8
			l0.89,0.87h-5.19V57.83z"/>
		<path class="st0" d="M45.84,59.94c0.01,0.01,0.01,0.02,0.02,0.03c0,0,0.01,0.01,0.02,0.03c0.03,0.03,0.05,0.07,0.08,0.11
			c0.02,0.04,0.04,0.08,0.06,0.11c0.09,0.17,0.13,0.35,0.13,0.55c0,0.3-0.1,0.52-0.29,0.66s-0.42,0.22-0.67,0.22
			c-0.41,0-0.73-0.11-0.96-0.34c-0.22-0.22-0.34-0.54-0.34-0.96c0-0.23,0.04-0.43,0.13-0.62c0.09-0.18,0.2-0.34,0.35-0.47
			s0.32-0.23,0.51-0.31c0.19-0.07,0.4-0.11,0.61-0.11c0.25,0,0.48,0.04,0.68,0.13s0.39,0.21,0.56,0.36s0.32,0.32,0.46,0.5
			c0.14,0.19,0.26,0.38,0.37,0.57v-2.58H43.5l-0.87-0.87h6.43l0.9,0.87h-1.53v6.61l-0.5-0.65c0.01-0.05,0.02-0.1,0.02-0.12
			s0-0.05,0-0.08c0-0.19-0.02-0.41-0.07-0.66s-0.11-0.5-0.2-0.77c-0.09-0.27-0.2-0.53-0.32-0.79s-0.26-0.49-0.42-0.7
			c-0.15-0.21-0.33-0.38-0.52-0.51S46.05,59.95,45.84,59.94z"/>
	</g>
	<g>
		<path class="st0" d="M46.3,9.99H21.24c-3.68,0-6.67,2.99-6.67,6.67v25.06c0,4.57,3.72,8.29,8.29,8.29h31.73V18.28
			C54.59,13.71,50.87,9.99,46.3,9.99z M53.01,48.42H22.86c-3.7,0-6.71-3.01-6.71-6.71V16.65c0-2.81,2.28-5.09,5.09-5.09H46.3
			c3.7,0,6.71,3.01,6.71,6.71V48.42z"/>
		<polygon class="st0" points="45.17,21 47.38,15.9 41.91,17.53 42.87,18.55 34.8,26.16 31.13,22.39 20.12,33 20.11,33.31 
			31.05,24.97 34.74,28.76 44.14,19.9 		"/>
		<path class="st0" d="M45.91,36.13c-2.22,0-4.03,1.81-4.03,4.03s1.81,4.03,4.03,4.03s4.03-1.81,4.03-4.03
			C49.93,37.93,48.13,36.13,45.91,36.13z M45.91,43.39c-1.78,0-3.24-1.45-3.24-3.24c0-1.79,1.45-3.24,3.24-3.24
			c1.79,0,3.24,1.45,3.24,3.24C49.15,41.94,47.69,43.39,45.91,43.39z"/>
		<path class="st0" d="M20.14,44.24h5.25v-8.79h-5.25V44.24z M20.84,36.25h3.85v7.19h-3.85V36.25z"/>
		<path class="st0" d="M27.49,44.24h5.25V32.2h-5.25V44.24z M28.2,33h3.85v10.44H28.2V33z"/>
		<path class="st0" d="M35.04,44.24h5.25V30.38h-5.25V44.24z M35.75,31.18h3.85v12.26h-3.85V31.18z"/>
		<path class="st0" d="M42.47,36.3l0.61-0.49c0.82-0.65,1.89-1.01,3.01-1.01c0.76,0,1.52,0.17,2.18,0.49l0.54,0.26v-9.76h-6.34V36.3
			z M43.22,26.54h4.83v7.84c-0.62-0.22-1.29-0.34-1.96-0.34c-1.03,0-2.03,0.26-2.87,0.76V26.54z"/>
		<path class="st0" d="M45.94,39.82v-0.81c0.13,0.06,0.22,0.17,0.25,0.33l0.52-0.07c-0.04-0.21-0.12-0.37-0.25-0.5
			c-0.13-0.12-0.3-0.2-0.52-0.22v-0.2h-0.3v0.2c-0.24,0.02-0.43,0.11-0.57,0.27c-0.14,0.15-0.21,0.34-0.21,0.57
			c0,0.22,0.06,0.41,0.19,0.57s0.32,0.27,0.59,0.35v0.87c-0.07-0.04-0.14-0.09-0.2-0.17c-0.06-0.08-0.1-0.17-0.12-0.29l-0.54,0.06
			c0.04,0.27,0.14,0.48,0.29,0.63s0.34,0.24,0.58,0.27v0.38h0.3v-0.39c0.27-0.04,0.48-0.14,0.63-0.31c0.15-0.17,0.23-0.38,0.23-0.63
			c0-0.22-0.06-0.41-0.18-0.55C46.49,40.03,46.27,39.91,45.94,39.82z M45.64,39.73c-0.09-0.04-0.16-0.09-0.2-0.15
			s-0.07-0.13-0.07-0.2c0-0.08,0.02-0.15,0.07-0.22c0.05-0.07,0.11-0.11,0.19-0.14v0.71H45.64z M46.19,41.07
			c-0.06,0.08-0.15,0.12-0.25,0.14V40.4c0.12,0.04,0.21,0.09,0.27,0.15c0.05,0.07,0.08,0.15,0.08,0.24
			C46.29,40.9,46.25,40.99,46.19,41.07z"/>
	</g>
</g>
</svg>
