<?xml version="1.0" encoding="utf-8"?>
<!-- Generator: Adobe Illustrator 28.2.0, SVG Export Plug-In . SVG Version: 6.00 Build 0)  -->
<svg version="1.1" id="Layer_1" xmlns="http://www.w3.org/2000/svg" xmlns:xlink="http://www.w3.org/1999/xlink" x="0px" y="0px"
	 viewBox="0 0 72 72" style="enable-background:new 0 0 72 72;" xml:space="preserve">
<style type="text/css">
	.st0{fill:#13D485;}
</style>
<g>
	<g>
		<path class="st0" d="M31,56.8v6.4l-0.5-0.4c-0.1-0.4-0.3-0.8-0.5-1.2c-0.2-0.4-0.5-0.7-0.7-1c-0.2,0.2-0.4,0.4-0.6,0.6
			c-0.2,0.2-0.5,0.2-0.9,0.2s-0.6-0.1-0.9-0.2c-0.3-0.1-0.5-0.3-0.8-0.6s-0.5-0.5-0.6-0.8c-0.2-0.3-0.4-0.7-0.5-1s-0.3-0.7-0.4-1
			s-0.2-0.7-0.2-0.9l0.6,0.3c0.1,0.3,0.3,0.7,0.4,1.1s0.3,0.7,0.5,1c0.2,0.3,0.4,0.5,0.7,0.7s0.6,0.3,1,0.3c0.2,0,0.4,0,0.5-0.1
			c0.1-0.1,0.2-0.1,0.3-0.2s0.1-0.2,0.2-0.3c0-0.1,0-0.2,0-0.4c0-0.2-0.1-0.4-0.2-0.6s-0.2-0.3-0.3-0.3c-0.1,0.2-0.2,0.3-0.3,0.4
			s-0.3,0.2-0.6,0.2c-0.1,0-0.3,0-0.4-0.1c-0.1,0-0.2-0.1-0.4-0.2s-0.2-0.2-0.3-0.3c-0.1-0.1-0.1-0.3-0.1-0.4c0-0.2,0-0.3,0.1-0.5
			c0.1-0.1,0.2-0.2,0.3-0.3s0.3-0.1,0.4-0.2s0.3,0,0.4,0c0.3,0,0.6,0.1,0.9,0.2c0.3,0.2,0.5,0.4,0.7,0.6s0.3,0.5,0.4,0.8
			s0.1,0.6,0.1,0.9l0.4,0.7v-3.3h-5.7l-0.9-0.9h8.1l0.9,0.9L31,56.8L31,56.8z"/>
		<path class="st0" d="M34.6,56.8v2.1c0.1,0,0.3-0.1,0.4-0.1s0.2-0.2,0.3-0.3c0-0.1,0.1-0.1,0.2-0.2c0.1-0.1,0.1-0.1,0.2-0.2
			c0.1-0.1,0.1-0.2,0.2-0.2s0.1-0.2,0.2-0.2c0.2,0.1,0.4,0.2,0.5,0.4s0.3,0.4,0.4,0.6c0.1,0.2,0.2,0.4,0.2,0.6s0.1,0.4,0.1,0.6
			c0,0.4,0,0.7-0.1,1s-0.2,0.6-0.4,0.8S36.3,62,36,62.1s-0.6,0.2-1,0.2c-0.4,0-0.8-0.1-1.1-0.3s-0.6-0.4-0.8-0.7s-0.4-0.6-0.6-1
			c-0.2-0.4-0.3-0.8-0.4-1.2c-0.1-0.4-0.2-0.8-0.2-1.2c-0.1-0.4-0.1-0.8-0.1-1.1l0.6,0.3c0,0.4,0.1,0.8,0.2,1.2s0.3,0.8,0.5,1.2
			c0.2,0.4,0.5,0.7,0.8,0.9s0.7,0.4,1.1,0.4c0.2,0,0.4,0,0.6-0.1s0.4-0.2,0.5-0.3s0.3-0.3,0.4-0.4s0.2-0.4,0.2-0.6
			c0-0.1,0-0.2,0-0.3c0-0.1-0.1-0.2-0.1-0.2c-0.1,0.1-0.2,0.2-0.3,0.4c-0.1,0.1-0.3,0.2-0.5,0.4c-0.2,0.1-0.3,0.2-0.5,0.3
			s-0.3,0.1-0.4,0.1s-0.2,0-0.4-0.1s-0.2-0.1-0.3-0.2c-0.1-0.1-0.2-0.2-0.2-0.3s-0.1-0.2-0.1-0.4v-2.4h-2.3L30.6,56h7.2l0.9,0.9
			C38.7,56.8,34.6,56.8,34.6,56.8z"/>
		<path class="st0" d="M36.1,55.8h-1.9l3.9-2.8l0.9,0.1L36.1,55.8z"/>
		<path class="st0" d="M39.5,56.8v6.4c0,0-0.1,0-0.2-0.1S39.1,63,39,62.9c-0.1-0.1-0.2-0.2-0.4-0.3v-4.6c0-0.4-0.1-0.6-0.2-0.8
			c-0.1-0.2-0.3-0.3-0.7-0.2L37,56c0.1,0,0.2,0,0.3,0s0.1,0,0.2,0s0.1,0,0.1,0s0.1,0,0.1,0c0.2,0,0.5,0,0.6,0.1s0.3,0.2,0.4,0.4
			c0-0.1,0-0.2,0-0.2s0-0.2,0-0.3s0-0.3,0-0.4c0-0.2,0-0.4-0.1-0.6l0.5,0.4c0,0.1,0,0.2,0,0.2s0,0.1,0,0.1s0,0.1,0.1,0.1l0.1,0.1
			h0.9l0.9,0.9L39.5,56.8C39.5,56.8,39.5,56.8,39.5,56.8z"/>
		<path class="st0" d="M44.7,56.8v6.2c-0.1-0.1-0.2-0.1-0.3-0.2c0,0-0.1,0-0.1-0.1c0,0-0.1-0.1-0.2-0.2c-0.1-0.1-0.1-0.2-0.2-0.3
			c-0.1-0.1-0.1-0.2-0.2-0.4s-0.2-0.3-0.2-0.4c-0.1-0.1-0.2-0.3-0.3-0.4c-0.2-0.2-0.5-0.5-0.8-0.7s-0.8-0.3-1.3-0.3l-0.9-1.2
			c0.6-0.4,1.2-0.8,1.8-1.1c0.6-0.3,1.2-0.6,1.9-0.8v-0.2h-3.6l-0.9-0.9h6l0.9,0.9L44.7,56.8C44.7,56.8,44.7,56.8,44.7,56.8z
			 M42.3,62.5c-0.1,0-0.2,0-0.3-0.1s-0.2-0.1-0.2-0.2s-0.1-0.2-0.2-0.2c0-0.1-0.1-0.2-0.1-0.3c0-0.2,0.1-0.4,0.2-0.5S42,61,42.2,61
			c0.2,0,0.4,0.1,0.5,0.2c0.2,0.2,0.2,0.3,0.2,0.5c0,0.2-0.1,0.4-0.2,0.5C42.6,62.5,42.5,62.5,42.3,62.5z M43.8,58.2
			c-0.4,0.1-0.7,0.3-1,0.5c-0.3,0.2-0.6,0.4-1,0.6c0.4,0.2,0.8,0.4,1.1,0.7c0.3,0.3,0.6,0.6,0.9,1V58.2L43.8,58.2z"/>
	</g>
	<g>
		<path class="st0" d="M46.5,9H21.4c-3.7,0-6.7,3-6.7,6.7v25.1c0,4.6,3.7,8.3,8.3,8.3h31.7V17.3C54.8,12.7,51,9,46.5,9z M53.2,47.5
			H23c-3.7,0-6.7-3-6.7-6.7V15.7c0-2.8,2.3-5.1,5.1-5.1h25.1c3.7,0,6.7,3,6.7,6.7V47.5z"/>
		<path class="st0" d="M46.4,14.7c-7,0-13.9,0-20.9,0c-1,0.4-1.4,1.2-1.4,2.3c0,4.3,0,8.5,0,12.8c0,0.2,0,0.5,0,0.7c0.5,0,1,0,1.5,0
			c0-0.2,0-0.5,0-0.7c0-4.3,0-8.5,0-12.8c0-0.6,0.1-0.8,0.8-0.8c6.4,0,12.8,0,19.2,0c0.5,0,0.7,0.1,0.7,0.7c0,7.4,0,14.9,0,22.3
			c0,0.6-0.1,0.8-0.7,0.8c-3.9,0-7.8,0-11.7,0c-0.6,0-0.9,0.1-1,0.7c0,0.3-0.2,0.5-0.3,0.8c0.3,0,0.5,0,0.7,0c4.1,0,8.3,0,12.4,0
			c1.4,0,2.1-0.7,2.1-2.1c0-7.5,0-15,0-22.5C47.8,15.7,47.4,15,46.4,14.7z"/>
		<path class="st0" d="M23.8,41.5c-0.5-0.1-0.9,0-1.1,0.5c-0.2,0.4-0.2,0.8,0.2,1.2c0.1,0.1,0.2,0.2,0.4,0.3c0.2,0,0.4,0,0.6,0
			c0.4-0.2,0.8-0.5,0.7-1.1C24.6,42,24.3,41.7,23.8,41.5z"/>
		<path class="st0" d="M28.3,41.5c-0.5-0.1-0.9,0.1-1.1,0.5c-0.2,0.4-0.2,0.8,0.2,1.2c0.1,0.1,0.2,0.2,0.4,0.3c0.2,0,0.4,0,0.6,0
			c0.4-0.3,0.8-0.6,0.7-1.1C29,42,28.8,41.6,28.3,41.5z"/>
		<path class="st0" d="M33.5,32.8c0.2,0,0.3-0.2,0.3-0.4c0-0.1-0.1-0.3-0.2-0.4c-0.5-0.2-2.1,0-2.5,0.4c-0.2,0.2-0.4,0.5-0.4,0.7
			c-0.1,0.5-0.4,0.5-0.8,0.5c-2.8,0-5.6,0-8.4,0c-0.8,0-0.9,0.1-0.7,0.8c0.3,1.2,0.6,2.4,0.9,3.6c0.1,0.6,0.4,0.8,1,0.8
			c1.9,0,3.8,0,5.7,0c0.2,0,0.4,0,0.6,0c-0.1,0.9-0.4,1.1-1.2,1.1c-1.7,0-3.4,0-5.1,0c-0.3,0-0.8,0-0.7,0.4c0,0.2,0.5,0.4,0.7,0.4
			c1.7,0,3.5,0,5.2,0c1.3,0,1.7-0.4,2-1.7c0.5-1.7,0.9-3.5,1.4-5.2c0.3-1.1,0.4-1.2,1.5-1.2C33,32.8,33.2,32.9,33.5,32.8z"/>
		<path class="st0" d="M41.6,27.3c-3.8,0-7.6,0-11.4,0c-0.7,0-1,0.3-1,0.8c0,0.5,0.3,0.7,1,0.7c1.9,0,3.8,0,5.7,0s3.8,0,5.7,0
			c0.7,0,1-0.3,1-0.8C42.6,27.6,42.3,27.3,41.6,27.3z"/>
		<path class="st0" d="M41.6,21c-3.8,0-7.6,0-11.4,0c-0.7,0-1,0.3-1,0.8s0.3,0.8,1,0.8c1.9,0,3.8,0,5.7,0s3.8,0,5.7,0
			c0.7,0,1-0.3,1-0.8C42.6,21.3,42.3,21,41.6,21z"/>
		<path class="st0" d="M41.9,33.6c-1.7,0-3.4,0-5,0c-0.5,0-0.8,0.3-0.7,0.8c0,0.5,0.3,0.7,0.8,0.7c0.8,0,1.7,0,2.5,0
			c0.8,0,1.6,0,2.4,0c0.5,0,0.8-0.2,0.8-0.7C42.7,33.9,42.3,33.6,41.9,33.6z"/>
	</g>
</g>
</svg>
