<?xml version="1.0" encoding="utf-8"?>
<!-- Generator: Adobe Illustrator 28.2.0, SVG Export Plug-In . SVG Version: 6.00 Build 0)  -->
<svg version="1.1" id="Layer_1" xmlns="http://www.w3.org/2000/svg" xmlns:xlink="http://www.w3.org/1999/xlink" x="0px" y="0px"
	 viewBox="0 0 72 72" style="enable-background:new 0 0 72 72;" xml:space="preserve">
<style type="text/css">
	.st0{fill:#FFFFFF;}
	.st1{fill:#13D485;}
</style>
<g>
	<path class="st0" d="M23.6,52.1v4.6l-0.1-0.1c0,0,0,0.1,0,0.1s0,0-0.1,0c0,0,0,0,0,0s0,0,0,0c0,0,0,0-0.1-0.1s0-0.1-0.1-0.1
		c0,0-0.1-0.1-0.1-0.1s-0.1-0.1-0.1-0.1c0,0-0.1-0.1-0.1-0.1l0-2.5c0-0.2,0-0.3-0.1-0.5s-0.2-0.3-0.3-0.5s-0.2-0.3-0.4-0.4
		s-0.3-0.2-0.4-0.2c-0.4,0-0.6,0.1-0.8,0.4c0.1,0,0.2,0,0.3,0c0.1,0,0.3,0,0.4,0c0.1,0,0.2,0.1,0.3,0.2c0.1,0.1,0.2,0.2,0.2,0.3
		s0.1,0.2,0.1,0.4c0,0.1,0,0.3-0.1,0.4s-0.1,0.3-0.2,0.4s-0.2,0.3-0.3,0.4s-0.2,0.2-0.3,0.3l-0.6-0.7c0.1-0.1,0.1-0.1,0.3-0.2
		s0.2-0.2,0.3-0.3s0.2-0.2,0.3-0.3s0.1-0.2,0.1-0.2c0-0.1,0-0.1-0.1-0.1c0,0-0.1,0-0.1,0c0,0-0.1,0-0.1,0.1s-0.1,0-0.1,0.1
		c-0.1,0.1-0.2,0.1-0.3,0.1c-0.1,0-0.2,0.1-0.2,0.1c-0.1,0-0.2,0-0.2-0.1s-0.1-0.1-0.2-0.2c0-0.1-0.1-0.2-0.1-0.2s0-0.2,0-0.2
		c0-0.2,0-0.4,0.1-0.5s0.2-0.3,0.3-0.4c0.1-0.1,0.3-0.2,0.5-0.3c0.2-0.1,0.3-0.1,0.5-0.1c0.3,0,0.5,0,0.7,0.1s0.4,0.1,0.5,0.2
		s0.2,0.2,0.3,0.3s0.2,0.3,0.2,0.5c0-0.3,0-0.6-0.1-0.9s0-0.7,0-1.1l0.5,0.5c0,0,0,0.1,0,0.1s0,0,0,0c0,0.1,0,0.2,0,0.2s0,0,0.1,0
		c0,0,0.1,0,0.2,0c0,0,0.1,0,0.1,0s0.1,0,0.1,0l0.1,0l0.6,0.6L23.6,52.1L23.6,52.1L23.6,52.1z"/>
	<path class="st0" d="M23.3,56.7c0,0,0-0.1-0.1-0.1s0-0.1,0-0.1c-0.1-0.2-0.2-0.3-0.2-0.4c-0.1-0.1-0.1-0.2-0.2-0.2
		c-0.1-0.1-0.2-0.1-0.3-0.1c-0.1,0-0.3,0-0.5,0c-0.2,0-0.4,0-0.6,0s-0.4,0-0.6,0c-0.2,0-0.4,0-0.6-0.1s-0.4-0.2-0.5-0.3
		c-0.1-0.1-0.3-0.3-0.3-0.5s-0.1-0.4-0.1-0.6c0-0.1,0-0.3,0-0.4s0-0.3,0.1-0.5l0.4,0.4c0,0.1,0,0.1,0,0.1s0,0.1,0,0.1
		c0,0.2,0,0.3,0.1,0.4s0.1,0.2,0.3,0.2s0.2,0.1,0.4,0.1s0.3,0,0.5,0.1c0.2,0,0.4,0,0.6,0s0.4,0,0.6,0.1s0.4,0.1,0.5,0.2
		s0.3,0.2,0.4,0.4c0.1,0.1,0.1,0.2,0.2,0.2c0,0.1,0.1,0.1,0.1,0.2c0,0.1,0.1,0.1,0.1,0.2s0.1,0.1,0.1,0.2v0.7
		c-0.1-0.1-0.2-0.1-0.2-0.2C23.4,56.9,23.4,56.8,23.3,56.7z"/>
	<path class="st0" d="M25.3,52.1v4.8c0,0-0.1,0-0.1-0.1s-0.1-0.1-0.2-0.2c-0.1-0.1-0.2-0.2-0.3-0.3v-3.4c0-0.3,0-0.5-0.1-0.6
		c-0.1-0.1-0.3-0.2-0.5-0.2l-0.5-0.7c0.1,0,0.2,0,0.2,0s0.1,0,0.1,0c0,0,0.1,0,0.1,0s0,0,0.1,0c0.2,0,0.3,0,0.5,0.1s0.2,0.2,0.3,0.3
		c0-0.1,0-0.1,0-0.2c0-0.1,0-0.2,0-0.2s0-0.2,0-0.3c0-0.1,0-0.3,0-0.4L25,51c0,0.1,0,0.2,0,0.2s0,0.1,0,0.1c0,0,0,0.1,0.1,0.1
		l0.1,0.1h0.7l0.6,0.7L25.3,52.1L25.3,52.1z"/>
	<path class="st0" d="M27.8,52.1l0.1-0.1c0,0,0,0,0,0.1s0,0,0,0c0,0,0,0,0,0s0,0,0,0s0,0,0,0c0.2,0,0.4,0.1,0.5,0.2s0.3,0.2,0.4,0.3
		s0.2,0.3,0.3,0.4c0.1,0.2,0.1,0.3,0.1,0.5c0,0.2,0,0.4-0.1,0.5s-0.2,0.3-0.3,0.4c-0.1,0-0.1,0.1-0.2,0.1c-0.1,0-0.1,0.1-0.2,0.1
		c0,0-0.1,0-0.1,0.1s-0.1,0-0.1,0.1c0.2,0.1,0.4,0.2,0.5,0.3s0.3,0.1,0.4,0.2c0.1,0,0.1,0.1,0.2,0.1c0.1,0,0.1,0.1,0.2,0.2
		c0.1,0.1,0.2,0.1,0.2,0.2s0.2,0.2,0.3,0.3l0.3,1.1c-0.3-0.3-0.6-0.6-0.9-0.9c-0.3-0.2-0.6-0.5-1-0.6s-0.7-0.3-1-0.4s-0.7-0.2-1-0.3
		l-0.6-1.6c0.3,0.2,0.6,0.4,0.9,0.5s0.5,0.1,0.7,0.1c0.1,0,0.2,0,0.4,0c0.1,0,0.3-0.1,0.5-0.1c0.1,0,0.3-0.1,0.4-0.2
		s0.1-0.2,0.1-0.3c0-0.2-0.1-0.3-0.2-0.4s-0.3-0.2-0.5-0.2c0,0-0.1,0-0.1,0c0,0.1,0,0.2-0.1,0.3s-0.1,0.2-0.2,0.3
		c-0.1,0.1-0.2,0.2-0.3,0.2s-0.2,0.1-0.3,0.1c-0.2,0-0.3,0-0.5-0.2s-0.2-0.2-0.2-0.5c0-0.2,0-0.3,0.1-0.4s0.2-0.2,0.3-0.3
		c0.1,0,0.1-0.1,0.2-0.1s0.1-0.1,0.2-0.1c0.1,0,0.2-0.1,0.3-0.1c0,0,0,0-0.1,0s-0.1,0-0.1,0c0,0-0.1,0-0.1,0s-0.1,0-0.1,0h-1.2
		l-0.7-0.7h4.7l0.6,0.7L27.8,52.1C27.8,52,27.8,52.1,27.8,52.1z"/>
	<path class="st0" d="M34.3,54c0-0.1-0.1-0.2-0.1-0.4s-0.2-0.2-0.3-0.3c-0.1-0.1-0.2-0.2-0.3-0.2c-0.1,0-0.2-0.1-0.4,0h0v3.6
		c0,0-0.1,0-0.1,0s-0.1,0-0.1-0.1c0,0-0.1-0.1-0.1-0.1c-0.1-0.3-0.2-0.5-0.3-0.7s-0.3-0.4-0.5-0.6s-0.4-0.3-0.6-0.4
		c-0.2-0.1-0.5-0.2-0.8-0.2l-0.7-0.9c0.2-0.2,0.4-0.3,0.6-0.4s0.4-0.3,0.7-0.4c0.2-0.1,0.5-0.2,0.7-0.3c0.2-0.1,0.4-0.2,0.6-0.2
		v-0.2h-2.7l-0.7-0.7h5.9l0.6,0.7h-2.5v0.2c0.3,0,0.5,0.1,0.8,0.2s0.4,0.3,0.6,0.5c0.2,0.2,0.3,0.4,0.4,0.6c0.1,0.2,0.1,0.4,0.1,0.6
		c0,0.1,0,0.2-0.1,0.3s-0.1,0.2-0.2,0.3s-0.2,0.2-0.3,0.2s-0.2,0.1-0.4,0.1c-0.1,0-0.2,0-0.2,0s-0.2-0.1-0.2-0.1
		c-0.1-0.1-0.1-0.1-0.2-0.2c0-0.1-0.1-0.2-0.1-0.3c0-0.1,0-0.3,0.1-0.4s0.1-0.2,0.2-0.2c0.1,0,0.2-0.1,0.3,0S34.2,53.9,34.3,54z
		 M32.5,53.1c-0.3,0.1-0.5,0.2-0.7,0.3s-0.4,0.3-0.6,0.4c0.6,0.3,1,0.7,1.4,1.2V53.1L32.5,53.1z"/>
	<path class="st0" d="M41.5,52.1v4.6c0,0-0.1,0-0.2-0.1c-0.1-0.1-0.1-0.1-0.2-0.2c-0.1-0.1-0.2-0.2-0.3-0.3V54c0,0,0-0.1-0.1-0.1
		s-0.1-0.1-0.2-0.1s-0.1-0.1-0.2-0.1s-0.1,0-0.2,0c-0.1,0-0.2,0.1-0.3,0.2c0,0,0,0.1-0.1,0.1S39.8,54,39.7,54s0,0.1-0.1,0.1
		c0,0-0.1,0.1-0.1,0.1c-0.1,0.1-0.1,0.2-0.2,0.3s-0.1,0.2-0.2,0.2C39.1,54.9,39,55,39,55s-0.2,0.1-0.3,0.1c-0.2,0-0.3,0-0.4-0.1
		s-0.2-0.2-0.3-0.2c0,0-0.1-0.1-0.1-0.2c0-0.1-0.1-0.1-0.1-0.2c0-0.1-0.1-0.1-0.1-0.2c0-0.1-0.1-0.2-0.1-0.2l0.5-0.5
		c0,0.1,0,0.2,0.1,0.3c0,0.1,0.1,0.2,0.1,0.2s0.1,0.1,0.1,0.2s0.1,0.1,0.1,0.1c0,0,0.1,0,0.2-0.1s0.1-0.2,0.2-0.3
		c0.1-0.1,0.1-0.2,0.2-0.3c0.1-0.1,0.1-0.2,0.1-0.2c0-0.2,0-0.3-0.1-0.4c0-0.1-0.1-0.2-0.1-0.2s-0.1-0.1-0.2-0.1s-0.1,0-0.2,0
		c0,0-0.1,0-0.1,0s-0.1,0-0.1,0c0,0-0.1,0-0.1,0c0,0-0.1,0-0.2,0c-0.1,0-0.2-0.1-0.3-0.1s-0.2-0.1-0.2-0.2c0,0-0.1,0-0.1-0.1
		c0,0-0.1-0.1-0.2-0.1c-0.1-0.1-0.1-0.1-0.2-0.2s-0.2-0.2-0.2-0.2h5.2l0.7,0.7L41.5,52.1C41.5,52.1,41.5,52.1,41.5,52.1z M40.8,52.1
		h-1.7c0.1,0.1,0.2,0.2,0.3,0.4s0.1,0.3,0.1,0.4c0.1,0,0.1-0.1,0.2-0.1c0.1,0,0.1,0,0.2,0c0.1,0,0.2,0,0.3,0.1s0.2,0.2,0.3,0.2
		c0.1,0.1,0.2,0.2,0.2,0.3V52.1z"/>
	<path class="st0" d="M43,53.9c-0.2,0-0.3,0-0.5-0.1s-0.3-0.2-0.4-0.2c-0.1-0.1-0.2-0.2-0.2-0.4s-0.1-0.3-0.1-0.4
		c0-0.1,0-0.3,0.1-0.4s0.1-0.3,0.2-0.4s0.2-0.2,0.3-0.3s0.3-0.1,0.4-0.1c0.2,0,0.3,0,0.4,0.1c0.1,0.1,0.2,0.2,0.3,0.3
		s0.2,0.2,0.2,0.4s0.1,0.3,0.1,0.4c0,0.1,0,0.3-0.1,0.4s-0.1,0.3-0.2,0.4s-0.2,0.2-0.3,0.2C43.3,53.9,43.2,53.9,43,53.9z M42.2,53.8
		c0.6,0.5,1.1,0.9,1.5,1.4s0.8,1,1.2,1.4v0.7c-0.2-0.2-0.5-0.4-0.7-0.6s-0.4-0.4-0.7-0.6s-0.4-0.3-0.7-0.5s-0.5-0.3-0.7-0.5
		L42.2,53.8L42.2,53.8z M43.3,52.3c-0.1,0-0.2,0-0.2,0.1s-0.2,0.1-0.2,0.2c-0.1,0.1-0.1,0.2-0.2,0.2c0,0.1-0.1,0.2-0.1,0.3
		s0,0.2,0,0.2c0,0,0.1,0,0.1,0c0,0,0.1,0,0.2,0s0.1-0.1,0.2-0.1s0.1-0.1,0.2-0.2s0.1-0.1,0.1-0.1c0,0,0-0.1,0-0.2c0-0.1,0-0.1,0-0.2
		s0-0.1-0.1-0.2S43.3,52.3,43.3,52.3z"/>
	<path class="st0" d="M45.8,52.2c0.1,0,0.2-0.1,0.4-0.2c0.1-0.1,0.2-0.2,0.2-0.2s0.2-0.2,0.2-0.2c0.1,0.1,0.1,0.1,0.2,0.2
		s0.1,0.1,0.2,0.1c0.1,0.1,0.2,0.1,0.2,0.2c0.1,0.1,0.2,0.2,0.2,0.2c0.1,0.1,0.1,0.2,0.2,0.3c0,0.1,0.1,0.2,0.1,0.3
		c0,0.1,0,0.2-0.1,0.4s-0.1,0.2-0.2,0.3c-0.1,0.1-0.2,0.2-0.3,0.3c-0.1,0.1-0.2,0.2-0.3,0.2c0.2,0.1,0.4,0.2,0.6,0.4
		s0.3,0.3,0.5,0.5v-4.4l0.5,0.3l0,0.1c0,0.2,0,0.3,0,0.4s0,0.1,0.1,0.1c0,0,0.1,0,0.2,0c0.1,0,0.1,0,0.2,0s0.2,0,0.3,0l0.7,0.7h-1.2
		v4.7c-0.1-0.1-0.1-0.1-0.2-0.2s-0.1-0.1-0.1-0.1s0-0.1-0.1-0.1s0-0.1-0.1-0.1c-0.2-0.5-0.5-0.9-0.8-1.2c-0.4-0.3-0.8-0.4-1.4-0.5
		l-1-1.2c0.2,0,0.3,0.1,0.4,0.1s0.2,0,0.2,0c0.1,0,0.2,0,0.4,0s0.3-0.1,0.5-0.1s0.3-0.1,0.4-0.2C47,53,47,52.9,47,52.7
		c0-0.1,0-0.2-0.1-0.3c-0.2,0.2-0.4,0.3-0.7,0.5c-0.2,0.1-0.5,0.2-0.8,0.2c-0.1,0-0.2,0-0.3,0c-0.1,0-0.2-0.1-0.2-0.1
		c-0.1-0.1-0.1-0.1-0.2-0.2c0-0.1-0.1-0.2-0.1-0.3c0-0.2,0-0.3,0.2-0.4s0.2-0.2,0.4-0.2c0.1,0,0.2,0,0.3,0.1
		C45.7,51.9,45.8,52,45.8,52.2z"/>
	<path class="st0" d="M51,52.1c-0.3,0-0.5,0.1-0.6,0.2c-0.1,0.1-0.2,0.3-0.2,0.6c0,0.2,0,0.4,0,0.6c0,0.2,0.1,0.4,0.1,0.6
		s0.1,0.4,0.1,0.6s0,0.4,0,0.6c0,0.2,0,0.4-0.1,0.5c-0.1,0.2-0.2,0.3-0.3,0.5c-0.1,0.2-0.3,0.3-0.5,0.4c-0.2,0.1-0.3,0.1-0.5,0.1
		c-0.1,0-0.1,0-0.2-0.1s-0.1-0.1-0.1-0.2c0,0,0-0.1,0.1-0.1s0.1-0.1,0.2-0.1c0,0,0,0,0.1,0s0,0,0.1,0c0,0,0.1,0,0.1,0
		c0.1-0.1,0.2-0.1,0.2-0.2s0.1-0.1,0.2-0.2s0.1-0.1,0.1-0.2s0-0.2,0-0.3c0-0.1,0-0.1,0-0.2c0-0.1,0-0.1,0-0.2c0-0.1,0-0.2,0-0.2
		s0-0.2-0.1-0.2c0-0.2-0.1-0.3-0.1-0.5c0-0.2,0-0.3,0-0.5c0-0.2,0-0.3,0.1-0.5c0-0.1,0.1-0.3,0.2-0.4c0-0.1,0.1-0.1,0.1-0.2
		s0.1-0.1,0.1-0.2c0,0,0-0.1,0.1-0.1s0-0.1,0.1-0.1h-1.1l-0.7-0.7h3c0.1,0.1,0.2,0.2,0.2,0.3c0.1,0.1,0.1,0.1,0.2,0.2
		s0.1,0.1,0.1,0.2C51.7,52.1,51,52.1,51,52.1z"/>
	<path class="st0" d="M52.4,52.1v4.8c0,0-0.1,0-0.2-0.1s-0.1-0.1-0.2-0.2c-0.1-0.1-0.2-0.2-0.3-0.3v-3.4c0-0.3,0-0.5-0.1-0.6
		c-0.1-0.1-0.3-0.2-0.5-0.2l-0.5-0.7c0.1,0,0.2,0,0.2,0s0.1,0,0.1,0c0,0,0.1,0,0.1,0s0,0,0.1,0c0.2,0,0.3,0,0.5,0.1s0.2,0.2,0.3,0.3
		c0-0.1,0-0.1,0-0.2c0-0.1,0-0.2,0-0.2s0-0.2,0-0.3c0-0.1,0-0.3,0-0.4l0.4,0.3c0,0.1,0,0.2,0,0.2s0,0.1,0,0.1c0,0,0,0.1,0.1,0.1
		l0.1,0.1H53l0.7,0.7L52.4,52.1C52.4,52.1,52.4,52.1,52.4,52.1z"/>
	<path class="st1" d="M37.3,30.1c-0.5-0.2-1-0.2-1.5-0.1c-0.7,0.2-1.2,0.7-1.4,1.4c-0.2,0.6-0.1,1.4,0.3,1.9c0.5,0.7,1.5,1,2.4,0.7
		c0.8-0.3,1.3-1,1.4-1.8C38.5,31.3,38,30.5,37.3,30.1z M36.6,33.4c-0.4,0-0.8,0-1.1-0.2s-0.6-0.5-0.7-0.9c-0.1-0.5,0-1.1,0.4-1.4
		c0.2-0.2,0.5-0.3,0.7-0.4c0.8-0.2,1.8,0.5,1.7,1.4C37.8,32.6,37.3,33.3,36.6,33.4z"/>
	<g>
		<g>
			<path class="st1" d="M28.8,33c-0.3-1.2-1.6-2.2-2.9-2c-1,0.1-1.9,0.7-2.2,1.6c-0.2,0.5-0.3,1-0.2,1.5c0.1,0.9,0.7,1.6,1.5,2
				c0.5,0.2,1.1,0.4,1.6,0.2c1-0.2,1.8-0.9,2.1-1.8C28.9,34,28.9,33.5,28.8,33z M27.6,34.9c-0.5,0.5-1.2,0.7-1.9,0.5
				c-0.5-0.2-0.9-0.4-1.1-0.9c-0.3-0.5-0.4-1.3-0.1-1.8c0.2-0.5,0.7-0.9,1.3-1c0.5-0.1,1.1,0,1.5,0.4C28.2,32.8,28.3,34.2,27.6,34.9
				z"/>
		</g>
		<path class="st1" d="M31.3,39c-0.3-1.1-1.2-1.9-2.3-2.2c-0.5-0.1-1-0.2-1.5,0.1c-0.2,0.1-0.4,0.4-0.6,0.6
			c-0.3,0.4-0.9,0.4-1.3,0.2c-0.2-0.2-0.3-0.5-0.6-0.7c-0.3-0.2-0.8-0.4-1.2-0.3c-0.3,0-0.6,0.1-1,0.2c-1.2,0.5-2,1.7-2,3
			c0,0.9,0,1.9,0,2.8c0,0.2,0.2,0.5,0.4,0.4c3,0,6.1,0,9.1,0c0.2,0,0.5,0,0.8,0c0.2-0.1,0.3-0.3,0.3-0.5c0-0.8,0-1.7,0-2.5
			C31.5,39.8,31.4,39.4,31.3,39z M30.6,42.4c-0.1,0-0.2,0-0.3,0c-2.8,0-5.7,0-8.5,0c0-0.9,0-1.8,0-2.7c0-1.1,0.9-2,1.9-2.2
			c0.2,0,0.5,0,0.8,0c0.1,0.1,0.2,0.2,0.3,0.3c0.2,0.3,0.5,0.5,0.9,0.7c0.7,0.2,1.5,0,1.9-0.5c0.1-0.2,0.2-0.4,0.4-0.5
			c0.3,0,0.6,0,0.9,0c1,0.2,1.8,1.2,1.8,2.2c0,0.8,0,1.5,0,2.3C30.6,42.2,30.6,42.3,30.6,42.4z"/>
	</g>
	<g>
		<path class="st1" d="M48.5,31.9c-0.6-0.7-1.7-1-2.6-0.8c-1,0.2-1.8,1.1-2,2.1c-0.1,0.6-0.1,1.2,0.2,1.7c0.4,1,1.5,1.6,2.5,1.5
			c1.4,0,2.6-1.3,2.6-2.7C49.2,33.1,48.9,32.4,48.5,31.9z M48.2,34.6c-0.3,0.6-0.9,1-1.5,1c-0.4,0-0.9,0-1.3-0.3
			c-0.6-0.5-0.9-1.3-0.7-2.1c0.2-0.7,0.9-1.3,1.7-1.3c0.9-0.1,1.8,0.6,1.9,1.5C48.4,33.8,48.4,34.3,48.2,34.6z"/>
		<path class="st1" d="M51.7,39.4c-0.2-1.3-1.4-2.4-2.7-2.6c-0.4-0.1-0.9,0-1.3,0.2c-0.3,0.2-0.5,0.7-0.8,0.8
			c-0.3,0.2-0.7,0.1-0.9-0.1c-0.3-0.1-0.3-0.4-0.5-0.6c-0.4-0.4-0.9-0.5-1.4-0.3c-1.3,0.1-2.4,1.2-2.7,2.4c-0.1,0.4-0.1,0.9-0.1,1.3
			c0,0.8,0,1.6,0,2.4c0,0.3,0.3,0.4,0.6,0.4c3,0,5.9,0,8.9,0c0.2,0,0.5,0,0.8,0c0.2-0.1,0.4-0.2,0.3-0.4c0-0.9,0-1.8,0-2.7
			C51.8,40,51.8,39.7,51.7,39.4z M51,42.5c-2.7,0-5.5,0-8.2,0c-0.2,0-0.4,0-0.7,0c0-0.9,0-1.8,0-2.7c0.1-1.2,1.3-2.2,2.5-2.1
			c0.2,0,0.3,0.2,0.4,0.4c0.3,0.5,0.9,0.8,1.5,0.8c0.5,0,1-0.2,1.4-0.7c0.2-0.2,0.2-0.4,0.4-0.5c0.9-0.2,1.9,0.4,2.4,1.2
			c0.2,0.4,0.3,0.9,0.3,1.4C50.9,41,51,41.7,51,42.5z"/>
	</g>
	<g>
		<path class="st1" d="M36.8,27.6c-0.2,0-0.3,0-0.5,0l-0.3,0l0-0.4c0-0.1,0-0.2,0-0.3c0-0.3,0-0.6-0.1-0.8c-0.1-0.2-0.3-0.4-0.5-0.5
			s-0.5-0.1-0.8,0c-0.2,0.1-0.4,0.3-0.6,0.5c-0.1,0.1-0.2,0.1-0.2,0.2l-0.3,0.2l-0.3-0.2c-0.3-0.3-0.6-0.6-0.9-0.9L32,25.1l0.4-0.5
			c0.2-0.2,0.4-0.4,0.5-0.6c0.1-0.2,0.1-0.5,0-0.8s-0.3-0.5-0.5-0.6c-0.2-0.1-0.5-0.1-0.8-0.1c-0.1,0-0.2,0-0.3,0l-0.3,0l0-0.4
			c0-0.4,0-0.8,0-1.3l0-0.4l0.5,0c0.3,0,0.6,0,0.9-0.1c0.2-0.1,0.5-0.3,0.6-0.6c0.1-0.3,0.1-0.6,0-0.8c-0.1-0.2-0.3-0.4-0.5-0.6
			L32,18l0.2-0.3c0.3-0.4,0.6-0.7,0.9-0.9l0.2-0.2l0.3,0.2c0.1,0.1,0.2,0.1,0.3,0.2c0.2,0.1,0.3,0.3,0.5,0.4c0.2,0.1,0.5,0.1,0.8,0
			c0.3-0.1,0.5-0.3,0.6-0.5c0.1-0.2,0.1-0.5,0.1-0.7c0-0.1,0-0.2,0-0.4l0-0.4l0.3,0c0.4,0,0.8,0,1.2,0l0.4,0l0,0.4
			c0,0.1,0,0.2,0,0.3c0,0.3,0,0.6,0.1,0.8c0.2,0.4,0.8,0.7,1.3,0.5c0.2-0.1,0.4-0.3,0.7-0.5c0.1-0.1,0.1-0.1,0.2-0.2l0.2-0.2
			l0.2,0.2c0.3,0.3,0.7,0.6,0.9,0.9l0.2,0.2l-0.2,0.2c-0.1,0.1-0.1,0.2-0.2,0.2c-0.2,0.2-0.3,0.4-0.4,0.6c-0.2,0.5,0,1.1,0.5,1.3
			c0.2,0.1,0.5,0.1,0.9,0.1l0.6,0l0,0.4c0,0.4,0,0.8,0,1.2v0.4l-0.4,0c-0.1,0-0.2,0-0.4,0c-0.3,0-0.5,0-0.7,0.1
			c-0.2,0.1-0.4,0.3-0.5,0.5c-0.1,0.3-0.1,0.5,0,0.8c0.1,0.2,0.3,0.4,0.5,0.7l0.4,0.5l-0.2,0.3c-0.3,0.3-0.6,0.6-0.9,0.9l-0.3,0.2
			l-0.3-0.2C40.1,26.2,40,26.1,40,26c-0.2-0.2-0.4-0.3-0.6-0.5c-0.5-0.2-1.1,0-1.3,0.5c-0.1,0.2-0.1,0.5-0.1,0.9l0,0.6l-0.4,0
			C37.3,27.6,37.1,27.6,36.8,27.6z M36.7,26.8c0.2,0,0.3,0,0.5,0c0-0.3,0-0.7,0.2-1c0.4-0.9,1.5-1.3,2.4-0.9
			c0.3,0.1,0.5,0.3,0.7,0.5c0.1-0.1,0.2-0.2,0.3-0.3c-0.2-0.2-0.4-0.5-0.5-0.8c-0.2-0.5-0.2-1,0-1.5c0.2-0.5,0.6-0.8,1-1l0,0
			c0.3-0.1,0.6-0.1,0.9-0.2c0-0.1,0-0.3,0-0.5c-0.3,0-0.6,0-1-0.2c-0.9-0.4-1.3-1.5-1-2.4c0.1-0.3,0.3-0.6,0.5-0.8
			c-0.1-0.1-0.2-0.2-0.3-0.3c-0.2,0.2-0.5,0.4-0.8,0.5c-0.9,0.4-2-0.1-2.3-1c-0.1-0.3-0.2-0.7-0.2-1c-0.2,0-0.3,0-0.5,0
			c0,0.3,0,0.6-0.2,0.9c-0.2,0.5-0.6,0.9-1.1,1c-0.5,0.2-1,0.1-1.5-0.1c-0.2-0.1-0.4-0.3-0.6-0.4l0,0c-0.1,0.1-0.2,0.2-0.3,0.3
			c0.2,0.2,0.3,0.4,0.5,0.6c0.2,0.4,0.3,1,0.1,1.5c-0.2,0.5-0.6,0.9-1.1,1.1c-0.3,0.1-0.6,0.1-0.9,0.1c0,0.2,0,0.3,0,0.5
			c0.3,0,0.6,0,0.9,0.2c0.5,0.2,0.8,0.6,1,1.1c0.2,0.5,0.2,1-0.1,1.5c-0.2,0.3-0.3,0.5-0.5,0.7c0.1,0.1,0.2,0.2,0.3,0.3
			c0.2-0.2,0.5-0.4,0.8-0.5c0.4-0.2,0.9-0.2,1.4,0c0.5,0.2,0.8,0.5,1,1C36.7,26.1,36.7,26.5,36.7,26.8z M36.9,24.1
			c-1.2,0-2.4-1-2.5-2.3c-0.2-1.2,0.7-2.5,1.9-2.8c0.7-0.2,1.5-0.1,2.2,0.4c0.7,0.5,1.1,1.1,1.1,1.9c0.1,0.6-0.1,1.3-0.6,1.9
			c-0.5,0.5-1.1,0.9-1.8,0.9C37.1,24.1,37,24.1,36.9,24.1z M36.9,19.8c-0.2,0-0.3,0-0.5,0.1c-0.8,0.2-1.4,1.1-1.3,1.9
			c0.1,0.9,1,1.6,1.9,1.5h0c0.4,0,0.9-0.3,1.2-0.6c0.3-0.4,0.5-0.9,0.4-1.3c0-0.5-0.3-1-0.8-1.3C37.6,19.9,37.3,19.8,36.9,19.8z"/>
	</g>
	<g>
		<path class="st1" d="M37.5,37.2c-0.6-0.3-1.2-0.3-1.8-0.2c-0.8,0.2-1.5,0.9-1.8,1.7c-0.3,0.8-0.1,1.7,0.4,2.3
			c0.7,0.9,1.9,1.3,2.9,0.9c1-0.3,1.7-1.3,1.7-2.3C39,38.7,38.5,37.6,37.5,37.2z M36.8,41.3c-0.5,0.1-0.9,0-1.3-0.2
			c-0.4-0.3-0.7-0.6-0.8-1.1c-0.2-0.6,0-1.3,0.5-1.7c0.2-0.2,0.5-0.4,0.9-0.5c1-0.2,2.2,0.6,2.1,1.7C38.2,40.3,37.6,41.1,36.8,41.3z
			"/>
		<path class="st1" d="M41.3,44.8c-0.2-1.1-1.1-2-2.2-2.2c-0.5-0.1-1-0.2-1.4,0c-0.3,0.1-0.4,0.4-0.6,0.6c-0.2,0.3-0.7,0.5-1.1,0.3
			c-0.4-0.2-0.5-0.6-0.8-0.8c-0.4-0.3-0.8-0.2-1.2-0.2c-1.4,0.2-2.6,1.5-2.6,2.9c0,1,0,2,0,3c0,0.2,0.3,0.4,0.5,0.4c3,0,6.1,0,9.1,0
			c0.1,0,0.3,0,0.4-0.1c0.1-0.1,0.1-0.3,0.1-0.5c0-0.7,0-1.5,0-2.2C41.4,45.5,41.4,45.1,41.3,44.8z M40.6,47.9c-2.8,0-5.7,0-8.5,0
			c0-0.9,0-1.8,0-2.6c0.1-1.2,1.3-2.2,2.5-2c0.3,0.2,0.4,0.6,0.7,0.8c0.5,0.3,1.1,0.3,1.6,0.2c0.3-0.2,0.7-0.4,0.8-0.7
			c0.1-0.1,0.2-0.3,0.3-0.3c0.9-0.1,1.9,0.5,2.3,1.3c0.1,0.3,0.2,0.7,0.2,1C40.6,46.3,40.7,47.1,40.6,47.9z"/>
	</g>
	<path class="st1" d="M40.3,36.3c-0.2-0.9-0.9-1.6-1.8-1.8c-0.4-0.1-0.8-0.2-1.2,0c-0.2,0.1-0.3,0.3-0.5,0.5
		c-0.2,0.3-0.6,0.4-0.9,0.2c-0.3-0.1-0.4-0.5-0.7-0.7c-0.3-0.2-0.7-0.2-1-0.2c-1.1,0.2-2.1,1.2-2.1,2.3c0,0.8,0,1.6,0,2.4
		c0,0.2,0.2,0.3,0.4,0.3c0.3,0,0.6,0,0.9,0c0-0.2,0-0.4,0.1-0.6c-0.2,0-0.5,0-0.7,0c0-0.7,0-1.4,0-2.1c0-1,1.1-1.8,2.1-1.6
		c0.2,0.2,0.3,0.5,0.6,0.6c0.4,0.3,0.9,0.3,1.3,0.2c0.3-0.1,0.5-0.3,0.7-0.6c0.1-0.1,0.1-0.2,0.3-0.2c0.8-0.1,1.5,0.4,1.8,1
		c0.1,0.3,0.2,0.5,0.2,0.8c0,0.6,0,1.3,0,1.9c-0.2,0-0.5,0-0.7,0c0.1,0.2,0.1,0.4,0.1,0.7c0.3,0,0.5,0,0.8,0c0.1,0,0.2,0,0.3-0.1
		c0.1-0.1,0.1-0.2,0.1-0.4c0-0.6,0-1.2,0-1.8C40.4,36.8,40.4,36.6,40.3,36.3z"/>
	<g>
		<path class="st1" d="M19.1,44V23.5c0-1,0.8-1.7,1.8-1.7h8.9v-0.7h-9.3c-1.1,0-2,0.9-2,1.9v21.4c0,1.1,0.9,1.9,2,1.9h10.3v-0.7
			h-9.8C19.9,45.8,19.1,45,19.1,44z"/>
		<path class="st1" d="M52.1,21.1h-8v0.7h7.6c1,0,1.8,0.8,1.8,1.7V44c0,1-0.8,1.7-1.8,1.7H42v0.7h10.1c1.1,0,2-0.9,2-1.9V23.1
			C54.1,22,53.2,21.1,52.1,21.1z"/>
	</g>
</g>
</svg>
