<?xml version="1.0" encoding="utf-8"?>
<!-- Generator: Adobe Illustrator 28.2.0, SVG Export Plug-In . SVG Version: 6.00 Build 0)  -->
<svg version="1.1" id="Layer_1" xmlns="http://www.w3.org/2000/svg" xmlns:xlink="http://www.w3.org/1999/xlink" x="0px" y="0px"
	 viewBox="0 0 72 72" style="enable-background:new 0 0 72 72;" xml:space="preserve">
<style type="text/css">
	.st0{fill:#FFFFFF;}
	.st1{fill:#13D485;}
</style>
<g>
	<g>
		<path class="st0" d="M21.7,53.7v4.6c0,0-0.1,0-0.1-0.1c-0.1-0.1-0.1-0.1-0.2-0.2c-0.1-0.1-0.2-0.2-0.3-0.3v-2.1c0,0,0-0.1-0.1-0.1
			c0,0-0.1-0.1-0.1-0.1s-0.1-0.1-0.2-0.1s-0.1,0-0.2,0c-0.1,0-0.2,0.1-0.4,0.2c0,0,0,0.1-0.1,0.1S20,55.6,20,55.6s0,0.1-0.1,0.1
			s-0.1,0.1-0.1,0.1c-0.1,0.1-0.1,0.2-0.2,0.3c-0.1,0.1-0.1,0.2-0.2,0.2s-0.1,0.1-0.2,0.2c-0.1,0-0.2,0.1-0.3,0.1
			c-0.2,0-0.3,0-0.4-0.1s-0.2-0.2-0.3-0.2c0,0-0.1-0.1-0.1-0.2c0-0.1-0.1-0.1-0.1-0.2c0-0.1-0.1-0.1-0.1-0.2c0-0.1-0.1-0.2-0.1-0.2
			l0.5-0.5c0,0.1,0,0.2,0.1,0.3s0.1,0.2,0.1,0.2s0.1,0.1,0.1,0.2s0.1,0.1,0.1,0.1c0,0,0.1,0,0.2-0.1s0.1-0.2,0.2-0.3
			c0.1-0.1,0.1-0.2,0.2-0.3c0.1-0.1,0.1-0.2,0.1-0.2c0-0.2,0-0.3-0.1-0.4c0-0.1-0.1-0.2-0.1-0.2c0-0.1-0.1-0.1-0.2-0.1s-0.1,0-0.2,0
			c0,0-0.1,0-0.1,0s-0.1,0-0.1,0c0,0-0.1,0-0.1,0c0,0-0.1,0-0.1,0C18.1,54,18,54,18,53.9s-0.2-0.1-0.2-0.2c0,0-0.1,0-0.1-0.1
			s-0.1-0.1-0.1-0.1c-0.1-0.1-0.1-0.1-0.2-0.2S17.1,53.1,17,53h5.2l0.6,0.7L21.7,53.7L21.7,53.7z M21.1,53.7h-1.6
			c0.1,0.1,0.2,0.2,0.3,0.4s0.1,0.3,0.1,0.4c0.1,0,0.1-0.1,0.2-0.1c0.1,0,0.1,0,0.2,0c0.1,0,0.2,0,0.3,0.1s0.2,0.2,0.3,0.2
			c0.1,0.1,0.1,0.2,0.2,0.3C21.1,54.9,21.1,53.7,21.1,53.7z"/>
		<path class="st0" d="M23.8,57.6c0-0.1-0.1-0.1-0.1-0.2s0-0.1,0-0.2c0-0.1,0-0.2,0.1-0.2s0.1-0.1,0.1-0.2s0.1-0.1,0.2-0.1
			s0.1,0,0.2,0c0.1,0,0.2,0,0.2,0.1c0.1,0,0.1,0.1,0.2,0.2s0.1,0.1,0.1,0.2s0,0.2,0,0.2c0,0.1,0,0.2-0.1,0.3c0,0.1-0.1,0.2-0.2,0.3
			c-0.1,0.1-0.2,0.1-0.3,0.2s-0.2,0.1-0.3,0.1c-0.2,0-0.4,0-0.5-0.1s-0.3-0.2-0.4-0.3c-0.1-0.1-0.2-0.3-0.3-0.4s-0.2-0.3-0.2-0.5
			s-0.1-0.3-0.1-0.5s0-0.3,0-0.5c0-0.4,0.1-0.8,0.2-1.2c0.2-0.4,0.4-0.7,0.6-1H22L21.4,53h3.5c0.1,0.1,0.2,0.2,0.2,0.3
			c0.1,0.1,0.1,0.1,0.2,0.2c0,0.1,0.1,0.1,0.1,0.2c-0.2,0-0.3,0-0.4,0c-0.1,0-0.2,0.1-0.4,0.1c-0.3,0.1-0.5,0.2-0.7,0.4
			s-0.3,0.3-0.5,0.6s-0.2,0.4-0.2,0.7S23,56,23,56.3c0,0.1,0,0.2,0,0.4c0,0.1,0.1,0.3,0.1,0.4s0.1,0.2,0.2,0.3S23.7,57.6,23.8,57.6z
			"/>
		<path class="st0" d="M26.1,53.7c0,0.1,0,0.2,0.1,0.2c0.1,0.1,0.2,0.2,0.3,0.3s0.2,0.1,0.3,0.2c0.1,0.1,0.2,0.1,0.4,0.1
			c0.1,0,0.2,0.1,0.3,0.1c0.1,0,0.2,0.1,0.3,0.1c0.1,0,0.2,0.1,0.3,0.2s0.1,0.1,0.2,0.2s0.1,0.2,0.1,0.3c0,0.2-0.1,0.5-0.2,0.7
			s-0.3,0.5-0.5,0.8c-0.2,0.2-0.4,0.5-0.6,0.6s-0.5,0.2-0.7,0.2c-0.1,0-0.2,0-0.3-0.1s-0.2-0.1-0.3-0.2c-0.1-0.1-0.1-0.2-0.2-0.3
			s-0.1-0.2-0.1-0.4l0,0.1c0-0.2,0-0.3,0-0.5c0-0.2,0-0.3,0-0.5s0-0.4,0-0.6v-1.6h-0.6L24.2,53h4.4l0.7,0.7L26.1,53.7L26.1,53.7z
			 M27.4,55.5c-0.2-0.1-0.5-0.2-0.7-0.3s-0.4-0.3-0.6-0.5v2.2c0,0.1,0,0.1,0,0.1s0,0,0.1,0c0.1,0,0.2,0,0.4-0.2
			c0.1-0.1,0.3-0.2,0.4-0.4s0.2-0.3,0.3-0.5S27.4,55.7,27.4,55.5C27.4,55.6,27.4,55.6,27.4,55.5C27.4,55.5,27.4,55.5,27.4,55.5z"/>
		<path class="st0" d="M28.5,53.7L27.9,53h5.9l0.7,0.7H28.5z M31.8,57.7c-0.3,0-0.6-0.1-0.8-0.2s-0.5-0.3-0.7-0.5s-0.4-0.5-0.5-0.8
			c-0.2-0.3-0.3-0.6-0.5-0.9s-0.2-0.6-0.3-0.9c-0.1-0.3-0.2-0.6-0.2-0.8l0.5,0.2c0.1,0.2,0.2,0.4,0.3,0.6s0.2,0.4,0.3,0.7
			s0.2,0.4,0.4,0.6s0.3,0.4,0.5,0.5c0.2,0.2,0.4,0.3,0.5,0.4s0.4,0.1,0.6,0.1c0.1,0,0.3,0,0.4-0.1s0.3-0.1,0.4-0.2s0.2-0.2,0.3-0.3
			s0.1-0.3,0.1-0.4c0-0.1,0-0.3-0.1-0.4s-0.1-0.2-0.2-0.3s-0.2-0.2-0.3-0.2s-0.2-0.1-0.3-0.1c0,0,0,0-0.1,0s0,0-0.1,0
			c0,0.1,0.1,0.2,0.1,0.2s0,0.2,0,0.2c0,0.3-0.1,0.5-0.2,0.6s-0.3,0.2-0.6,0.2c-0.1,0-0.3,0-0.4-0.1s-0.2-0.1-0.3-0.2
			s-0.1-0.2-0.2-0.3s0-0.2,0-0.4c0-0.2,0-0.3,0.1-0.4s0.2-0.2,0.3-0.3s0.2-0.2,0.4-0.2s0.3-0.1,0.4-0.1c0.3,0,0.5,0,0.8,0.2
			s0.5,0.2,0.7,0.5s0.3,0.4,0.4,0.7s0.1,0.6,0.1,0.9c0,0.2-0.1,0.5-0.2,0.7c-0.1,0.2-0.2,0.4-0.4,0.5c-0.2,0.2-0.3,0.3-0.5,0.3
			C32.2,57.7,32,57.7,31.8,57.7z"/>
		<path class="st0" d="M35.4,55.2C35.4,55.2,35.4,55.2,35.4,55.2C35.4,55.2,35.5,55.3,35.4,55.2c0,0.1,0.1,0.1,0.1,0.1s0,0.1,0,0.1
			c0.1,0.1,0.1,0.3,0.1,0.4c0,0.2-0.1,0.4-0.2,0.5s-0.3,0.2-0.5,0.2c-0.3,0-0.5-0.1-0.7-0.2S34,55.8,34,55.5c0-0.2,0-0.3,0.1-0.5
			c0.1-0.1,0.2-0.2,0.3-0.3s0.2-0.2,0.4-0.2s0.3-0.1,0.5-0.1c0.2,0,0.3,0,0.5,0.1c0.2,0.1,0.3,0.2,0.4,0.3s0.2,0.2,0.3,0.4
			s0.2,0.3,0.3,0.4v-1.9h-3L33.1,53h4.8l0.7,0.7h-1.1v4.9L37,58.1c0,0,0-0.1,0-0.1s0,0,0-0.1c0-0.1,0-0.3,0-0.5s-0.1-0.4-0.2-0.6
			c-0.1-0.2-0.2-0.4-0.2-0.6c-0.1-0.2-0.2-0.4-0.3-0.5c-0.1-0.2-0.2-0.3-0.4-0.4C35.7,55.3,35.6,55.2,35.4,55.2z"/>
		<path class="st0" d="M43,53.7C43,53.7,43,53.7,43,53.7c-0.1,0-0.1,0.1-0.2,0.1s-0.1,0-0.1,0.1s0,0,0,0c0,0.1,0,0.1,0.2,0.2
			s0.2,0.1,0.3,0.1s0.3,0,0.4,0.1s0.2,0,0.3,0s0.1,0,0.2,0c0.1,0,0.2,0,0.2-0.1s0.2,0,0.2-0.1s0.2,0,0.2-0.1
			c0.1,0.1,0.3,0.3,0.4,0.4s0.3,0.3,0.4,0.4c-0.2,0.2-0.4,0.4-0.5,0.7s-0.2,0.6-0.3,0.9s-0.1,0.6,0,1c0,0.3,0.1,0.6,0.2,0.8l-0.2,0
			c-0.1,0-0.2,0-0.2,0s-0.2-0.1-0.3-0.1c-0.1-0.7-0.2-1.3-0.2-1.9c0-0.2,0-0.4,0.1-0.6c0-0.2,0.1-0.4,0.2-0.6
			c-0.5,0-0.9-0.1-1.2-0.2c-0.3-0.1-0.5-0.3-0.7-0.5c-0.1,0-0.1,0-0.2,0.1c-0.1,0.1-0.1,0.1-0.2,0.2c-0.1,0.1-0.1,0.2-0.2,0.2
			S41.9,55,41.9,55c0,0.1,0.1,0.2,0.2,0.2c0,0,0.1,0,0.2,0s0.2-0.1,0.3-0.1c0.1,0,0.2-0.1,0.3-0.1c0.1,0,0.2-0.1,0.2-0.1l0.1,0
			c0.1,0,0.1,0.1,0.2,0.2c0.1,0.1,0.2,0.2,0.2,0.4c0.1,0.1,0.1,0.3,0.2,0.4s0.1,0.2,0.1,0.3c0,0.2,0,0.3-0.1,0.5s-0.2,0.3-0.3,0.4
			c-0.1,0.1-0.3,0.2-0.4,0.3s-0.3,0.1-0.5,0.1c-0.3,0-0.5,0-0.7-0.2s-0.4-0.2-0.5-0.4s-0.3-0.4-0.4-0.6s-0.2-0.4-0.3-0.6
			c0-0.1-0.1-0.3-0.1-0.4s0-0.3,0-0.5c0-0.2,0-0.3,0-0.5s0-0.3,0-0.5c0.1,0.1,0.2,0.1,0.3,0.1s0.1,0.1,0.2,0.1l0,0.2
			c0,0.2,0,0.4,0,0.7s0.1,0.4,0.2,0.6c0.1,0.2,0.2,0.4,0.3,0.5s0.3,0.3,0.5,0.4c0.1,0.1,0.2,0.1,0.4,0.1s0.3,0,0.5-0.1
			s0.3-0.1,0.4-0.2c0.1-0.1,0.2-0.2,0.2-0.3c0-0.1,0-0.1,0-0.2s-0.1-0.1-0.1-0.1c0,0-0.1,0-0.1,0c0,0-0.1,0-0.1,0s-0.1,0-0.1,0
			c-0.1,0-0.2,0-0.2,0.1s-0.2,0-0.3,0c-0.2,0-0.3,0-0.5-0.1c-0.1-0.1-0.3-0.2-0.4-0.3s-0.2-0.3-0.2-0.4s-0.1-0.3-0.1-0.5
			c0-0.1,0-0.2,0.1-0.4s0.1-0.2,0.2-0.3c0.1-0.1,0.2-0.2,0.3-0.4h-1.6L39.6,53h6.1l0.6,0.7L43,53.7C43,53.7,43,53.7,43,53.7z"/>
		<path class="st0" d="M46.7,53.7v4.6c0,0-0.1,0-0.2-0.1c-0.1,0-0.1-0.1-0.2-0.2c-0.1-0.1-0.2-0.2-0.3-0.2v-4.1h-0.5L44.8,53h1.2
			c-0.1-0.3-0.2-0.5-0.3-0.8c-0.2-0.2-0.3-0.4-0.5-0.5s-0.5-0.2-0.7-0.3s-0.5-0.1-0.9-0.1c0,0-0.1,0-0.3,0s-0.3,0-0.4,0
			s-0.2,0.1-0.3,0.1s-0.2,0.1-0.2,0.2c0,0,0,0.1,0.1,0.1c0.1,0,0.1,0,0.2,0c0.1,0,0.2,0,0.4,0s0.3,0,0.4,0c0.2,0,0.3,0,0.5,0.1
			c0.2,0,0.3,0.1,0.4,0.2s0.2,0.2,0.3,0.3c0.1,0.1,0.1,0.3,0.1,0.5c0,0,0,0.1,0,0.2c0,0,0,0.1,0,0.2H44c0.2-0.1,0.2-0.2,0.3-0.2
			s0.1-0.1,0.1-0.2s0-0.1-0.1-0.1c0,0-0.1-0.1-0.2-0.1c-0.1,0-0.2,0-0.4,0s-0.3,0-0.4,0c-0.1,0-0.3,0-0.4-0.1s-0.3-0.1-0.4-0.1
			c-0.1-0.1-0.2-0.2-0.3-0.3S42,51.8,42,51.6c0-0.2,0.1-0.3,0.2-0.4s0.3-0.2,0.5-0.3s0.4-0.1,0.6-0.2s0.4-0.1,0.5-0.1
			c0.2,0,0.4,0,0.6,0.1c0.2,0,0.4,0.1,0.6,0.2c0.2,0.1,0.5,0.2,0.6,0.3c0.2,0.2,0.3,0.3,0.5,0.5c0.1,0.2,0.2,0.4,0.3,0.6
			s0.2,0.4,0.2,0.7h0.8l0.6,0.7L46.7,53.7L46.7,53.7L46.7,53.7z"/>
		<path class="st0" d="M50.8,53.7v5c-0.1-0.1-0.2-0.2-0.2-0.2c0,0,0,0,0,0c0,0,0,0,0,0c0,0,0,0-0.1,0c0,0-0.1,0-0.1-0.1
			c0,0,0,0,0-0.1s0,0,0-0.1c0,0,0,0,0-0.1s0-0.1,0-0.1c0-0.1,0-0.1,0-0.2c0-0.1,0-0.1-0.1-0.2c-0.1-0.2-0.2-0.5-0.4-0.6
			s-0.3-0.3-0.5-0.4c-0.2-0.1-0.3-0.2-0.5-0.2s-0.4-0.1-0.6-0.1l-0.7-0.9c0.5-0.3,0.9-0.6,1.3-0.8s0.9-0.4,1.4-0.6v-0.2h-2.8
			L46.7,53h4.6l0.6,0.7L50.8,53.7L50.8,53.7z M50.2,54.7c-0.2,0.1-0.5,0.2-0.7,0.3s-0.5,0.3-0.7,0.4c0.3,0.1,0.5,0.3,0.8,0.5
			s0.5,0.4,0.7,0.7V54.7z"/>
		<path class="st0" d="M52.9,55.2C52.9,55.2,52.9,55.2,52.9,55.2C52.9,55.2,52.9,55.3,52.9,55.2c0,0.1,0.1,0.1,0.1,0.1s0,0.1,0,0.1
			c0.1,0.1,0.1,0.3,0.1,0.4c0,0.2-0.1,0.4-0.2,0.5s-0.3,0.2-0.5,0.2c-0.3,0-0.5-0.1-0.7-0.2s-0.2-0.4-0.2-0.7c0-0.2,0-0.3,0.1-0.5
			c0.1-0.1,0.2-0.2,0.3-0.3s0.2-0.2,0.4-0.2s0.3-0.1,0.5-0.1c0.2,0,0.3,0,0.5,0.1c0.2,0.1,0.3,0.2,0.4,0.3s0.2,0.2,0.3,0.4
			s0.2,0.3,0.3,0.4v-1.9h-3L50.5,53h4.8l0.7,0.7h-1.1v4.9l-0.4-0.5c0,0,0-0.1,0-0.1s0,0,0-0.1c0-0.1,0-0.3,0-0.5s-0.1-0.4-0.2-0.6
			c-0.1-0.2-0.2-0.4-0.2-0.6c-0.1-0.2-0.2-0.4-0.3-0.5c-0.1-0.2-0.2-0.3-0.4-0.4C53.2,55.3,53.1,55.2,52.9,55.2z"/>
	</g>
	<g>
		<g>
			<path class="st1" d="M25,31.9c0-3.5,0-7,0-10.5c0-1.8,1.4-3.2,3.1-3.2c0.5,0,0.9,0,1.4,0c0.2,0,0.4,0.2,0.5,0.3
				c-0.2,0.1-0.3,0.3-0.5,0.4c-0.5,0.1-0.9,0-1.4,0c-1.5,0-2.5,1-2.5,2.6c0,4.2,0,8.4,0,12.6c0,2.7,0,5.3,0,8c0,1.9,0.9,2.8,2.8,2.8
				c3.5,0,7.1,0,10.6,0c0.1,0,0.3,0,0.4,0c0.1,0.1,0.3,0.2,0.3,0.3c0,0.1-0.2,0.3-0.3,0.4c-0.1,0-0.2,0-0.3,0c-3.6,0-7.2,0-10.9,0
				c-2,0-3.3-1.3-3.3-3.3C25,38.8,25,35.4,25,31.9z"/>
		</g>
		<g>
			<path class="st1" d="M44.3,45.7c0,0.3,0,0.7,0,1c0,0.5-0.3,0.6-0.7,0.3c-1.2-1-2.5-2-3.7-3c-0.3-0.2-0.3-0.4,0-0.7
				c1.2-1,2.5-2.1,3.7-3.1c0.3-0.3,0.6-0.1,0.6,0.3c0,0.3,0,0.7,0,1c1.2,0.2,2.3-0.5,2.7-1.6c0.1-0.3,0-0.8,0.5-0.6s0.3,0.6,0.2,0.9
				c-0.5,1.6-2,2.3-3.7,2.2c-0.1,0-0.3-0.2-0.3-0.4c-0.1-0.2,0-0.4,0-0.6c-0.1,0-0.2,0-0.2,0.1c-0.9,0.7-1.8,1.5-2.7,2.3
				c1,0.8,1.9,1.6,2.8,2.3c0.1,0,0.1-0.1,0.1-0.1c0.1-0.9,0.1-0.9,1-0.9c4.5,0,7.3-4.8,5.1-8.8c-0.1-0.1-0.2-0.3-0.2-0.5
				c0-0.1,0.2-0.3,0.2-0.3c0.2,0,0.4,0.1,0.5,0.3c0.6,1,0.9,2,1,3.2c0.1,3.7-2.7,6.6-6.4,6.7C44.7,45.6,44.5,45.6,44.3,45.7z"/>
		</g>
		<g>
			<path class="st1" d="M45.7,32C45.6,33,45.6,33,44.6,33c-4.4,0-7.2,4.7-5.1,8.6c0,0.1,0.2,0.2,0.2,0.3c0,0.2,0,0.3,0,0.5
				c-0.2-0.1-0.5-0.1-0.5-0.2c-0.3-0.8-0.7-1.5-0.9-2.3c-0.6-3.4,1.6-6.6,4.9-7.5c0.5-0.1,1-0.1,1.5-0.2c0.3,0,0.4-0.1,0.4-0.4
				c0-0.2,0-0.4,0-0.5s0.1-0.5,0.2-0.5c0.2,0,0.4,0.1,0.6,0.2c0.7,0.5,1.3,1.1,1.9,1.6c0.5,0.4,1,0.9,1.6,1.3c0.3,0.2,0.3,0.5,0,0.7
				c-1.2,1-2.4,2-3.6,3c-0.1,0.1-0.3,0.2-0.4,0.1c-0.1,0-0.2-0.2-0.2-0.4c0-0.1,0-0.2,0-0.3c0-0.8,0-0.8-0.8-0.7
				c-1,0.2-1.7,0.8-1.9,1.7c0,0.1,0,0.2-0.1,0.2c-0.1,0.1-0.3,0.2-0.4,0.4c-0.1-0.2-0.2-0.4-0.2-0.5c0.2-1.1,0.8-1.9,1.8-2.3
				c0.6-0.2,1.2-0.2,1.9-0.2c0.1,0,0.3,0.3,0.4,0.4c0.1,0.1,0,0.3,0,0.7c1-0.8,2-1.6,2.9-2.4C47.6,33.6,46.7,32.8,45.7,32z"/>
		</g>
		<g>
			<path class="st1" d="M48.7,26.2c0,1.7,0,3.4,0,5c0,0.2,0,0.4-0.1,0.5c-0.2,0.2-0.5,0.1-0.5-0.2c0-0.1,0-0.3,0-0.5
				c0-3.2,0-6.4,0-9.5c0-1.6-1-2.6-2.6-2.6c-0.5,0-0.9,0-1.4,0c-0.1,0-0.3-0.2-0.3-0.3c0-0.1,0.2-0.4,0.3-0.4c1.1,0,2.3-0.2,3.3,0.5
				c0.9,0.6,1.4,1.5,1.4,2.5c0,0,0,0.1,0,0.1C48.7,23,48.7,24.6,48.7,26.2z"/>
		</g>
		<g>
			<path class="st1" d="M34.5,33c-1.7,0-3.4,0-5.1,0c-0.3,0-0.5,0-0.5-0.3c0-0.3,0.3-0.3,0.5-0.3c3.4,0,6.9,0,10.3,0
				c0.3,0,0.6,0,0.6,0.3c0,0.4-0.3,0.4-0.6,0.4C37.9,33,36.2,33,34.5,33L34.5,33z"/>
		</g>
		<g>
			<path class="st1" d="M33.4,35.4c-1.3,0-2.5,0-3.8,0c0,0-0.1,0-0.1,0c-0.3,0-0.6,0-0.6-0.4c0-0.4,0.4-0.4,0.7-0.4
				c2.6,0,5.2,0,7.8,0c0.2,0,0.3,0,0.4,0.1c0.1,0,0.2,0.2,0.2,0.3c0,0.1-0.1,0.2-0.2,0.2c-0.2,0.1-0.3,0.1-0.5,0.1
				C35.9,35.4,34.7,35.4,33.4,35.4C33.4,35.4,33.4,35.4,33.4,35.4z"/>
		</g>
		<g>
			<path class="st1" d="M32.9,37.1c1.2,0,2.3,0,3.5,0c0.3,0,0.6,0,0.6,0.4c0,0.3-0.3,0.3-0.6,0.3c-2.3,0-4.7,0-7,0
				c-0.3,0-0.6,0-0.6-0.3c0-0.4,0.3-0.3,0.6-0.3C30.6,37.1,31.7,37.1,32.9,37.1L32.9,37.1z"/>
		</g>
		<g>
			<path class="st1" d="M32.9,40.1c-1.2,0-2.4,0-3.5,0c-0.3,0-0.6,0-0.6-0.3c0-0.1,0.4-0.3,0.5-0.3c2.4,0,4.8,0,7.1,0
				c0.2,0,0.5,0.2,0.5,0.3c0,0.4-0.3,0.3-0.5,0.3C35.3,40.1,34.1,40.1,32.9,40.1C32.9,40.1,32.9,40.1,32.9,40.1z"/>
		</g>
		<g>
			<path class="st1" d="M33,41.8c1.2,0,2.3,0,3.5,0c0.3,0,0.6,0,0.5,0.3c0,0.3-0.3,0.3-0.6,0.3c-2.3,0-4.7,0-7,0c-0.1,0-0.2,0-0.2,0
				c-0.2-0.1-0.3-0.2-0.4-0.4c0.1-0.1,0.3-0.3,0.4-0.3c1,0,1.9,0,2.9,0C32.4,41.8,32.7,41.8,33,41.8z"/>
		</g>
		<g>
			<path class="st1" d="M31.1,15c0.1,0.1,0.2,0.1,0.3,0.1c0.3,0.2,0.5,0.5,0.8,0.8c0.1,0.1,0,0.3,0,0.5c-0.2,0-0.4,0.1-0.5,0
				c-0.3-0.2-0.5-0.5-0.8-0.8c-0.1-0.1-0.1-0.3,0-0.4C30.9,15.1,31.1,15.1,31.1,15z"/>
		</g>
		<g>
			<path class="st1" d="M29.4,21.4c-0.2,0-0.4,0-0.5,0c-0.1,0-0.3-0.2-0.3-0.3c0-0.1,0.2-0.3,0.3-0.3c0.4,0,0.8,0,1.2,0
				c0.1,0,0.3,0.2,0.3,0.3c0,0.1-0.2,0.3-0.3,0.3C29.8,21.4,29.6,21.4,29.4,21.4L29.4,21.4z"/>
		</g>
		<g>
			<path class="st1" d="M44.3,21.5c-0.2,0-0.4,0-0.6,0c-0.1,0-0.3-0.2-0.3-0.3c0-0.1,0.2-0.3,0.3-0.3c0.4,0,0.8,0,1.2,0
				c0.1,0,0.2,0.2,0.3,0.4c-0.1,0.1-0.2,0.2-0.4,0.3C44.7,21.5,44.5,21.5,44.3,21.5L44.3,21.5z"/>
		</g>
		<g>
			<path class="st1" d="M42.8,26.6c0,0.4-0.3,0.6-0.5,0.4c-0.3-0.3-0.6-0.6-0.9-0.9c-0.2-0.2,0.1-0.6,0.3-0.4
				C42.2,26,42.5,26.4,42.8,26.6z"/>
		</g>
		<g>
			<path class="st1" d="M37.2,13.7c0,0.2,0,0.4,0,0.5c-0.1,0.1-0.2,0.2-0.3,0.4c-0.1-0.1-0.3-0.2-0.3-0.4c0-0.3,0-0.7,0-1.1
				c0-0.1,0.2-0.3,0.3-0.4c0.1,0.1,0.3,0.2,0.3,0.4C37.3,13.3,37.2,13.5,37.2,13.7L37.2,13.7z"/>
		</g>
		<g>
			<path class="st1" d="M31.8,25.5c0.2,0.1,0.3,0.2,0.4,0.3c0,0.1,0,0.2,0,0.3c-0.3,0.3-0.6,0.6-0.9,0.9c-0.2,0.2-0.6,0-0.5-0.2
				C31.1,26.3,31.5,25.9,31.8,25.5z"/>
		</g>
		<g>
			<path class="st1" d="M41.6,16.6c0-0.2-0.2-0.5-0.1-0.5c0.3-0.3,0.6-0.6,0.9-0.9c0.1-0.1,0.3,0,0.4,0.1c0.1,0.1,0.1,0.3,0,0.4
				c-0.3,0.3-0.6,0.6-1,1C41.8,16.6,41.8,16.6,41.6,16.6z"/>
		</g>
		<g>
			<g>
				<path class="st1" d="M38.5,15.8c-0.5-0.6-1.3-0.8-2.1-0.7c-0.8,0.2-1.5,0.9-1.7,1.7c-0.1,0.5-0.1,0.9,0.2,1.4
					c0.3,0.8,1.2,1.3,2,1.2c1.1,0,2.1-1,2.1-2.1C39.1,16.8,38.8,16.2,38.5,15.8z M38.2,18c-0.2,0.5-0.7,0.8-1.2,0.8
					c-0.4,0-0.7,0-1-0.3c-0.5-0.4-0.8-1.1-0.5-1.7c0.2-0.6,0.8-1,1.3-1c0.7-0.1,1.4,0.5,1.5,1.2C38.4,17.3,38.4,17.7,38.2,18z"/>
			</g>
			<g>
				<path class="st1" d="M41.1,21.8c-0.2-1-1.1-1.9-2.2-2.1c-0.3-0.1-0.7,0-1,0.2c-0.3,0.2-0.4,0.5-0.7,0.7c-0.2,0.1-0.5,0.1-0.8,0
					c-0.2-0.1-0.3-0.4-0.4-0.5c-0.3-0.3-0.8-0.4-1.1-0.3c-1,0.1-2,0.9-2.2,2c-0.1,0.4,0,0.7-0.1,1.1c0,0.6,0,1.3,0,1.9
					c0,0.2,0.3,0.3,0.5,0.3c2.4,0,4.8,0,7.1,0c0.2,0,0.4,0,0.6,0c0.1,0,0.3-0.2,0.3-0.3c0-0.7,0-1.4,0-2.1
					C41.1,22.3,41.1,22.1,41.1,21.8z M40.5,24.3c-2.2,0-4.4,0-6.6,0c-0.2,0-0.4,0-0.5,0c0-0.7,0-1.5,0-2.2c0.1-1,1-1.8,2-1.7
					c0.2,0,0.2,0.2,0.3,0.3c0.3,0.4,0.7,0.6,1.2,0.6c0.4,0,0.8-0.2,1.1-0.5c0.1-0.1,0.2-0.3,0.3-0.4c0.8-0.1,1.5,0.3,1.9,1
					c0.2,0.3,0.2,0.7,0.2,1.1C40.5,23.1,40.5,23.7,40.5,24.3z"/>
			</g>
		</g>
	</g>
</g>
</svg>
