<?xml version="1.0" encoding="utf-8"?>
<!-- Generator: Adobe Illustrator 28.2.0, SVG Export Plug-In . SVG Version: 6.00 Build 0)  -->
<svg version="1.1" id="Layer_1" xmlns="http://www.w3.org/2000/svg" xmlns:xlink="http://www.w3.org/1999/xlink" x="0px" y="0px"
	 viewBox="0 0 72 72" style="enable-background:new 0 0 72 72;" xml:space="preserve">
<style type="text/css">
	.st0{fill:#FFFFFF;}
	.st1{fill:#4AB880;}
</style>
<g>
	<g>
		<path class="st0" d="M20.87,47.43c0,0.01,0.01,0.03,0.02,0.06s0.03,0.06,0.05,0.1c0.02,0.03,0.03,0.05,0.04,0.08
			c0.01,0.03,0.02,0.05,0.03,0.07h0.82l0.65,0.65H21.2v4.72c-0.05-0.05-0.1-0.1-0.15-0.15c-0.04-0.04-0.08-0.08-0.13-0.12
			s-0.08-0.07-0.11-0.1c-0.03-0.03-0.06-0.05-0.08-0.08c-0.03-0.03-0.05-0.05-0.08-0.07c-0.01-0.01-0.02-0.02-0.03-0.03
			s-0.01-0.02-0.02-0.03c-0.02-0.02-0.03-0.04-0.04-0.05c-0.01-0.04-0.02-0.07-0.01-0.09v-4h-0.61l-0.65-0.65h1.16
			c-0.08-0.07-0.15-0.15-0.22-0.24c-0.07-0.09-0.1-0.19-0.1-0.3c0-0.21,0.06-0.4,0.18-0.59s0.28-0.36,0.46-0.5s0.38-0.25,0.59-0.34
			c0.21-0.08,0.41-0.13,0.59-0.13c0.27,0,0.53,0.04,0.79,0.11s0.5,0.17,0.73,0.29s0.45,0.27,0.66,0.43c0.21,0.17,0.4,0.34,0.59,0.53
			l0.21,0.63c-0.4-0.33-0.76-0.58-1.1-0.77s-0.63-0.31-0.89-0.39c-0.26-0.07-0.5-0.11-0.71-0.09c-0.21,0.01-0.39,0.05-0.54,0.12
			c-0.15,0.07-0.28,0.15-0.39,0.25c-0.1,0.1-0.19,0.2-0.26,0.29c-0.07,0.1-0.11,0.18-0.14,0.25C20.89,47.38,20.87,47.42,20.87,47.43
			z"/>
		<path class="st0" d="M22.93,48.39v2.94c0,0.15,0.08,0.23,0.25,0.23c0.11,0,0.22-0.04,0.35-0.11c0.12-0.07,0.24-0.17,0.36-0.28
			s0.22-0.24,0.31-0.37c0.09-0.14,0.15-0.26,0.19-0.38h-0.01c-0.09,0-0.17-0.01-0.25-0.04s-0.15-0.07-0.22-0.12
			c-0.07-0.05-0.12-0.11-0.16-0.19c-0.04-0.07-0.06-0.16-0.06-0.26c0-0.22,0.07-0.39,0.21-0.52s0.31-0.19,0.51-0.19
			c0.14,0,0.26,0.03,0.37,0.09c0.1,0.06,0.19,0.13,0.27,0.23s0.13,0.2,0.17,0.32c0.04,0.12,0.06,0.23,0.06,0.35
			c0,0.23-0.06,0.47-0.17,0.73s-0.25,0.51-0.43,0.73c-0.18,0.23-0.38,0.41-0.61,0.57s-0.45,0.23-0.68,0.23
			c-0.24,0-0.43-0.03-0.57-0.1s-0.25-0.17-0.33-0.3s-0.13-0.29-0.16-0.48c-0.03-0.19-0.04-0.41-0.04-0.66v-2.4h-0.64l-0.53-0.65
			h3.79v-0.17c0-0.09-0.05-0.16-0.15-0.22c-0.1-0.06-0.21-0.08-0.32-0.08c-0.21,0-0.43,0.01-0.65,0.03
			c-0.22,0.02-0.44,0.03-0.66,0.03c-0.15,0-0.32-0.02-0.49-0.06s-0.33-0.11-0.48-0.2c-0.15-0.09-0.27-0.21-0.37-0.35
			s-0.15-0.31-0.15-0.51c0-0.05,0.01-0.11,0.03-0.18c0.02-0.07,0.04-0.14,0.08-0.2s0.08-0.12,0.13-0.16
			c0.05-0.04,0.11-0.06,0.18-0.05h0.08c0.02,0.07,0.03,0.12,0.03,0.16c0,0.04,0,0.09,0,0.14c-0.07,0.07-0.11,0.14-0.11,0.19
			c0,0.07,0.02,0.13,0.05,0.18s0.08,0.1,0.14,0.13c0.06,0.04,0.12,0.06,0.19,0.08s0.15,0.03,0.22,0.03c0.22,0,0.43-0.01,0.64-0.04
			s0.43-0.04,0.64-0.04c0.19,0,0.38,0.02,0.57,0.07c0.19,0.04,0.36,0.12,0.51,0.22s0.27,0.23,0.36,0.4c0.09,0.16,0.13,0.36,0.13,0.6
			h0.27c0.04,0,0.06,0.01,0.07,0.02c0.01,0.01,0.02,0.01,0.03,0.02c0.01,0.01,0.03,0.02,0.05,0.05l0.16,0.16
			c0.03,0.03,0.06,0.07,0.1,0.12c0.04,0.05,0.08,0.09,0.13,0.13c0.05,0.05,0.09,0.1,0.15,0.15h-3.54V48.39z"/>
		<path class="st0" d="M27.89,51.2c-0.09,0.15-0.2,0.26-0.33,0.33s-0.27,0.11-0.42,0.11s-0.28-0.03-0.38-0.08s-0.2-0.12-0.27-0.2
			s-0.13-0.17-0.16-0.28s-0.05-0.21-0.04-0.32c0-0.11,0.03-0.21,0.08-0.32c0.05-0.1,0.11-0.19,0.2-0.27
			c0.08-0.08,0.19-0.14,0.32-0.19s0.27-0.07,0.43-0.07c0.03,0,0.06,0,0.09,0s0.07,0,0.11,0.01h0.01c0,0,0.01,0,0.02,0
			c-0.03-0.24-0.11-0.41-0.23-0.53s-0.26-0.21-0.4-0.26c-0.09-0.04-0.17-0.06-0.26-0.08s-0.17-0.04-0.24-0.06
			c-0.17-0.05-0.29-0.1-0.36-0.17c-0.05-0.04-0.09-0.07-0.13-0.12c-0.03-0.04-0.06-0.08-0.09-0.12s-0.05-0.08-0.07-0.12
			s-0.04-0.07-0.07-0.11s-0.06-0.08-0.1-0.12s-0.07-0.07-0.11-0.11s-0.09-0.09-0.14-0.14s-0.14-0.14-0.26-0.25h4.83l0.65,0.65h-1.12
			v4.63c-0.03,0-0.07-0.01-0.11-0.04s-0.09-0.05-0.13-0.08c-0.05-0.04-0.1-0.08-0.15-0.12c-0.03-0.1-0.05-0.2-0.08-0.3
			c-0.03-0.11-0.06-0.21-0.1-0.3c-0.04-0.1-0.08-0.19-0.13-0.27s-0.11-0.16-0.18-0.21c-0.09-0.08-0.19-0.17-0.32-0.27
			C28.1,51.31,27.99,51.24,27.89,51.2z M28.79,48.39h-1.74c0.09,0.07,0.17,0.15,0.26,0.22s0.17,0.15,0.25,0.23
			c0.12,0.12,0.22,0.24,0.32,0.37c0.09,0.13,0.16,0.28,0.2,0.44c0.03,0.12,0.06,0.26,0.1,0.41c0.03,0.15,0.04,0.3,0.04,0.44
			c0.1,0.11,0.2,0.22,0.3,0.33s0.19,0.22,0.28,0.34v-2.78H28.79z"/>
		<path class="st0" d="M36.78,50.28c-0.02-0.13-0.07-0.25-0.14-0.37s-0.16-0.22-0.27-0.31c-0.1-0.09-0.22-0.15-0.35-0.2
			s-0.25-0.06-0.38-0.05h-0.01v3.62c-0.04,0-0.07-0.01-0.11-0.03s-0.08-0.04-0.12-0.07c-0.05-0.03-0.09-0.06-0.14-0.1
			c-0.09-0.26-0.2-0.5-0.33-0.72s-0.28-0.41-0.46-0.57s-0.38-0.29-0.61-0.4c-0.23-0.1-0.48-0.17-0.77-0.2L32.37,50
			c0.18-0.15,0.38-0.3,0.6-0.44s0.44-0.27,0.66-0.4c0.23-0.12,0.45-0.23,0.68-0.33s0.44-0.18,0.65-0.25V48.4h-2.71l-0.66-0.65h5.92
			l0.63,0.65h-2.53v0.15c0.27,0.02,0.52,0.09,0.75,0.21c0.23,0.12,0.42,0.27,0.58,0.45c0.16,0.18,0.28,0.38,0.36,0.6
			c0.08,0.22,0.11,0.43,0.08,0.64c-0.02,0.11-0.05,0.23-0.09,0.34s-0.11,0.22-0.19,0.31s-0.17,0.17-0.28,0.23
			c-0.11,0.06-0.23,0.09-0.37,0.09c-0.09,0-0.17-0.02-0.25-0.05s-0.16-0.08-0.22-0.13c-0.06-0.06-0.12-0.12-0.15-0.2
			c-0.04-0.08-0.06-0.17-0.06-0.26c0-0.14,0.03-0.26,0.09-0.36s0.14-0.16,0.23-0.21c0.09-0.04,0.2-0.06,0.32-0.05
			S36.67,50.21,36.78,50.28z M35,49.41c-0.26,0.1-0.49,0.22-0.7,0.34s-0.43,0.26-0.65,0.41c0.56,0.27,1.01,0.65,1.35,1.15L35,49.41
			L35,49.41z"/>
		<path class="st0" d="M38.36,47.43c0,0.01,0.01,0.03,0.02,0.06s0.03,0.06,0.05,0.1c0.02,0.03,0.03,0.05,0.04,0.08
			c0.01,0.03,0.02,0.05,0.03,0.07h0.82l0.65,0.65h-1.28v4.72c-0.05-0.05-0.1-0.1-0.15-0.15c-0.04-0.04-0.08-0.08-0.13-0.12
			s-0.08-0.07-0.11-0.1c-0.03-0.03-0.06-0.05-0.08-0.08c-0.03-0.03-0.05-0.05-0.08-0.07c-0.01-0.01-0.02-0.02-0.03-0.03
			s-0.01-0.02-0.02-0.03c-0.02-0.02-0.03-0.04-0.04-0.05c-0.01-0.04-0.02-0.07-0.01-0.09v-4h-0.61l-0.65-0.65h1.16
			c-0.08-0.07-0.15-0.15-0.22-0.24c-0.07-0.09-0.1-0.19-0.1-0.3c0-0.21,0.06-0.4,0.18-0.59s0.28-0.36,0.46-0.5s0.38-0.25,0.59-0.34
			c0.21-0.08,0.41-0.13,0.59-0.13c0.27,0,0.53,0.04,0.79,0.11s0.5,0.17,0.73,0.29s0.45,0.27,0.66,0.43c0.21,0.17,0.4,0.34,0.59,0.53
			l0.21,0.63c-0.4-0.33-0.76-0.58-1.1-0.77s-0.63-0.31-0.89-0.39c-0.26-0.07-0.5-0.11-0.71-0.09c-0.21,0.01-0.39,0.05-0.54,0.12
			c-0.15,0.07-0.28,0.15-0.39,0.25c-0.1,0.1-0.19,0.2-0.26,0.29c-0.07,0.1-0.11,0.18-0.14,0.25C38.37,47.38,38.36,47.42,38.36,47.43
			z"/>
		<path class="st0" d="M41.37,51.2c-0.09,0.15-0.2,0.26-0.33,0.33s-0.27,0.11-0.42,0.11s-0.28-0.03-0.38-0.08s-0.2-0.12-0.27-0.2
			s-0.13-0.17-0.16-0.28s-0.05-0.21-0.04-0.32c0-0.11,0.03-0.21,0.08-0.32c0.05-0.1,0.11-0.19,0.2-0.27
			c0.08-0.08,0.19-0.14,0.32-0.19s0.27-0.07,0.43-0.07c0.03,0,0.06,0,0.09,0s0.07,0,0.11,0.01h0.01c0,0,0.01,0,0.02,0
			c-0.03-0.24-0.11-0.41-0.23-0.53s-0.26-0.21-0.4-0.26c-0.09-0.04-0.17-0.06-0.26-0.08s-0.17-0.04-0.24-0.06
			c-0.17-0.05-0.29-0.1-0.36-0.17c-0.05-0.04-0.09-0.07-0.13-0.12c-0.03-0.04-0.06-0.08-0.09-0.12s-0.05-0.08-0.07-0.12
			s-0.04-0.07-0.07-0.11s-0.06-0.08-0.1-0.12s-0.07-0.07-0.11-0.11s-0.09-0.09-0.14-0.14s-0.14-0.14-0.26-0.25h4.83l0.65,0.65h-1.12
			v4.63c-0.03,0-0.07-0.01-0.11-0.04s-0.09-0.05-0.13-0.08c-0.05-0.04-0.1-0.08-0.15-0.12c-0.03-0.1-0.05-0.2-0.08-0.3
			c-0.03-0.11-0.06-0.21-0.1-0.3c-0.04-0.1-0.08-0.19-0.13-0.27s-0.11-0.16-0.18-0.21c-0.09-0.08-0.19-0.17-0.32-0.27
			C41.58,51.31,41.46,51.24,41.37,51.2z M42.27,48.39h-1.74c0.09,0.07,0.17,0.15,0.26,0.22s0.17,0.15,0.25,0.23
			c0.12,0.12,0.22,0.24,0.32,0.37c0.09,0.13,0.16,0.28,0.2,0.44c0.03,0.12,0.06,0.26,0.1,0.41c0.03,0.15,0.04,0.3,0.04,0.44
			c0.1,0.11,0.2,0.22,0.3,0.33s0.19,0.22,0.28,0.34v-2.78H42.27z"/>
		<path class="st0" d="M47.52,48.39v4.63c-0.03,0-0.08-0.03-0.16-0.08c-0.07-0.05-0.15-0.11-0.23-0.18
			c-0.09-0.07-0.19-0.16-0.3-0.25l0.04-2.87c0-0.07-0.03-0.16-0.08-0.27s-0.12-0.22-0.2-0.32s-0.16-0.19-0.25-0.27
			c-0.09-0.07-0.16-0.11-0.23-0.11s-0.15,0.02-0.22,0.07s-0.12,0.09-0.15,0.13c0.11,0.05,0.21,0.12,0.31,0.21
			c0.1,0.09,0.18,0.19,0.25,0.3s0.11,0.23,0.13,0.35c0.02,0.12,0.02,0.23-0.02,0.33c-0.04,0.11-0.11,0.2-0.22,0.28
			s-0.26,0.13-0.46,0.16c-0.15,0.03-0.29,0-0.4-0.09c-0.11-0.08-0.21-0.18-0.28-0.29c-0.04,0.06-0.09,0.12-0.14,0.18
			s-0.11,0.11-0.18,0.15s-0.14,0.08-0.21,0.1s-0.15,0.03-0.22,0.02c-0.29-0.05-0.48-0.16-0.59-0.33c-0.11-0.17-0.14-0.35-0.11-0.54
			c0.03-0.19,0.12-0.38,0.27-0.55s0.33-0.3,0.54-0.37c-0.08-0.16-0.18-0.27-0.28-0.31c-0.11-0.04-0.24-0.07-0.4-0.07
			c-0.06,0-0.11-0.01-0.17,0s-0.12,0-0.18,0c-0.03,0.01-0.05,0.01-0.08-0.01c-0.01,0-0.03-0.02-0.05-0.04
			c-0.01,0-0.03-0.02-0.05-0.05c-0.03-0.03-0.05-0.05-0.08-0.08s-0.05-0.05-0.08-0.08c-0.07-0.07-0.13-0.14-0.18-0.2
			s-0.07-0.1-0.07-0.1h0.19c0,0,0.04,0,0.13-0.01c0.08-0.01,0.18-0.02,0.28-0.03l0.42-0.05c0.22,0.01,0.43,0.07,0.62,0.21
			c0.19,0.13,0.33,0.3,0.43,0.5c0.12-0.18,0.27-0.35,0.46-0.5s0.4-0.22,0.63-0.22c0.07,0,0.15,0.03,0.24,0.1
			c0.09,0.07,0.18,0.16,0.27,0.26c0.09,0.1,0.18,0.22,0.27,0.34c0.09,0.13,0.17,0.25,0.24,0.36c-0.02-0.14-0.03-0.28-0.04-0.42
			c-0.01-0.14-0.02-0.28-0.03-0.43s-0.02-0.31-0.02-0.48s-0.01-0.36-0.02-0.56c0.13,0.11,0.23,0.2,0.3,0.25s0.12,0.11,0.16,0.17
			c0.04,0.05,0.07,0.11,0.08,0.17c0.01,0.03,0.02,0.05,0.02,0.07s0,0.04,0.02,0.07c0.01,0.03,0.02,0.05,0.04,0.07
			c0.02,0.02,0.06,0.03,0.13,0.03h0.42l0.79,0.65L47.52,48.39L47.52,48.39z"/>
		<path class="st0" d="M49.65,49.96c0,0.01,0.01,0.02,0.01,0.02s0.01,0.01,0.01,0.02c0.02,0.03,0.04,0.05,0.06,0.08
			s0.03,0.06,0.04,0.08c0.07,0.12,0.1,0.26,0.1,0.41c0,0.22-0.07,0.38-0.21,0.49s-0.31,0.16-0.5,0.16c-0.31,0-0.54-0.08-0.71-0.25
			c-0.17-0.17-0.25-0.4-0.25-0.71c0-0.17,0.03-0.32,0.1-0.46c0.06-0.14,0.15-0.25,0.26-0.35s0.24-0.17,0.38-0.23
			s0.29-0.08,0.45-0.08c0.18,0,0.35,0.03,0.51,0.1c0.15,0.07,0.29,0.16,0.42,0.27s0.24,0.23,0.34,0.37s0.19,0.28,0.28,0.42v-1.92
			h-3.02l-0.65-0.65h4.78l0.67,0.65h-1.14v4.92l-0.37-0.48c0.01-0.04,0.02-0.07,0.02-0.09c0-0.02,0-0.04,0-0.06
			c0-0.14-0.02-0.31-0.05-0.49s-0.08-0.38-0.15-0.57c-0.07-0.2-0.15-0.39-0.24-0.58c-0.09-0.19-0.2-0.37-0.31-0.52
			c-0.12-0.15-0.24-0.28-0.38-0.38C49.95,50.03,49.8,49.97,49.65,49.96z"/>
	</g>
	<g>
		<path class="st1" d="M35.44,32.63c0,0.33-0.04,0.56-0.12,0.71c-0.08,0.15-0.3,0.23-0.66,0.23c-0.33,0-0.54-0.08-0.63-0.24
			c-0.1-0.16-0.15-0.38-0.15-0.65c0-0.35,0.05-0.59,0.14-0.73s0.31-0.21,0.64-0.21c0.29,0,0.49,0.06,0.61,0.19
			C35.39,32.05,35.44,32.29,35.44,32.63z M34.99,32.63c0-0.21-0.03-0.35-0.08-0.43c-0.05-0.07-0.14-0.11-0.25-0.11
			c-0.15,0-0.24,0.05-0.27,0.14s-0.05,0.22-0.05,0.39c0,0.22,0.02,0.38,0.07,0.45c0.04,0.08,0.13,0.12,0.26,0.12
			c0.14,0,0.23-0.04,0.27-0.11C34.97,33.02,34.99,32.86,34.99,32.63z M36.87,31.65l-1.71,3.92h-0.37l1.71-3.92H36.87z M37.81,34.47
			c0,0.44-0.06,0.72-0.18,0.84s-0.3,0.18-0.55,0.18c-0.35,0-0.57-0.07-0.65-0.22c-0.08-0.14-0.12-0.4-0.12-0.77
			c0-0.34,0.06-0.57,0.18-0.7c0.12-0.13,0.32-0.19,0.6-0.19c0.28,0,0.47,0.07,0.57,0.2S37.81,34.17,37.81,34.47z M37.4,34.51
			c0-0.19-0.02-0.33-0.06-0.41s-0.14-0.12-0.31-0.12c-0.12,0-0.2,0.03-0.25,0.09s-0.08,0.21-0.08,0.44c0,0.22,0.02,0.37,0.07,0.47
			c0.04,0.1,0.15,0.14,0.3,0.14c0.15,0,0.24-0.05,0.28-0.14C37.39,34.89,37.4,34.74,37.4,34.51z"/>
	</g>
	<g>
		<path class="st1" d="M35.42,21.13c-0.05-0.4-0.2-0.78-0.4-1.12c-0.17-0.25-0.37-0.49-0.61-0.68c-0.5-0.41-1.15-0.64-1.79-0.62
			c-0.55-0.01-1.1,0.17-1.56,0.48c-0.4,0.28-0.75,0.66-0.95,1.11c-0.23,0.48-0.31,1.03-0.25,1.56c0.08,0.67,0.41,1.31,0.93,1.76
			c-0.07,0.02-0.12,0.06-0.19,0.08c-0.35,0.15-0.68,0.35-0.99,0.58c-0.08,0.06-0.15,0.15-0.26,0.18c-0.02,0.03-0.03,0.07-0.06,0.09
			c-0.28,0.25-0.52,0.53-0.73,0.84c-0.08,0.11-0.15,0.23-0.16,0.37c-0.01,0.24,0.15,0.46,0.38,0.53c0.15,0.04,0.33,0.01,0.45-0.09
			c0.08-0.06,0.14-0.16,0.2-0.25c0.11-0.17,0.24-0.32,0.38-0.46c0.16-0.16,0.33-0.31,0.51-0.44c0.58-0.41,1.27-0.66,1.98-0.7
			c0.17-0.02,0.35-0.01,0.52-0.02c0.7-0.04,1.38-0.35,1.86-0.87c0.13-0.13,0.25-0.27,0.34-0.43C35.37,22.47,35.51,21.78,35.42,21.13
			z M34.28,22.2c-0.23,0.56-0.77,0.98-1.37,1.08c-0.35,0.05-0.73,0-1.04-0.17c-0.23-0.11-0.44-0.26-0.59-0.46
			c-0.1-0.12-0.18-0.25-0.25-0.39c-0.17-0.38-0.21-0.82-0.09-1.22c0.18-0.68,0.8-1.21,1.5-1.29c0.52-0.07,1.07,0.12,1.45,0.49
			c0.3,0.28,0.49,0.67,0.53,1.08C34.43,21.62,34.4,21.93,34.28,22.2z"/>
		<path class="st1" d="M28.91,26.3c-0.04,0-0.09-0.01-0.13-0.02c-0.23-0.06-0.4-0.29-0.38-0.53c0.01-0.14,0.08-0.26,0.16-0.37
			c0.22-0.32,0.46-0.6,0.73-0.84c0.02-0.02,0.03-0.04,0.04-0.06c0.01-0.01,0.01-0.02,0.02-0.03c0.07-0.02,0.13-0.07,0.19-0.12
			c0.02-0.02,0.05-0.04,0.08-0.06c0.33-0.24,0.66-0.44,0.99-0.58c0.03-0.01,0.06-0.03,0.1-0.04c0.03-0.01,0.06-0.03,0.09-0.04
			c-0.51-0.43-0.84-1.07-0.93-1.75c-0.06-0.55,0.03-1.09,0.25-1.56c0.2-0.43,0.53-0.81,0.95-1.11c0.46-0.31,1-0.48,1.52-0.48
			c0.01,0,0.03,0,0.04,0c0.03,0,0.05,0,0.08,0c0.61,0,1.23,0.22,1.72,0.62c0.21,0.16,0.4,0.37,0.61,0.68
			c0.21,0.35,0.35,0.73,0.4,1.12l0,0c0.09,0.66-0.06,1.35-0.41,1.89c-0.08,0.14-0.19,0.29-0.34,0.43c-0.47,0.51-1.15,0.82-1.86,0.87
			c-0.07,0-0.15,0-0.22,0.01c-0.1,0-0.2,0-0.3,0.01c-0.7,0.04-1.4,0.29-1.98,0.7c-0.17,0.12-0.34,0.26-0.51,0.44
			c-0.13,0.14-0.27,0.29-0.38,0.46c-0.01,0.01-0.02,0.03-0.03,0.04c-0.05,0.07-0.1,0.15-0.17,0.2C29.14,26.26,29.02,26.3,28.91,26.3
			z M32.58,18.72c-0.52,0-1.06,0.17-1.52,0.48c-0.43,0.3-0.76,0.69-0.95,1.11c-0.23,0.47-0.32,1.01-0.25,1.56
			c0.09,0.68,0.43,1.32,0.93,1.75c-0.03,0.01-0.06,0.03-0.09,0.04c-0.03,0.02-0.06,0.03-0.1,0.04c-0.33,0.14-0.66,0.33-0.99,0.58
			c-0.03,0.02-0.05,0.04-0.08,0.06c-0.06,0.05-0.11,0.1-0.19,0.12c-0.01,0.01-0.01,0.02-0.02,0.03c-0.01,0.02-0.02,0.05-0.04,0.06
			c-0.26,0.23-0.51,0.51-0.73,0.84c-0.08,0.11-0.15,0.23-0.16,0.37c-0.01,0.23,0.16,0.46,0.38,0.53c0.16,0.04,0.33,0,0.45-0.09
			c0.07-0.05,0.12-0.13,0.17-0.2c0.01-0.01,0.02-0.03,0.03-0.04c0.11-0.17,0.25-0.32,0.38-0.46c0.17-0.18,0.34-0.32,0.51-0.44
			c0.58-0.41,1.28-0.66,1.98-0.7c0.1-0.01,0.2-0.01,0.3-0.01c0.07,0,0.15,0,0.22-0.01c0.71-0.04,1.38-0.36,1.85-0.87
			c0.14-0.15,0.26-0.29,0.34-0.43c0.35-0.54,0.5-1.23,0.41-1.89l0,0c-0.05-0.38-0.19-0.77-0.4-1.12c-0.21-0.31-0.4-0.52-0.61-0.68
			c-0.49-0.4-1.11-0.62-1.72-0.62c-0.03,0-0.05,0-0.08,0C32.61,18.72,32.59,18.72,32.58,18.72z M32.65,23.29
			c-0.28,0-0.56-0.06-0.79-0.18c-0.25-0.12-0.45-0.28-0.59-0.46c-0.1-0.13-0.19-0.26-0.25-0.39c-0.17-0.39-0.2-0.83-0.09-1.22
			c0.18-0.68,0.8-1.21,1.5-1.29c0.52-0.07,1.07,0.12,1.45,0.49c0.29,0.28,0.49,0.68,0.53,1.08c0.02,0.33-0.02,0.63-0.13,0.87
			c-0.23,0.56-0.77,0.99-1.37,1.08C32.82,23.29,32.74,23.29,32.65,23.29z M32.64,19.74c-0.07,0-0.14,0-0.21,0.01
			c-0.7,0.08-1.32,0.61-1.5,1.28c-0.11,0.39-0.08,0.82,0.09,1.22c0.06,0.13,0.15,0.26,0.25,0.39c0.14,0.18,0.34,0.34,0.59,0.46
			c0.3,0.16,0.67,0.22,1.04,0.17c0.6-0.09,1.14-0.51,1.37-1.08l0,0c0.11-0.25,0.15-0.54,0.13-0.87c-0.04-0.4-0.23-0.8-0.53-1.08
			C33.55,19.93,33.09,19.74,32.64,19.74z"/>
	</g>
	<g>
		<path class="st1" d="M43.26,25.71c-0.43-0.6-1.02-1.09-1.68-1.42c-0.13-0.07-0.28-0.12-0.41-0.19c0.1-0.11,0.22-0.21,0.31-0.33
			s0.17-0.25,0.25-0.38c0.42-0.76,0.46-1.71,0.11-2.5c-0.3-0.69-0.9-1.25-1.6-1.5c-0.59-0.21-1.25-0.23-1.85-0.03
			c-0.39,0.13-0.75,0.35-1.06,0.63c-0.36,0.35-0.63,0.78-0.76,1.26c-0.24,0.82-0.08,1.75,0.44,2.44c0.5,0.7,1.35,1.14,2.21,1.15
			c0.21,0,0.41-0.01,0.62,0.01c0.52,0.05,1.03,0.2,1.49,0.47c0.13,0.08,0.26,0.17,0.39,0.26c0.22,0.16,0.41,0.36,0.58,0.56
			c0.08,0.1,0.15,0.22,0.25,0.3c0.2,0.14,0.5,0.13,0.67-0.04C43.39,26.22,43.41,25.91,43.26,25.71z M40.87,22.78
			c-0.13,0.29-0.35,0.53-0.61,0.71c-0.39,0.27-0.89,0.36-1.36,0.27c-0.38-0.08-0.73-0.28-0.98-0.58c-0.09-0.1-0.16-0.22-0.23-0.34
			c-0.14-0.25-0.2-0.54-0.2-0.82c-0.01-0.46,0.19-0.92,0.51-1.25c0.26-0.26,0.6-0.44,0.96-0.5c0.1-0.02,0.21-0.02,0.31-0.02
			c0.48,0,0.95,0.22,1.28,0.56c0.24,0.27,0.41,0.6,0.46,0.96C41.06,22.12,41.02,22.47,40.87,22.78z"/>
		<path class="st1" d="M42.85,26.54c-0.11,0-0.22-0.03-0.32-0.1c-0.07-0.05-0.12-0.12-0.16-0.19c-0.03-0.04-0.06-0.08-0.09-0.11
			c-0.2-0.23-0.39-0.41-0.58-0.56c-0.15-0.11-0.27-0.19-0.39-0.26c-0.44-0.26-0.95-0.42-1.49-0.47c-0.16-0.01-0.32-0.01-0.47-0.01
			c-0.05,0-0.1,0-0.14,0c-0.87-0.01-1.72-0.45-2.21-1.15c-0.51-0.68-0.68-1.61-0.44-2.44c0.13-0.46,0.39-0.9,0.76-1.26
			c0.31-0.29,0.68-0.51,1.06-0.63c0.59-0.2,1.25-0.19,1.85,0.03c0.7,0.26,1.3,0.82,1.6,1.5c0.35,0.79,0.31,1.75-0.11,2.5
			c-0.09,0.15-0.17,0.27-0.25,0.38c-0.07,0.09-0.15,0.17-0.23,0.25c-0.02,0.02-0.05,0.05-0.07,0.08c0.07,0.03,0.14,0.06,0.2,0.09
			c0.07,0.03,0.14,0.06,0.21,0.09c0.67,0.33,1.25,0.83,1.68,1.43c0.16,0.21,0.13,0.52-0.05,0.69
			C43.11,26.49,42.98,26.54,42.85,26.54z M39.49,24.84c0.11,0,0.22,0,0.33,0.01c0.54,0.05,1.05,0.21,1.49,0.47
			c0.12,0.07,0.24,0.15,0.39,0.26c0.2,0.15,0.39,0.33,0.58,0.56c0.03,0.03,0.06,0.07,0.09,0.11c0.05,0.07,0.1,0.13,0.16,0.19
			c0.2,0.15,0.5,0.13,0.67-0.04c0.19-0.17,0.21-0.47,0.05-0.68l0,0c-0.43-0.6-1.01-1.09-1.68-1.42c-0.07-0.03-0.14-0.06-0.21-0.09
			s-0.14-0.06-0.21-0.09c0.02-0.03,0.05-0.05,0.07-0.08c0.08-0.08,0.16-0.16,0.23-0.25c0.08-0.11,0.16-0.23,0.25-0.38
			c0.42-0.75,0.46-1.71,0.11-2.5c-0.3-0.69-0.9-1.25-1.6-1.5c-0.6-0.22-1.26-0.23-1.85-0.03c-0.38,0.12-0.74,0.34-1.06,0.63
			c-0.37,0.36-0.63,0.8-0.76,1.26c-0.24,0.83-0.08,1.76,0.43,2.44c0.49,0.7,1.34,1.14,2.21,1.15C39.3,24.84,39.4,24.84,39.49,24.84z
			 M39.26,23.8c-0.12,0-0.24-0.01-0.35-0.03c-0.39-0.09-0.74-0.29-0.98-0.58c-0.09-0.11-0.16-0.23-0.23-0.34
			c-0.14-0.24-0.2-0.53-0.2-0.82c-0.01-0.46,0.18-0.91,0.52-1.25c0.28-0.27,0.62-0.45,0.97-0.5c0.1-0.02,0.21-0.02,0.31-0.02h0.01
			c0.47,0,0.94,0.21,1.27,0.56c0.25,0.28,0.42,0.62,0.46,0.96c0.05,0.35-0.01,0.71-0.15,1.01l0,0c-0.12,0.27-0.33,0.51-0.61,0.71
			C39.97,23.7,39.62,23.8,39.26,23.8z M39.29,20.26L39.29,20.26c-0.11,0-0.22,0-0.32,0.02c-0.35,0.05-0.69,0.23-0.96,0.5
			c-0.34,0.34-0.52,0.79-0.51,1.25c-0.01,0.29,0.06,0.58,0.2,0.82c0.07,0.12,0.14,0.24,0.23,0.34c0.24,0.29,0.59,0.49,0.98,0.58
			c0.48,0.09,0.98-0.01,1.35-0.27c0.28-0.2,0.49-0.44,0.61-0.71l0,0c0.15-0.3,0.2-0.66,0.15-1.01c-0.04-0.34-0.2-0.68-0.46-0.96
			C40.23,20.47,39.76,20.26,39.29,20.26z"/>
	</g>
	<g>
		<polygon class="st1" points="30.61,23.52 30.62,23.52 30.62,23.53 30.61,23.53 		"/>
		<path class="st1" d="M30.61,23.54L30.61,23.54l0.01-0.01v0.01H30.61z M30.61,23.53L30.61,23.53L30.61,23.53L30.61,23.53
			L30.61,23.53z"/>
	</g>
	<g>
		<polygon class="st1" points="41.28,24.05 41.29,24.05 41.29,24.06 41.28,24.06 		"/>
		<path class="st1" d="M41.28,24.06L41.28,24.06l0.01-0.01v0.01H41.28z M41.28,24.05L41.28,24.05L41.28,24.05L41.28,24.05
			L41.28,24.05z"/>
	</g>
	<g>
		<polygon class="st1" points="30.59,24.92 30.6,24.92 30.6,24.93 30.59,24.93 		"/>
		<path class="st1" d="M30.59,24.93L30.59,24.93l0.01-0.01v0.01H30.59z M30.59,24.92L30.59,24.92L30.59,24.92L30.59,24.92
			L30.59,24.92z"/>
	</g>
	<g>
		<path class="st1" d="M39.88,32.32c-0.02-0.14-0.08-0.27-0.14-0.41c-0.38-0.92-1.12-1.69-2.02-2.1c0.3-0.24,0.54-0.55,0.73-0.89
			c0.16-0.32,0.26-0.66,0.3-1.01c0.05-0.43-0.01-0.86-0.16-1.27c-0.09-0.26-0.24-0.51-0.41-0.73c-0.52-0.68-1.37-1.11-2.23-1.09
			c-0.91-0.02-1.8,0.46-2.31,1.2c-0.25,0.35-0.41,0.76-0.46,1.18c-0.13,0.81,0.13,1.67,0.68,2.28c0.1,0.11,0.21,0.21,0.32,0.32
			c-0.1,0.06-0.21,0.11-0.31,0.17c-0.64,0.37-1.19,0.93-1.54,1.59c-0.11,0.22-0.21,0.44-0.28,0.67c-0.06,0.2,0.01,0.43,0.18,0.56
			c0.19,0.15,0.49,0.14,0.67-0.03c0.13-0.1,0.15-0.27,0.21-0.42c0.12-0.31,0.31-0.6,0.53-0.86c0.22-0.27,0.5-0.47,0.8-0.65
			c0.77-0.43,1.73-0.51,2.56-0.21c0.14,0.05,0.27,0.1,0.4,0.17c0.31,0.17,0.61,0.38,0.84,0.65c0.09,0.1,0.18,0.2,0.25,0.32
			c0.16,0.23,0.29,0.48,0.37,0.76c0.03,0.1,0.09,0.2,0.18,0.26c0.18,0.15,0.47,0.15,0.66,0C39.83,32.67,39.9,32.49,39.88,32.32z
			 M36.98,29.08c-0.27,0.2-0.61,0.31-0.95,0.33c-0.63,0.03-1.26-0.31-1.59-0.85c-0.03-0.04-0.03-0.09-0.05-0.13
			c-0.02-0.04-0.05-0.07-0.07-0.11c-0.17-0.42-0.18-0.91-0.01-1.33c0.22-0.58,0.77-1.02,1.39-1.11c0.35-0.05,0.72,0.01,1.04,0.16
			c0.38,0.19,0.7,0.52,0.86,0.92c0.19,0.46,0.18,1-0.04,1.45C37.42,28.67,37.22,28.91,36.98,29.08z"/>
		<path class="st1" d="M39.36,32.9c-0.12,0-0.24-0.04-0.32-0.11c-0.08-0.06-0.15-0.15-0.18-0.26c-0.07-0.24-0.19-0.49-0.37-0.76
			c-0.07-0.1-0.15-0.2-0.23-0.29l-0.02-0.03c-0.21-0.24-0.49-0.45-0.84-0.65c-0.12-0.06-0.24-0.11-0.37-0.16l-0.04-0.01
			c-0.83-0.3-1.78-0.22-2.56,0.21c-0.36,0.21-0.61,0.42-0.8,0.65c-0.23,0.25-0.41,0.54-0.53,0.86c-0.01,0.03-0.02,0.07-0.04,0.11
			c-0.04,0.12-0.07,0.23-0.17,0.31c-0.18,0.17-0.48,0.18-0.68,0.03c-0.17-0.13-0.24-0.36-0.18-0.56c0.08-0.25,0.18-0.48,0.28-0.67
			c0.34-0.65,0.89-1.22,1.54-1.59c0.04-0.02,0.08-0.04,0.11-0.06c0.06-0.03,0.13-0.07,0.2-0.11l-0.04-0.03
			c-0.09-0.09-0.19-0.18-0.28-0.28c-0.56-0.62-0.81-1.47-0.68-2.28c0.06-0.43,0.22-0.84,0.47-1.18c0.51-0.75,1.38-1.2,2.26-1.2
			c0.03,0,0.07,0,0.1,0c0.83,0,1.66,0.42,2.18,1.09c0.19,0.26,0.32,0.5,0.41,0.73c0.15,0.43,0.21,0.86,0.16,1.27
			c-0.03,0.35-0.13,0.69-0.3,1.01c-0.2,0.37-0.44,0.66-0.73,0.89c0.91,0.42,1.65,1.18,2.02,2.1c0.01,0.02,0.02,0.05,0.03,0.07
			c0.04,0.11,0.09,0.22,0.11,0.33l0,0c0.02,0.17-0.05,0.35-0.18,0.46C39.61,32.86,39.48,32.9,39.36,32.9z M35.96,30.45
			c0.35,0,0.7,0.06,1.04,0.18l0.04,0.01c0.12,0.05,0.25,0.09,0.37,0.16c0.36,0.2,0.63,0.41,0.84,0.65l0.02,0.03
			c0.08,0.09,0.16,0.18,0.23,0.29c0.18,0.27,0.3,0.52,0.37,0.76c0.03,0.11,0.09,0.2,0.18,0.26c0.18,0.15,0.47,0.15,0.65-0.01
			c0.13-0.11,0.2-0.29,0.18-0.46l0,0c-0.02-0.12-0.06-0.23-0.11-0.33c-0.01-0.02-0.02-0.05-0.03-0.07c-0.37-0.92-1.11-1.69-2.02-2.1
			c0.28-0.22,0.53-0.52,0.73-0.89c0.16-0.32,0.26-0.66,0.3-1.01c0.05-0.4,0-0.84-0.16-1.27c-0.08-0.24-0.22-0.47-0.41-0.73
			c-0.52-0.68-1.35-1.09-2.18-1.09c-0.03,0-0.07,0-0.1,0c-0.89,0-1.75,0.46-2.26,1.2c-0.24,0.35-0.4,0.76-0.46,1.18
			c-0.13,0.81,0.12,1.67,0.68,2.28c0.09,0.1,0.18,0.19,0.28,0.28l0.04,0.03c-0.06,0.04-0.13,0.08-0.2,0.11
			c-0.04,0.02-0.08,0.04-0.12,0.06c-0.65,0.37-1.19,0.94-1.54,1.59c-0.09,0.19-0.2,0.42-0.28,0.67c-0.06,0.2,0.01,0.43,0.18,0.56
			c0.19,0.15,0.49,0.14,0.67-0.03c0.1-0.08,0.13-0.2,0.17-0.31c0.01-0.04,0.02-0.07,0.04-0.11c0.12-0.31,0.3-0.6,0.53-0.86
			c0.19-0.23,0.45-0.43,0.8-0.65C34.9,30.59,35.43,30.45,35.96,30.45z M35.95,29.41c-0.6,0-1.2-0.33-1.51-0.85
			c-0.02-0.02-0.02-0.05-0.03-0.07s-0.01-0.04-0.02-0.06s-0.03-0.04-0.04-0.06c-0.01-0.02-0.03-0.03-0.04-0.05
			c-0.18-0.43-0.18-0.91-0.01-1.33c0.22-0.58,0.77-1.02,1.39-1.11c0.35-0.05,0.71,0,1.04,0.16c0.39,0.2,0.71,0.53,0.86,0.92
			c0.19,0.46,0.18,1-0.04,1.45c-0.14,0.28-0.34,0.51-0.57,0.67l0,0c-0.26,0.19-0.6,0.31-0.95,0.33C36,29.41,35.98,29.41,35.95,29.41
			z M35.94,25.85c-0.09,0-0.17,0.01-0.26,0.02c-0.62,0.09-1.17,0.53-1.39,1.11c-0.17,0.42-0.16,0.9,0.02,1.33
			c0.01,0.02,0.02,0.04,0.04,0.05c0.01,0.02,0.03,0.04,0.04,0.06c0.01,0.02,0.02,0.04,0.02,0.06c0.01,0.03,0.02,0.05,0.03,0.07
			c0.33,0.54,0.96,0.87,1.59,0.85c0.35-0.02,0.69-0.14,0.95-0.33l0,0c0.24-0.16,0.43-0.39,0.57-0.67c0.22-0.45,0.23-0.99,0.04-1.45
			c-0.16-0.39-0.47-0.72-0.86-0.92C36.48,25.92,36.21,25.85,35.94,25.85z"/>
	</g>
	<g>
		<path class="st1" d="M48.18,30.33c0-0.25,0-0.5-0.04-0.75c-0.04-0.22-0.1-0.43-0.18-0.64s-0.2-0.41-0.29-0.61
			c-0.4-0.82-0.79-1.65-1.19-2.47c-0.13-0.24-0.36-0.42-0.62-0.49c-0.25-0.07-0.53-0.03-0.77,0.08c-0.17,0.08-0.34,0.17-0.52,0.25
			c-0.69,0.34-1.15,1.1-1.12,1.87c-0.01,0.27,0.08,0.52,0.15,0.78c0.15,0.52,0.3,1.05,0.45,1.58c-0.13,0.01-0.26,0.02-0.38,0.05
			c-0.32,0.07-0.63,0.22-0.88,0.43c-0.13,0.11-0.25,0.23-0.37,0.35c-1.09,1.09-2.18,2.18-3.27,3.27c-0.15,0.15-0.31,0.3-0.44,0.46
			c-0.17,0.21-0.31,0.43-0.42,0.68c-0.17,0.39-0.26,0.81-0.3,1.23c-0.02,0.18-0.01,0.36-0.01,0.53c0,1.24,0,2.47,0,3.71
			c-0.11,0-0.23,0.01-0.34,0c-0.12,0-0.24-0.01-0.36,0.03c-0.15,0.06-0.27,0.2-0.31,0.36c-0.02,0.1-0.01,0.2-0.01,0.29
			c0,0.46,0,0.91,0,1.37c-0.01,0.18,0.1,0.36,0.26,0.44c0.17,0.09,0.38,0.08,0.54-0.02c0.08-0.05,0.15-0.14,0.19-0.23
			c0.05-0.1,0.03-0.23,0.04-0.34c0-0.29,0-0.58,0-0.87c0.11,0,0.23,0,0.35,0c1.8,0,3.6,0,5.4,0c0.12,0,0.24,0,0.36,0
			c0.01,0.26,0,0.51,0,0.77c0,0.15-0.02,0.31,0.04,0.45c0.08,0.19,0.29,0.32,0.49,0.3c0.19,0,0.37-0.12,0.45-0.3
			c0.05-0.1,0.05-0.22,0.05-0.33c0-0.46,0-0.91,0-1.37c0-0.19-0.08-0.4-0.25-0.49c-0.1-0.06-0.22-0.08-0.34-0.08
			c-0.37,0-0.75,0.01-1.12,0c0.17-0.2,0.34-0.39,0.5-0.59c0.3-0.34,0.57-0.69,0.87-1.02c0.11-0.14,0.24-0.28,0.35-0.42
			c0.17-0.22,0.36-0.43,0.53-0.64c0.09-0.11,0.18-0.22,0.28-0.32c0.05-0.05,0.1-0.1,0.14-0.15c0.38-0.45,0.75-0.9,1.12-1.34
			c0.37-0.42,0.65-0.92,0.81-1.46c0.12-0.38,0.16-0.77,0.17-1.17C48.18,32.45,48.18,31.39,48.18,30.33z M47.1,34.09
			c-0.07,0.42-0.25,0.81-0.49,1.15c-0.03,0.04-0.08,0.08-0.12,0.12s-0.06,0.1-0.09,0.14c-0.27,0.31-0.53,0.63-0.8,0.94
			c-0.19,0.23-0.38,0.45-0.57,0.68c-0.18,0.22-0.37,0.44-0.56,0.65c-0.45,0.54-0.9,1.07-1.34,1.62c-0.16,0.18-0.32,0.38-0.48,0.56
			c-0.03,0.04-0.08,0.09-0.07,0.15c0,0.17,0,0.35,0,0.52c-0.55,0.01-1.1,0-1.65,0.01c-0.63-0.01-1.27,0-1.9-0.01
			c0-1.3,0-2.61,0-3.91c0-0.2,0.03-0.39,0.06-0.58c0.05-0.29,0.15-0.57,0.31-0.82c0.09-0.15,0.22-0.28,0.34-0.4
			c0.59-0.59,1.18-1.17,1.77-1.77c0.64-0.63,1.27-1.27,1.9-1.9c0.27-0.29,0.73-0.37,1.09-0.21c0.31,0.13,0.55,0.42,0.61,0.75
			c0.02,0.17,0.01,0.35-0.04,0.51c-0.01,0.04-0.05,0.07-0.07,0.11c-0.03,0.04-0.03,0.09-0.06,0.13c-0.05,0.06-0.1,0.12-0.15,0.17
			c-0.64,0.64-1.29,1.29-1.93,1.93c-0.05,0.05-0.1,0.09-0.14,0.15c-0.18,0.22-0.11,0.59,0.13,0.74c0.13,0.09,0.31,0.1,0.46,0.06
			c0.15-0.05,0.24-0.17,0.35-0.28c0.62-0.62,1.23-1.23,1.85-1.85c0.3-0.29,0.53-0.68,0.6-1.09c0.11-0.56-0.01-1.18-0.37-1.63
			c-0.17-0.23-0.39-0.43-0.64-0.56c-0.01-0.16,0.01-0.33-0.03-0.49c-0.15-0.54-0.31-1.09-0.46-1.63c-0.04-0.16-0.1-0.31-0.11-0.47
			c-0.02-0.39,0.2-0.79,0.55-0.97c0.18-0.09,0.37-0.17,0.55-0.26c0.12,0.27,0.27,0.52,0.38,0.79c0.19,0.38,0.37,0.77,0.56,1.15
			c0.11,0.26,0.25,0.5,0.36,0.76c0.1,0.22,0.2,0.44,0.24,0.68c0.02,0.14,0.03,0.29,0.03,0.43c0,1.02,0,2.04,0,3.06
			C47.15,33.52,47.16,33.81,47.1,34.09z"/>
		<path class="st1" d="M37.48,43.19c-0.09,0-0.18-0.02-0.25-0.06c-0.16-0.08-0.26-0.26-0.26-0.44c0-0.45,0-0.92,0-1.37
			c0-0.03,0-0.05,0-0.08c0-0.07,0-0.14,0.01-0.21c0.03-0.16,0.15-0.3,0.31-0.36c0.1-0.04,0.2-0.04,0.3-0.04c0.02,0,0.04,0,0.06,0
			c0.1,0,0.22,0,0.34,0c0-0.82,0-1.66,0-2.47c0-0.41,0-0.82,0-1.24c0-0.05,0-0.1,0-0.15c0-0.13,0-0.26,0.01-0.39
			c0.04-0.46,0.14-0.87,0.3-1.23c0.1-0.23,0.24-0.46,0.41-0.68c0.1-0.12,0.21-0.24,0.32-0.35c0.04-0.04,0.08-0.08,0.11-0.11
			c1.09-1.09,2.18-2.18,3.27-3.27c0.03-0.03,0.06-0.06,0.1-0.1c0.09-0.09,0.18-0.18,0.27-0.26c0.26-0.21,0.56-0.36,0.88-0.43
			c0.13-0.03,0.26-0.04,0.38-0.05c-0.07-0.23-0.13-0.46-0.19-0.68c-0.08-0.29-0.17-0.6-0.25-0.89c-0.01-0.04-0.02-0.09-0.03-0.13
			c-0.06-0.21-0.12-0.43-0.11-0.65c-0.03-0.77,0.43-1.53,1.12-1.87c0.14-0.06,0.28-0.13,0.41-0.2c0.04-0.02,0.07-0.04,0.11-0.05
			c0.25-0.12,0.53-0.15,0.77-0.08c0.26,0.07,0.5,0.26,0.62,0.5c0.27,0.56,0.55,1.13,0.81,1.69c0.12,0.26,0.25,0.52,0.37,0.78
			c0.04,0.08,0.08,0.17,0.12,0.25c0.06,0.12,0.12,0.24,0.17,0.36c0.08,0.2,0.14,0.4,0.18,0.64c0.04,0.26,0.04,0.52,0.04,0.75
			c0,1.04,0,2.12,0,3.18c-0.01,0.45-0.06,0.83-0.17,1.17c-0.16,0.53-0.43,1.03-0.81,1.46c-0.23,0.27-0.45,0.54-0.68,0.8
			c-0.15,0.18-0.3,0.36-0.45,0.54c-0.04,0.05-0.09,0.1-0.14,0.15l0,0c-0.08,0.08-0.16,0.17-0.23,0.26
			c-0.02,0.02-0.03,0.04-0.05,0.06c-0.06,0.07-0.12,0.14-0.18,0.21c-0.12,0.14-0.24,0.28-0.35,0.42c-0.04,0.05-0.09,0.1-0.13,0.15
			c-0.08,0.09-0.15,0.18-0.23,0.27c-0.14,0.16-0.28,0.33-0.42,0.49c-0.15,0.18-0.3,0.36-0.45,0.53c-0.11,0.13-0.22,0.26-0.33,0.39
			c-0.06,0.07-0.11,0.13-0.17,0.2c0.26,0.01,0.53,0,0.78,0c0.11,0,0.22,0,0.34,0c0.15,0,0.25,0.02,0.34,0.08
			c0.19,0.1,0.25,0.33,0.25,0.49c0,0.26,0,0.52,0,0.77c0,0.2,0,0.4,0,0.6c0,0.11,0,0.23-0.05,0.33c-0.08,0.18-0.26,0.3-0.45,0.3
			c0,0,0,0-0.01,0s-0.02,0-0.03,0c-0.2,0-0.39-0.12-0.46-0.3c-0.04-0.11-0.04-0.22-0.04-0.33c0-0.04,0-0.08,0-0.11
			c0-0.1,0-0.2,0-0.29c0-0.16,0-0.32,0-0.48c-0.14,0-0.25-0.01-0.35,0h-5.4c-0.11,0-0.23,0-0.33,0h-0.01c0,0.19,0,0.39,0,0.58
			c0,0.1,0,0.19,0,0.29c0,0.02,0,0.05,0,0.07c0,0.09,0,0.19-0.04,0.27c-0.05,0.1-0.11,0.18-0.19,0.23
			C37.68,43.17,37.58,43.19,37.48,43.19z M37.53,40.64c-0.08,0-0.17,0-0.25,0.04c-0.15,0.06-0.27,0.2-0.3,0.36
			c-0.01,0.07-0.01,0.14-0.01,0.21c0,0.03,0,0.05,0,0.08c0,0.45,0,0.92,0,1.37c-0.01,0.18,0.1,0.35,0.26,0.44
			c0.17,0.09,0.38,0.08,0.54-0.02c0.08-0.05,0.14-0.13,0.19-0.23C38,42.81,38,42.71,38,42.62c0-0.02,0-0.05,0-0.07
			c0-0.1,0-0.19,0-0.29c0-0.19,0-0.39,0-0.58h0.01c0.11,0,0.22-0.01,0.33,0h5.4c0.11,0,0.22,0,0.36,0c0.01,0.16,0.01,0.32,0,0.48
			c0,0.1,0,0.19,0,0.29c0,0.04,0,0.08,0,0.11c0,0.11,0,0.23,0.04,0.33c0.07,0.18,0.26,0.3,0.46,0.3c0.01,0,0.02,0,0.03,0
			c0,0,0,0,0.01,0c0.18,0,0.36-0.12,0.44-0.3c0.05-0.1,0.05-0.22,0.05-0.33c0-0.2,0-0.4,0-0.6c0-0.25,0-0.51,0-0.77
			c0-0.16-0.07-0.39-0.25-0.49c-0.09-0.05-0.19-0.08-0.34-0.08c-0.11,0-0.22,0-0.34,0c-0.26,0-0.52,0-0.78,0
			c0.06-0.07,0.11-0.14,0.17-0.2c0.11-0.13,0.22-0.26,0.33-0.39c0.15-0.17,0.3-0.36,0.45-0.53c0.14-0.16,0.28-0.33,0.42-0.49
			c0.07-0.09,0.15-0.18,0.23-0.27c0.04-0.05,0.09-0.1,0.13-0.15c0.11-0.15,0.23-0.29,0.35-0.42c0.06-0.07,0.12-0.14,0.18-0.21
			c0.02-0.02,0.03-0.04,0.05-0.06c0.07-0.09,0.15-0.18,0.23-0.26l0,0c0.05-0.05,0.1-0.1,0.14-0.15c0.15-0.18,0.3-0.36,0.45-0.54
			c0.22-0.26,0.45-0.54,0.68-0.8c0.37-0.43,0.65-0.93,0.81-1.46c0.11-0.34,0.16-0.72,0.17-1.17c0-1.06,0-2.14,0-3.18l0,0
			c0-0.23,0-0.5-0.04-0.75c-0.04-0.23-0.1-0.44-0.18-0.64c-0.05-0.12-0.11-0.24-0.17-0.36c-0.04-0.08-0.08-0.17-0.12-0.25
			c-0.13-0.26-0.25-0.52-0.37-0.78c-0.26-0.55-0.54-1.13-0.81-1.69c-0.12-0.24-0.36-0.42-0.62-0.49c-0.24-0.07-0.52-0.04-0.77,0.08
			c-0.04,0.02-0.07,0.04-0.11,0.05c-0.13,0.07-0.27,0.14-0.41,0.2c-0.69,0.33-1.15,1.1-1.12,1.87c-0.01,0.22,0.05,0.44,0.11,0.65
			c0.01,0.04,0.02,0.09,0.04,0.13c0.09,0.3,0.17,0.6,0.25,0.89c0.06,0.22,0.13,0.46,0.19,0.68c-0.13,0.01-0.26,0.02-0.38,0.05
			c-0.32,0.07-0.63,0.21-0.88,0.43c-0.1,0.08-0.19,0.17-0.27,0.26c-0.03,0.03-0.06,0.06-0.1,0.1c-1.09,1.09-2.18,2.18-3.27,3.27
			c-0.04,0.04-0.08,0.08-0.11,0.11c-0.11,0.11-0.23,0.22-0.32,0.35c-0.18,0.22-0.32,0.45-0.41,0.68c-0.15,0.35-0.25,0.77-0.3,1.23
			c-0.01,0.13-0.01,0.26-0.01,0.39c0,0.05,0,0.1,0,0.15c0,0.41,0,0.82,0,1.24c0,0.81,0,1.65,0,2.47c-0.13,0.01-0.24,0.01-0.34,0.01
			C37.61,40.64,37.57,40.64,37.53,40.64z M40.92,40.64c-0.3,0-0.61,0-0.91,0c-0.33,0-0.66,0-1,0c0-0.65,0-1.32,0-1.96s0-1.3,0-1.95
			c0-0.2,0.03-0.39,0.06-0.58c0.05-0.3,0.15-0.57,0.31-0.82c0.09-0.15,0.21-0.27,0.34-0.4c0.27-0.27,0.54-0.54,0.8-0.8
			c0.32-0.32,0.65-0.64,0.97-0.97c0.3-0.3,0.61-0.6,0.9-0.9c0.33-0.33,0.67-0.67,1-1c0.27-0.29,0.73-0.37,1.1-0.21
			c0.31,0.13,0.55,0.42,0.61,0.75c0.02,0.17,0.01,0.35-0.05,0.52c-0.01,0.02-0.02,0.04-0.03,0.06s-0.03,0.03-0.03,0.05
			c-0.01,0.02-0.02,0.04-0.03,0.06s-0.02,0.05-0.03,0.07c-0.04,0.06-0.09,0.11-0.15,0.17c-0.34,0.34-0.67,0.67-1.01,1.01
			c-0.31,0.31-0.61,0.61-0.92,0.92l-0.02,0.02c-0.04,0.04-0.09,0.08-0.12,0.13c-0.08,0.1-0.12,0.24-0.09,0.39
			c0.02,0.15,0.1,0.27,0.22,0.35c0.12,0.09,0.3,0.11,0.46,0.06c0.12-0.04,0.2-0.13,0.29-0.21c0.02-0.02,0.04-0.04,0.06-0.06
			c0.61-0.61,1.23-1.23,1.85-1.85c0.32-0.31,0.53-0.69,0.6-1.09c0.12-0.58-0.02-1.19-0.37-1.63c-0.17-0.23-0.39-0.42-0.64-0.56
			c-0.01-0.06-0.01-0.13,0-0.19c0-0.1,0-0.2-0.02-0.3c-0.07-0.24-0.13-0.48-0.2-0.71c-0.09-0.31-0.17-0.61-0.26-0.91
			c-0.01-0.06-0.03-0.11-0.05-0.17c-0.03-0.1-0.06-0.2-0.07-0.31c-0.02-0.4,0.2-0.79,0.55-0.97c0.1-0.05,0.19-0.09,0.29-0.14
			c0.09-0.04,0.17-0.08,0.26-0.12c0.06,0.12,0.12,0.24,0.18,0.36c0.07,0.14,0.14,0.28,0.2,0.43c0.12,0.24,0.24,0.48,0.35,0.72
			c0.07,0.14,0.14,0.29,0.21,0.43c0.06,0.13,0.12,0.26,0.18,0.38c0.06,0.12,0.12,0.25,0.18,0.38c0.1,0.2,0.2,0.43,0.24,0.68
			c0.03,0.14,0.03,0.29,0.03,0.43v3.06c0,0.03,0,0.06,0,0.09c0,0.25,0,0.51-0.05,0.76l0,0c-0.07,0.39-0.23,0.78-0.49,1.15
			c-0.02,0.03-0.04,0.05-0.07,0.07c-0.02,0.02-0.03,0.03-0.05,0.05c-0.02,0.02-0.04,0.05-0.05,0.08c-0.01,0.02-0.03,0.04-0.04,0.06
			c-0.15,0.17-0.3,0.35-0.44,0.53c-0.11,0.14-0.23,0.28-0.35,0.42c-0.07,0.08-0.14,0.16-0.2,0.24c-0.12,0.14-0.24,0.29-0.36,0.44
			c-0.21,0.25-0.39,0.46-0.56,0.65c-0.19,0.24-0.39,0.47-0.59,0.7c-0.25,0.3-0.51,0.61-0.76,0.91c-0.09,0.1-0.17,0.2-0.26,0.3
			c-0.07,0.09-0.15,0.18-0.23,0.26c-0.01,0.01-0.01,0.02-0.02,0.03c-0.03,0.04-0.06,0.07-0.05,0.12c0,0.07,0,0.13,0,0.2
			c0,0.11,0,0.21,0,0.32c-0.24,0.01-0.48,0-0.72,0C41.54,40.63,41.23,40.63,40.92,40.64z M40.37,40.63c0.18,0,0.36,0,0.54,0
			c0.31-0.01,0.62-0.01,0.93-0.01c0.24,0,0.48,0,0.72,0c0-0.11,0-0.21,0-0.32c0-0.07,0-0.13,0-0.2c0-0.05,0.03-0.09,0.06-0.12
			c0.01-0.01,0.01-0.02,0.02-0.03c0.08-0.09,0.15-0.18,0.23-0.26c0.08-0.1,0.17-0.2,0.26-0.3c0.25-0.31,0.51-0.61,0.76-0.91
			c0.19-0.23,0.39-0.47,0.59-0.7c0.18-0.19,0.36-0.4,0.56-0.65c0.12-0.15,0.24-0.29,0.36-0.44c0.07-0.08,0.14-0.16,0.2-0.24
			c0.12-0.14,0.24-0.28,0.35-0.42c0.14-0.17,0.29-0.35,0.44-0.53c0.02-0.02,0.03-0.04,0.04-0.06c0.02-0.03,0.03-0.05,0.05-0.08
			c0.02-0.02,0.03-0.03,0.05-0.05c0.02-0.02,0.05-0.04,0.07-0.07c0.26-0.37,0.42-0.76,0.49-1.15l0,0c0.05-0.25,0.05-0.51,0.05-0.76
			c0-0.03,0-0.06,0-0.09v-3.06c0-0.14,0-0.29-0.03-0.43c-0.04-0.25-0.14-0.48-0.24-0.68c-0.06-0.13-0.12-0.25-0.18-0.38
			c-0.06-0.12-0.13-0.25-0.18-0.38c-0.07-0.14-0.14-0.29-0.21-0.43c-0.11-0.24-0.23-0.48-0.35-0.72c-0.06-0.15-0.14-0.29-0.21-0.43
			c-0.06-0.12-0.12-0.24-0.17-0.36c-0.09,0.04-0.17,0.08-0.26,0.12c-0.1,0.04-0.19,0.09-0.29,0.14c-0.35,0.18-0.57,0.57-0.55,0.97
			c0.01,0.1,0.04,0.21,0.07,0.31c0.02,0.05,0.03,0.11,0.05,0.17c0.09,0.3,0.17,0.61,0.26,0.91c0.07,0.24,0.13,0.48,0.2,0.71
			c0.03,0.1,0.02,0.2,0.02,0.3c0,0.06,0,0.13,0,0.19c0.25,0.14,0.47,0.33,0.64,0.56c0.35,0.44,0.48,1.05,0.37,1.63
			c-0.07,0.4-0.29,0.79-0.6,1.09c-0.62,0.62-1.25,1.24-1.85,1.85c-0.02,0.02-0.04,0.04-0.06,0.06c-0.08,0.09-0.17,0.18-0.29,0.21
			c-0.17,0.05-0.34,0.03-0.46-0.06c-0.12-0.07-0.2-0.2-0.22-0.35c-0.02-0.14,0.01-0.29,0.09-0.39c0.04-0.05,0.08-0.09,0.12-0.13
			l0.02-0.02c0.31-0.31,0.61-0.61,0.92-0.92c0.34-0.34,0.67-0.67,1.01-1.01c0.06-0.06,0.11-0.11,0.15-0.17
			c0.02-0.02,0.03-0.05,0.03-0.07c0.01-0.02,0.01-0.04,0.03-0.06c0.01-0.02,0.02-0.04,0.03-0.05c0.01-0.02,0.03-0.04,0.03-0.06
			c0.05-0.17,0.07-0.34,0.05-0.51c-0.06-0.33-0.3-0.63-0.61-0.75c-0.37-0.17-0.83-0.08-1.09,0.21c-0.34,0.33-0.68,0.67-1.01,1
			c-0.29,0.3-0.6,0.6-0.9,0.9c-0.32,0.32-0.65,0.65-0.97,0.97c-0.26,0.26-0.53,0.53-0.8,0.8c-0.13,0.13-0.25,0.26-0.34,0.4
			c-0.15,0.25-0.25,0.52-0.31,0.82c-0.03,0.19-0.06,0.38-0.06,0.58c0,0.65,0,1.31,0,1.95s0,1.3,0,1.95c0.33,0.01,0.67,0,0.99,0
			C40.13,40.63,40.25,40.63,40.37,40.63z"/>
	</g>
	<g>
		<g>
			<path class="st1" d="M29.17,34.74c0-0.05,0-0.1-0.01-0.14L29.17,34.74z"/>
			<path class="st1" d="M29.17,34.74l-0.01-0.14l0,0c0,0.03,0.01,0.07,0.01,0.1C29.17,34.71,29.17,34.73,29.17,34.74L29.17,34.74
				L29.17,34.74L29.17,34.74z"/>
		</g>
		<g>
			<path class="st1" d="M34.93,41.17c0-0.09-0.01-0.19-0.06-0.27c-0.08-0.15-0.23-0.25-0.4-0.26c-0.19-0.01-0.37,0.01-0.56-0.01
				c0-1.35,0-2.69,0-4.03c-0.01-0.3-0.05-0.59-0.12-0.88c-0.13-0.53-0.39-1.04-0.78-1.43c-1.25-1.25-2.5-2.5-3.75-3.75
				c-0.3-0.3-0.68-0.5-1.09-0.57c-0.1-0.02-0.21-0.02-0.32-0.03c0.16-0.56,0.32-1.12,0.47-1.68c0.05-0.18,0.1-0.37,0.11-0.55
				c0.01-0.2,0.01-0.4-0.03-0.59c-0.09-0.44-0.33-0.84-0.66-1.13c-0.17-0.15-0.37-0.27-0.58-0.36c-0.12-0.05-0.24-0.11-0.35-0.17
				c-0.16-0.08-0.33-0.12-0.5-0.12c-0.31,0-0.62,0.16-0.81,0.41c-0.08,0.1-0.12,0.22-0.18,0.34c-0.2,0.41-0.39,0.82-0.59,1.23
				c-0.23,0.48-0.46,0.96-0.69,1.44c-0.13,0.26-0.21,0.54-0.26,0.83c-0.04,0.24-0.04,0.48-0.04,0.73c0,1.07,0,2.14,0,3.21
				c0,0.15,0.01,0.3,0.02,0.45c0.08,0.81,0.42,1.59,0.96,2.19c0.42,0.49,0.83,0.99,1.25,1.48c0.77,0.91,1.54,1.83,2.31,2.74
				c0.07,0.07,0.04,0.16,0.04,0.25c-0.35,0.01-0.7,0-1.04,0.01c-0.2,0-0.37,0.14-0.45,0.32c-0.03,0.08-0.04,0.17-0.04,0.26
				c0,0.47,0,0.94,0,1.42c0,0.17,0.06,0.34,0.2,0.44c0.13,0.11,0.31,0.13,0.46,0.09c0.21-0.05,0.37-0.25,0.37-0.47
				c0.01-0.35-0.01-0.69,0-1.03c0.12,0,0.24-0.01,0.36,0c1.8,0,3.6,0,5.4,0c0.11,0,0.23,0,0.35,0c0.01,0.35,0,0.7,0,1.05
				c0,0.13,0.07,0.25,0.15,0.34c0.16,0.15,0.41,0.17,0.6,0.08c0.14-0.07,0.24-0.2,0.26-0.36c0.01-0.1,0-0.19,0.01-0.29
				C34.93,42.05,34.93,41.61,34.93,41.17z M32.89,40.63c-0.06,0-0.11,0-0.17,0c-1.08,0-2.16,0-3.23,0c-0.05,0-0.1,0-0.15,0
				c-0.02-0.23,0.05-0.48-0.1-0.68c-0.31-0.39-0.64-0.76-0.95-1.14c-0.29-0.32-0.56-0.67-0.84-0.99c-0.18-0.22-0.37-0.45-0.56-0.66
				c-0.19-0.24-0.4-0.48-0.6-0.72c-0.26-0.3-0.51-0.62-0.77-0.92c-0.05-0.06-0.07-0.14-0.14-0.19c-0.08-0.07-0.13-0.16-0.19-0.25
				c-0.18-0.29-0.31-0.61-0.38-0.94c-0.05-0.22-0.06-0.45-0.06-0.67c0-1.12,0-2.24,0-3.36c0-0.3,0.06-0.61,0.19-0.88
				c0.08-0.16,0.14-0.32,0.22-0.47c0.11-0.22,0.21-0.44,0.32-0.65c0.06-0.13,0.13-0.26,0.19-0.39c0.11-0.25,0.24-0.48,0.35-0.73
				c0.1-0.2,0.2-0.41,0.29-0.61c0.06,0.02,0.13,0.04,0.18,0.08c0.11,0.06,0.23,0.1,0.34,0.16c0.06,0.04,0.11,0.09,0.18,0.12
				c0.06,0.03,0.11,0.09,0.15,0.14c0.16,0.19,0.25,0.45,0.25,0.7c-0.01,0.18-0.08,0.36-0.13,0.54c-0.08,0.26-0.14,0.52-0.22,0.78
				c-0.06,0.19-0.1,0.39-0.16,0.59c-0.04,0.13-0.09,0.27-0.09,0.41c0,0.1,0,0.21-0.01,0.31c-0.17,0.1-0.33,0.22-0.47,0.35
				c-0.16,0.18-0.31,0.38-0.4,0.6c-0.28,0.63-0.21,1.41,0.18,1.98c0.07,0.1,0.14,0.19,0.22,0.28c0.67,0.67,1.34,1.34,2.01,2.01
				c0.09,0.09,0.2,0.19,0.34,0.21c0.12,0.01,0.24,0.01,0.35-0.05c0.21-0.12,0.32-0.4,0.24-0.63c-0.02-0.07-0.08-0.13-0.11-0.21
				c-0.09-0.05-0.16-0.12-0.21-0.2c-0.04-0.01-0.06-0.04-0.09-0.07c-0.12-0.13-0.25-0.26-0.39-0.39c-0.47-0.47-0.94-0.94-1.4-1.41
				c-0.36-0.34-0.38-0.96-0.07-1.34c0.13-0.15,0.3-0.27,0.49-0.33c0.34-0.11,0.74-0.03,0.99,0.23c1.22,1.22,2.44,2.44,3.67,3.67
				c0.13,0.13,0.27,0.27,0.36,0.43c0.13,0.22,0.22,0.46,0.28,0.71c0.04,0.23,0.08,0.46,0.08,0.7C32.89,38.04,32.9,39.34,32.89,40.63
				z"/>
			<path class="st1" d="M34.43,43.19c-0.13,0-0.27-0.05-0.36-0.14c-0.1-0.1-0.15-0.22-0.15-0.34c0-0.14,0-0.28,0-0.42
				c0-0.21,0-0.42,0-0.62h-0.01c-0.11,0-0.23,0-0.34,0h-5.4c-0.11,0-0.22,0-0.36,0c-0.01,0.19,0,0.38,0,0.57c0,0.15,0,0.31,0,0.47
				c-0.01,0.21-0.17,0.41-0.37,0.47c-0.18,0.04-0.35,0.01-0.46-0.09c-0.13-0.09-0.2-0.26-0.2-0.44c0-0.16,0-0.32,0-0.47
				c0-0.31,0-0.63,0-0.95c0-0.09,0-0.18,0.04-0.26c0.08-0.19,0.25-0.32,0.45-0.32c0.17,0,0.33,0,0.5,0c0.18,0,0.36,0,0.55,0
				c0-0.02,0-0.04,0-0.05c0-0.07,0.01-0.14-0.04-0.19c-0.36-0.42-0.71-0.85-1.06-1.26c-0.41-0.49-0.83-0.99-1.25-1.48
				c-0.13-0.15-0.26-0.31-0.39-0.46c-0.28-0.34-0.57-0.68-0.86-1.02c-0.54-0.61-0.88-1.39-0.96-2.19c-0.01-0.15-0.02-0.3-0.02-0.45
				v-3.21c0-0.3,0.01-0.52,0.04-0.73c0.06-0.3,0.14-0.58,0.26-0.83c0.12-0.24,0.23-0.49,0.35-0.72c0.11-0.24,0.23-0.48,0.35-0.72
				c0.08-0.16,0.16-0.33,0.24-0.5c0.11-0.24,0.23-0.49,0.35-0.73c0.01-0.02,0.02-0.05,0.03-0.07c0.04-0.09,0.08-0.19,0.15-0.27
				c0.19-0.25,0.5-0.41,0.81-0.41c0.17,0,0.34,0.04,0.51,0.12c0.03,0.01,0.05,0.03,0.08,0.04c0.09,0.04,0.18,0.09,0.27,0.13
				c0.22,0.1,0.42,0.22,0.58,0.36c0.34,0.3,0.57,0.7,0.66,1.13c0.05,0.2,0.04,0.41,0.03,0.59c-0.01,0.17-0.06,0.34-0.1,0.51
				l-0.01,0.04c-0.07,0.23-0.13,0.46-0.19,0.69c-0.09,0.32-0.19,0.66-0.28,0.99c0.02,0,0.04,0,0.06,0c0.08,0.01,0.17,0.01,0.25,0.03
				c0.41,0.07,0.8,0.27,1.1,0.57l0.5,0.5c1.07,1.07,2.17,2.17,3.25,3.25c0.37,0.38,0.64,0.87,0.78,1.43c0.07,0.3,0.12,0.6,0.12,0.88
				c0,0.45,0,0.9,0,1.34c0,0.88,0,1.79,0,2.69c0.1,0.01,0.19,0,0.29,0c0.09,0,0.18,0,0.27,0c0.17,0.01,0.33,0.12,0.4,0.26
				c0.04,0.07,0.06,0.16,0.06,0.27l0,0c0,0.29,0,0.59,0,0.88c0,0.15,0,0.29,0,0.44c0,0.03,0,0.07,0,0.1c0,0.06,0,0.13-0.01,0.19
				c-0.02,0.15-0.12,0.29-0.26,0.36C34.59,43.18,34.51,43.19,34.43,43.19z M33.67,41.67c0.08,0,0.16,0,0.23,0h0.01
				c0.01,0.21,0,0.42,0,0.63c0,0.14,0,0.28,0,0.42c0,0.12,0.05,0.24,0.15,0.34c0.15,0.14,0.4,0.18,0.6,0.08
				c0.14-0.07,0.24-0.21,0.26-0.36c0.01-0.06,0.01-0.13,0.01-0.19c0-0.03,0-0.07,0-0.1c0-0.15,0-0.29,0-0.44c0-0.29,0-0.59,0-0.88
				c0-0.11-0.02-0.2-0.06-0.27c-0.08-0.15-0.23-0.25-0.4-0.26c-0.09-0.01-0.18,0-0.27,0s-0.19,0-0.29,0c0-0.9,0-1.81,0-2.69
				c0-0.45,0-0.9,0-1.34c-0.01-0.28-0.05-0.58-0.12-0.88c-0.14-0.56-0.4-1.05-0.78-1.43c-1.08-1.09-2.19-2.19-3.25-3.25l-0.5-0.5
				c-0.29-0.29-0.68-0.5-1.09-0.57c-0.08-0.01-0.17-0.02-0.25-0.03c-0.02,0-0.04,0-0.06-0.01c0.09-0.33,0.19-0.67,0.28-0.99
				c0.06-0.23,0.13-0.46,0.19-0.69l0.01-0.04c0.05-0.17,0.09-0.34,0.1-0.51c0.01-0.18,0.01-0.39-0.03-0.59
				c-0.09-0.43-0.32-0.83-0.66-1.13c-0.17-0.14-0.36-0.26-0.58-0.36c-0.09-0.04-0.18-0.09-0.27-0.13c-0.03-0.01-0.05-0.03-0.08-0.04
				c-0.16-0.08-0.34-0.12-0.5-0.12c-0.31,0-0.62,0.16-0.81,0.41c-0.06,0.08-0.1,0.18-0.15,0.27c-0.01,0.02-0.02,0.05-0.03,0.07
				c-0.12,0.24-0.24,0.49-0.35,0.73c-0.08,0.16-0.16,0.33-0.24,0.5c-0.12,0.24-0.23,0.49-0.35,0.72c-0.11,0.24-0.23,0.48-0.35,0.72
				c-0.12,0.25-0.21,0.52-0.26,0.83c-0.03,0.21-0.05,0.43-0.04,0.73v3.21c0,0.15,0.01,0.3,0.02,0.45c0.08,0.81,0.42,1.59,0.96,2.19
				c0.29,0.34,0.58,0.69,0.86,1.02c0.13,0.15,0.26,0.31,0.39,0.46c0.42,0.49,0.84,0.99,1.25,1.48c0.35,0.41,0.71,0.84,1.06,1.26
				c0.05,0.05,0.05,0.13,0.05,0.19c0,0.02,0,0.04,0,0.05c-0.18,0.01-0.37,0.01-0.55,0.01c-0.16,0-0.33,0-0.5,0
				c-0.19,0.01-0.37,0.13-0.44,0.32c-0.03,0.09-0.04,0.18-0.04,0.26c0,0.31,0,0.64,0,0.95c0,0.16,0,0.32,0,0.47
				c0,0.19,0.07,0.35,0.2,0.44c0.11,0.1,0.29,0.13,0.46,0.09c0.21-0.05,0.37-0.25,0.37-0.47c0-0.16,0-0.31,0-0.47
				c0-0.19,0-0.38,0-0.57c0.14-0.01,0.25-0.01,0.36-0.01h5.4C33.6,41.67,33.63,41.67,33.67,41.67z M32.72,40.64h-3.23
				c-0.05,0-0.09,0-0.15,0c-0.01-0.07,0-0.13,0-0.2c0-0.17,0.01-0.34-0.09-0.48c-0.16-0.19-0.32-0.39-0.48-0.57
				c-0.16-0.19-0.32-0.38-0.47-0.57c-0.16-0.18-0.31-0.37-0.47-0.55c-0.12-0.15-0.25-0.3-0.38-0.45c-0.04-0.05-0.08-0.1-0.13-0.15
				c-0.14-0.17-0.28-0.34-0.43-0.51c-0.13-0.17-0.28-0.34-0.42-0.5c-0.06-0.07-0.12-0.15-0.19-0.22c-0.12-0.14-0.25-0.29-0.37-0.44
				c-0.13-0.16-0.27-0.32-0.41-0.48c-0.02-0.02-0.04-0.05-0.06-0.08c-0.02-0.04-0.05-0.08-0.08-0.11c-0.07-0.06-0.12-0.13-0.16-0.21
				c-0.01-0.02-0.02-0.03-0.03-0.05c-0.19-0.31-0.31-0.63-0.38-0.94c-0.05-0.24-0.06-0.48-0.06-0.67c0-0.37,0-0.75,0-1.12
				c0-0.73,0-1.49,0-2.24c0-0.31,0.06-0.61,0.19-0.88c0.03-0.06,0.06-0.13,0.09-0.19c0.04-0.09,0.09-0.19,0.13-0.28
				c0.06-0.11,0.11-0.23,0.17-0.35c0.05-0.1,0.1-0.21,0.15-0.31c0.02-0.05,0.05-0.09,0.07-0.14c0.04-0.08,0.08-0.16,0.12-0.25
				c0.05-0.12,0.11-0.23,0.16-0.34c0.06-0.13,0.13-0.26,0.18-0.39c0.09-0.18,0.19-0.39,0.29-0.61c0.01,0,0.02,0.01,0.03,0.01
				c0.05,0.02,0.11,0.04,0.15,0.07c0.06,0.03,0.13,0.06,0.19,0.09c0.05,0.02,0.1,0.04,0.15,0.07c0.02,0.01,0.03,0.02,0.05,0.04
				c0.04,0.03,0.08,0.06,0.13,0.08c0.06,0.03,0.11,0.08,0.15,0.13v0.01c0.16,0.2,0.25,0.45,0.25,0.7c-0.01,0.13-0.05,0.25-0.08,0.37
				c-0.02,0.06-0.03,0.11-0.05,0.17c-0.04,0.12-0.07,0.24-0.1,0.35c-0.04,0.14-0.08,0.28-0.12,0.42c-0.03,0.09-0.05,0.18-0.07,0.27
				c-0.03,0.11-0.06,0.21-0.09,0.32c-0.01,0.02-0.01,0.05-0.02,0.07c-0.03,0.11-0.07,0.22-0.07,0.34c0,0.1,0,0.21,0,0.31
				c-0.18,0.11-0.34,0.23-0.47,0.35c-0.18,0.2-0.32,0.4-0.4,0.6c-0.28,0.63-0.21,1.41,0.18,1.98c0.07,0.1,0.14,0.19,0.22,0.28
				c0.67,0.67,1.35,1.35,2.01,2.01c0.1,0.1,0.2,0.19,0.33,0.21c0.14,0.02,0.26,0,0.35-0.05c0.21-0.12,0.32-0.39,0.24-0.63
				c-0.01-0.04-0.04-0.07-0.06-0.11c-0.02-0.03-0.04-0.06-0.05-0.1c-0.08-0.04-0.15-0.11-0.21-0.2c-0.03-0.01-0.05-0.03-0.07-0.05
				c-0.01-0.01-0.01-0.01-0.02-0.02c-0.13-0.14-0.27-0.27-0.39-0.39c-0.26-0.26-0.52-0.53-0.78-0.79c-0.2-0.2-0.41-0.41-0.62-0.62
				c-0.35-0.34-0.39-0.96-0.07-1.34c0.13-0.15,0.31-0.27,0.49-0.33c0.35-0.11,0.75-0.02,1,0.23c0.57,0.57,1.14,1.14,1.71,1.71
				c0.64,0.64,1.3,1.3,1.96,1.95c0.13,0.13,0.26,0.26,0.36,0.43c0.13,0.21,0.22,0.45,0.28,0.71c0.04,0.23,0.08,0.46,0.08,0.7
				c0,0.55,0,1.1,0,1.64c0,0.74,0,1.5,0,2.25l0,0l0,0C32.83,40.63,32.78,40.64,32.72,40.64z M26.31,26.38
				c-0.1,0.21-0.2,0.43-0.29,0.61c-0.06,0.13-0.12,0.26-0.18,0.39c-0.06,0.11-0.11,0.23-0.16,0.34c-0.04,0.08-0.08,0.17-0.12,0.25
				c-0.02,0.05-0.05,0.09-0.07,0.14c-0.05,0.1-0.1,0.21-0.15,0.31c-0.05,0.11-0.11,0.23-0.17,0.35c-0.05,0.09-0.09,0.18-0.13,0.28
				c-0.03,0.06-0.06,0.13-0.09,0.19c-0.13,0.27-0.2,0.57-0.19,0.88c0,0.75,0,1.5,0,2.24c0,0.37,0,0.75,0,1.12
				c0,0.19,0.01,0.43,0.06,0.67c0.06,0.32,0.19,0.63,0.38,0.94c0.01,0.02,0.02,0.03,0.03,0.05c0.05,0.07,0.09,0.15,0.16,0.2
				c0.04,0.03,0.06,0.07,0.08,0.11c0.02,0.03,0.03,0.06,0.05,0.08c0.14,0.16,0.28,0.32,0.41,0.48c0.12,0.14,0.24,0.29,0.37,0.44
				c0.06,0.07,0.12,0.15,0.19,0.22c0.14,0.16,0.28,0.33,0.42,0.5c0.15,0.17,0.29,0.34,0.43,0.51c0.04,0.05,0.08,0.1,0.13,0.15
				c0.13,0.15,0.26,0.3,0.38,0.45c0.15,0.18,0.31,0.37,0.47,0.55c0.15,0.19,0.32,0.38,0.47,0.57c0.16,0.19,0.32,0.38,0.48,0.57
				c0.1,0.14,0.1,0.32,0.1,0.48c0,0.07,0,0.13,0,0.2c0.05,0,0.1,0,0.15,0h3.23c0.06,0,0.11,0,0.17,0c0-0.75,0-1.51,0-2.25
				c0-0.54,0-1.09,0-1.64c0-0.24-0.04-0.47-0.08-0.7c-0.06-0.26-0.15-0.5-0.28-0.71c-0.1-0.17-0.23-0.31-0.36-0.43
				c-0.65-0.65-1.32-1.31-1.96-1.95c-0.57-0.57-1.14-1.14-1.71-1.71c-0.25-0.25-0.65-0.34-0.99-0.23c-0.18,0.06-0.36,0.18-0.49,0.33
				c-0.32,0.38-0.29,0.99,0.07,1.33c0.21,0.21,0.42,0.42,0.62,0.62c0.26,0.26,0.52,0.52,0.78,0.79c0.12,0.11,0.25,0.24,0.39,0.39
				c0.01,0.01,0.01,0.01,0.02,0.02c0.02,0.02,0.04,0.04,0.07,0.05c0.06,0.09,0.13,0.16,0.21,0.2c0.01,0.04,0.03,0.07,0.05,0.1
				c0.02,0.03,0.04,0.07,0.06,0.11c0.08,0.23-0.03,0.51-0.24,0.63c-0.09,0.05-0.21,0.07-0.35,0.05c-0.13-0.02-0.23-0.11-0.34-0.21
				c-0.66-0.66-1.34-1.34-2.01-2.01c-0.08-0.08-0.15-0.17-0.22-0.28c-0.39-0.57-0.46-1.35-0.18-1.98c0.09-0.2,0.22-0.39,0.4-0.6
				c0.13-0.13,0.29-0.25,0.47-0.35c0-0.1,0-0.21,0-0.31c0-0.12,0.03-0.23,0.07-0.34c0.01-0.02,0.02-0.05,0.02-0.07
				c0.03-0.11,0.06-0.21,0.09-0.32c0.02-0.09,0.05-0.18,0.07-0.27c0.04-0.14,0.08-0.28,0.12-0.42c0.03-0.12,0.06-0.24,0.1-0.35
				c0.01-0.06,0.03-0.11,0.05-0.17c0.04-0.12,0.07-0.24,0.08-0.37c0.01-0.25-0.08-0.5-0.25-0.7v-0.01c-0.04-0.05-0.09-0.1-0.15-0.13
				c-0.05-0.02-0.09-0.05-0.13-0.09c-0.02-0.01-0.03-0.02-0.05-0.04c-0.05-0.02-0.1-0.05-0.15-0.07c-0.06-0.03-0.13-0.06-0.19-0.09
				c-0.05-0.03-0.1-0.05-0.15-0.07C26.33,26.38,26.32,26.38,26.31,26.38z"/>
		</g>
	</g>
</g>
</svg>
