<?xml version="1.0" encoding="utf-8"?>
<!-- Generator: Adobe Illustrator 28.2.0, SVG Export Plug-In . SVG Version: 6.00 Build 0)  -->
<svg version="1.1" id="Layer_1" xmlns="http://www.w3.org/2000/svg" xmlns:xlink="http://www.w3.org/1999/xlink" x="0px" y="0px"
	 viewBox="0 0 72 72" style="enable-background:new 0 0 72 72;" xml:space="preserve">
<style type="text/css">
	.st0{fill:#FFFFFF;}
	.st1{fill:#4AB880;}
</style>
<g>
	<g>
		<path class="st0" d="M25.07,47.46v4.67c-0.12-0.08-0.21-0.15-0.27-0.19c-0.06-0.05-0.11-0.09-0.15-0.13s-0.08-0.08-0.12-0.13
			c-0.04-0.05-0.09-0.1-0.15-0.15c0.01-0.43,0.02-0.82,0.03-1.16c0.01-0.14,0.01-0.29,0.01-0.43c0-0.14,0-0.27,0-0.38s0-0.2,0-0.27
			c0-0.07,0-0.11,0-0.11c0-0.05-0.01-0.1-0.04-0.18c-0.03-0.07-0.06-0.14-0.1-0.22c-0.04-0.07-0.08-0.15-0.13-0.21
			c-0.05-0.07-0.09-0.12-0.13-0.16l-1.51,1.54l-0.85-0.32c0.07-0.07,0.12-0.12,0.16-0.16s0.06-0.06,0.09-0.09s0.05-0.05,0.08-0.07
			c0.03-0.02,0.05-0.05,0.08-0.07c0.04-0.06,0.08-0.11,0.1-0.15s0.04-0.09,0.04-0.15c0-0.04,0-0.08-0.01-0.12s-0.01-0.08-0.03-0.12
			s-0.03-0.07-0.06-0.09c-0.03-0.03-0.07-0.04-0.11-0.04s-0.08,0.01-0.13,0.02c-0.04,0.02-0.09,0.03-0.13,0.05
			c-0.03,0.01-0.05,0.02-0.08,0.03s-0.05,0.02-0.08,0.03c-0.06,0.03-0.12,0.04-0.17,0.04c-0.06,0-0.11-0.01-0.17-0.04
			s-0.1-0.07-0.14-0.11c-0.04-0.05-0.07-0.1-0.1-0.15c-0.03-0.06-0.04-0.11-0.04-0.16c0-0.2,0.07-0.38,0.21-0.55
			c0.14-0.17,0.31-0.32,0.5-0.44c0.2-0.12,0.4-0.22,0.62-0.29s0.4-0.1,0.55-0.1c0.17,0,0.33,0.03,0.49,0.08s0.31,0.13,0.44,0.22
			c0.14,0.09,0.26,0.21,0.38,0.33c0.12,0.13,0.22,0.26,0.3,0.41c-0.01-0.14-0.02-0.28-0.02-0.42s-0.01-0.29-0.01-0.44s0-0.31,0-0.48
			s0-0.35,0-0.55l0.42,0.3l0.05,0.08c0.01,0.12,0.03,0.2,0.05,0.24c0.03,0.04,0.08,0.09,0.17,0.14h0.25h0.22l0.63,0.65L25.07,47.46
			L25.07,47.46z M22.1,47.97c0.15,0.03,0.28,0.1,0.38,0.23s0.17,0.27,0.2,0.42l0.82-0.82c-0.15-0.15-0.34-0.23-0.55-0.23
			C22.58,47.57,22.29,47.71,22.1,47.97z"/>
		<path class="st0" d="M24.76,52.15c-0.03-0.05-0.05-0.09-0.08-0.13s-0.04-0.07-0.05-0.1c-0.09-0.16-0.17-0.29-0.24-0.4
			s-0.14-0.19-0.23-0.25c-0.08-0.06-0.19-0.1-0.3-0.13s-0.27-0.04-0.47-0.04c-0.2,0-0.39,0.01-0.58,0.02s-0.38,0.02-0.57,0.02
			c-0.21,0-0.41-0.04-0.6-0.1c-0.19-0.07-0.35-0.17-0.5-0.3c-0.14-0.13-0.26-0.28-0.34-0.46s-0.13-0.38-0.13-0.6
			c0-0.12,0-0.26,0.01-0.4s0.03-0.32,0.07-0.54l0.43,0.43c-0.03,0.06-0.04,0.1-0.05,0.13s-0.01,0.06-0.01,0.08
			c0,0.17,0.03,0.3,0.09,0.41s0.15,0.18,0.27,0.24s0.25,0.1,0.41,0.13s0.33,0.05,0.53,0.06s0.39,0.02,0.59,0.04
			c0.2,0.02,0.39,0.05,0.58,0.1c0.19,0.05,0.37,0.12,0.54,0.21s0.32,0.22,0.44,0.38c0.07,0.09,0.13,0.17,0.18,0.23
			s0.09,0.14,0.13,0.2s0.08,0.13,0.11,0.2c0.03,0.06,0.07,0.14,0.1,0.23v0.68c-0.1-0.08-0.18-0.14-0.22-0.2
			C24.84,52.26,24.8,52.21,24.76,52.15z"/>
		<path class="st0" d="M28.96,47.46v4.98c-0.1-0.14-0.16-0.22-0.17-0.25c-0.02-0.03-0.03-0.04-0.03-0.04
			c-0.01-0.01-0.02-0.02-0.04-0.02c-0.03-0.01-0.05-0.02-0.08-0.04c-0.03-0.02-0.06-0.04-0.08-0.08c-0.01-0.03-0.02-0.05-0.03-0.07
			c-0.01-0.02-0.02-0.04-0.02-0.07c-0.01-0.03-0.02-0.05-0.02-0.08s-0.01-0.06-0.02-0.09c-0.01-0.06-0.02-0.12-0.04-0.18
			c-0.01-0.06-0.04-0.12-0.06-0.18c-0.11-0.25-0.25-0.45-0.41-0.6s-0.34-0.29-0.55-0.42c-0.17-0.1-0.35-0.18-0.54-0.25
			s-0.39-0.1-0.61-0.12l-0.66-0.94c0.45-0.32,0.9-0.6,1.34-0.84s0.91-0.43,1.39-0.59v-0.15h-2.85l-0.63-0.65h4.61l0.63,0.65h-1.13
			V47.46z M28.31,48.54c-0.25,0.1-0.5,0.21-0.74,0.34s-0.48,0.27-0.71,0.42c0.29,0.13,0.55,0.3,0.8,0.49s0.46,0.42,0.65,0.68V48.54z
			"/>
		<path class="st0" d="M30.62,47.46v4.75c-0.03,0-0.08-0.03-0.15-0.08s-0.14-0.11-0.22-0.18c-0.09-0.08-0.18-0.16-0.28-0.26v-3.44
			c0-0.27-0.04-0.47-0.13-0.62c-0.09-0.14-0.26-0.2-0.5-0.17l-0.55-0.67c0.09,0.01,0.17,0.01,0.22,0.01s0.1,0,0.13,0
			c0.04,0,0.07,0,0.09,0s0.05,0,0.07,0c0.19,0,0.34,0.03,0.46,0.1s0.22,0.18,0.31,0.32c-0.01-0.06-0.02-0.12-0.03-0.18
			c-0.01-0.07-0.02-0.15-0.03-0.24s-0.02-0.2-0.04-0.32c-0.01-0.12-0.03-0.27-0.05-0.43l0.39,0.31c0.01,0.09,0.02,0.15,0.03,0.18
			s0.02,0.06,0.04,0.09c0.01,0.03,0.04,0.06,0.06,0.08l0.09,0.09h0.68l0.65,0.65h-1.24V47.46z"/>
		<path class="st0" d="M33.14,47.46l0.09-0.12c0.01,0.03,0.02,0.05,0.03,0.07c0.01,0.01,0.02,0.03,0.03,0.05
			c0.02,0.02,0.04,0.04,0.05,0.05c0.01,0.01,0.02,0.02,0.02,0.02s0.01,0.01,0.02,0.02c0.18,0.03,0.35,0.08,0.52,0.16
			s0.31,0.19,0.43,0.32s0.22,0.28,0.3,0.44c0.07,0.17,0.11,0.34,0.11,0.53c0,0.22-0.04,0.39-0.13,0.53
			c-0.09,0.14-0.2,0.26-0.33,0.36c-0.07,0.05-0.14,0.1-0.22,0.13c-0.07,0.04-0.14,0.08-0.21,0.11c-0.05,0.03-0.09,0.05-0.14,0.07
			s-0.1,0.04-0.14,0.07c0.22,0.12,0.39,0.21,0.53,0.28s0.26,0.14,0.38,0.2c0.07,0.04,0.13,0.09,0.2,0.13
			c0.07,0.05,0.14,0.1,0.21,0.17s0.16,0.14,0.25,0.23s0.19,0.19,0.31,0.32l0.3,1.06c-0.28-0.33-0.57-0.61-0.88-0.86
			c-0.31-0.24-0.63-0.45-0.97-0.63c-0.33-0.17-0.67-0.32-1.01-0.43s-0.68-0.2-1.01-0.26l-0.64-1.57c0.32,0.22,0.61,0.37,0.85,0.45
			c0.24,0.08,0.48,0.12,0.72,0.12c0.1,0,0.22-0.01,0.38-0.04c0.15-0.03,0.3-0.07,0.45-0.12c0.14-0.05,0.27-0.12,0.37-0.21
			s0.15-0.2,0.15-0.32c0-0.18-0.07-0.32-0.22-0.42c-0.14-0.1-0.31-0.15-0.5-0.15c-0.05,0-0.08,0-0.1,0.01
			c-0.02,0.11-0.05,0.21-0.12,0.32s-0.14,0.2-0.22,0.28c-0.09,0.08-0.18,0.15-0.29,0.2c-0.11,0.05-0.22,0.08-0.32,0.08
			c-0.17,0-0.32-0.05-0.45-0.15s-0.19-0.25-0.19-0.45c0-0.16,0.04-0.29,0.12-0.4s0.18-0.2,0.29-0.27c0.06-0.04,0.11-0.08,0.17-0.11
			s0.12-0.06,0.17-0.08c0.11-0.04,0.21-0.07,0.3-0.12c-0.01,0-0.04,0-0.07-0.02c-0.03-0.01-0.07-0.03-0.11-0.05
			c-0.04-0.01-0.08-0.02-0.12-0.02s-0.07-0.01-0.09-0.01h-1.24l-0.67-0.65h4.73l0.63,0.65h-2.72V47.46z"/>
		<path class="st0" d="M39.78,50.27c-0.09,0.15-0.2,0.26-0.33,0.33c-0.13,0.07-0.27,0.11-0.42,0.11s-0.28-0.03-0.38-0.08
			c-0.11-0.05-0.2-0.12-0.27-0.2c-0.07-0.08-0.13-0.17-0.16-0.28c-0.03-0.11-0.05-0.21-0.04-0.32c0-0.11,0.03-0.21,0.08-0.32
			c0.05-0.1,0.11-0.19,0.2-0.27c0.08-0.08,0.19-0.14,0.32-0.19s0.27-0.07,0.43-0.07c0.03,0,0.06,0,0.09,0s0.07,0,0.11,0.01h0.01
			c0,0,0.01,0,0.02,0c-0.03-0.24-0.11-0.41-0.23-0.53s-0.26-0.21-0.4-0.26c-0.09-0.04-0.17-0.06-0.26-0.08s-0.17-0.04-0.24-0.06
			c-0.17-0.05-0.29-0.1-0.36-0.17c-0.05-0.04-0.09-0.07-0.13-0.12c-0.03-0.04-0.06-0.08-0.09-0.12s-0.05-0.08-0.07-0.12
			s-0.04-0.07-0.07-0.11c-0.03-0.04-0.06-0.08-0.1-0.12s-0.07-0.07-0.11-0.11c-0.04-0.04-0.09-0.09-0.14-0.14
			c-0.05-0.05-0.14-0.14-0.26-0.25h4.83l0.65,0.65h-1.12v4.63c-0.03,0-0.07-0.01-0.11-0.04s-0.09-0.05-0.13-0.08
			c-0.05-0.04-0.1-0.08-0.15-0.12c-0.03-0.1-0.05-0.2-0.08-0.3c-0.03-0.11-0.06-0.21-0.1-0.3c-0.04-0.1-0.08-0.19-0.13-0.27
			s-0.11-0.16-0.18-0.21c-0.09-0.08-0.19-0.17-0.32-0.27C39.99,50.38,39.87,50.31,39.78,50.27z M40.68,47.46h-1.74
			c0.09,0.07,0.17,0.14,0.26,0.22s0.17,0.15,0.25,0.23c0.12,0.12,0.22,0.24,0.32,0.37c0.09,0.13,0.16,0.28,0.2,0.44
			c0.03,0.12,0.06,0.26,0.1,0.41s0.04,0.3,0.04,0.44c0.1,0.11,0.2,0.22,0.3,0.33s0.19,0.22,0.28,0.34v-2.78H40.68z"/>
		<path class="st0" d="M43.8,47.46c-0.27,0-0.46,0.07-0.57,0.21c-0.12,0.14-0.17,0.34-0.17,0.6c0,0.19,0.02,0.39,0.05,0.58
			c0.03,0.19,0.07,0.38,0.11,0.58c0.04,0.2,0.08,0.39,0.11,0.59c0.03,0.2,0.05,0.4,0.05,0.6c0,0.18-0.04,0.36-0.13,0.55
			c-0.09,0.18-0.2,0.35-0.33,0.5c-0.14,0.15-0.29,0.27-0.45,0.37c-0.17,0.09-0.33,0.14-0.5,0.14c-0.07,0-0.14-0.03-0.21-0.08
			s-0.1-0.12-0.1-0.21c0-0.04,0.02-0.08,0.07-0.12s0.11-0.07,0.18-0.1c0.03-0.01,0.05-0.02,0.07-0.02s0.05-0.01,0.07-0.02
			c0.05-0.01,0.07-0.03,0.08-0.03c0.09-0.07,0.16-0.13,0.22-0.19s0.11-0.12,0.15-0.19c0.04-0.07,0.07-0.14,0.08-0.22
			s0.02-0.18,0.02-0.3c0-0.07-0.01-0.14-0.02-0.21c-0.01-0.07-0.02-0.14-0.04-0.22c-0.01-0.07-0.03-0.14-0.05-0.22
			c-0.02-0.07-0.04-0.15-0.06-0.23c-0.05-0.15-0.09-0.3-0.12-0.46c-0.04-0.16-0.05-0.31-0.05-0.47c0-0.18,0.02-0.34,0.06-0.47
			c0.04-0.14,0.09-0.27,0.16-0.39c0.03-0.06,0.06-0.12,0.1-0.18s0.07-0.12,0.12-0.18c0.03-0.04,0.05-0.07,0.08-0.1
			s0.05-0.07,0.08-0.1h-1.12l-0.66-0.65h2.97c0.09,0.1,0.18,0.19,0.25,0.28c0.06,0.07,0.12,0.14,0.17,0.21
			c0.05,0.07,0.08,0.12,0.08,0.15H43.8z"/>
		<path class="st0" d="M45.23,47.46v4.75c-0.03,0-0.08-0.03-0.15-0.08s-0.14-0.11-0.22-0.18c-0.09-0.08-0.18-0.16-0.28-0.26v-3.44
			c0-0.27-0.04-0.47-0.13-0.62c-0.09-0.14-0.26-0.2-0.5-0.17l-0.55-0.67c0.09,0.01,0.17,0.01,0.22,0.01s0.1,0,0.13,0
			c0.04,0,0.07,0,0.09,0s0.05,0,0.07,0c0.19,0,0.34,0.03,0.46,0.1s0.22,0.18,0.31,0.32c-0.01-0.06-0.02-0.12-0.03-0.18
			c-0.01-0.07-0.02-0.15-0.03-0.24s-0.02-0.2-0.04-0.32c-0.01-0.12-0.03-0.27-0.05-0.43l0.39,0.31c0.01,0.09,0.02,0.15,0.03,0.18
			s0.02,0.06,0.04,0.09c0.01,0.03,0.04,0.06,0.06,0.08l0.09,0.09h0.7l0.65,0.65h-1.26V47.46z"/>
		<path class="st0" d="M50.01,47.46v4.67c-0.12-0.08-0.21-0.15-0.27-0.19c-0.06-0.05-0.11-0.09-0.15-0.13s-0.08-0.08-0.12-0.13
			c-0.04-0.05-0.09-0.1-0.15-0.15c0.01-0.43,0.02-0.82,0.03-1.16c0.01-0.14,0.01-0.29,0.01-0.43c0-0.14,0-0.27,0-0.38s0-0.2,0-0.27
			c0-0.07,0-0.11,0-0.11c0-0.05-0.01-0.1-0.04-0.18c-0.03-0.07-0.06-0.14-0.1-0.22c-0.04-0.07-0.08-0.15-0.13-0.21
			c-0.05-0.07-0.09-0.12-0.13-0.16l-1.51,1.54l-0.85-0.32c0.07-0.07,0.12-0.12,0.16-0.16s0.06-0.06,0.09-0.09s0.05-0.05,0.08-0.07
			c0.03-0.02,0.05-0.05,0.08-0.07c0.04-0.06,0.08-0.11,0.1-0.15s0.04-0.09,0.04-0.15c0-0.04,0-0.08-0.01-0.12s-0.01-0.08-0.03-0.12
			s-0.03-0.07-0.06-0.09c-0.03-0.03-0.07-0.04-0.11-0.04s-0.08,0.01-0.13,0.02c-0.04,0.02-0.09,0.03-0.13,0.05
			c-0.03,0.01-0.05,0.02-0.08,0.03s-0.05,0.02-0.08,0.03c-0.06,0.03-0.12,0.04-0.17,0.04c-0.06,0-0.11-0.01-0.17-0.04
			s-0.1-0.07-0.14-0.11c-0.04-0.05-0.07-0.1-0.1-0.15c-0.03-0.06-0.04-0.11-0.04-0.16c0-0.2,0.07-0.38,0.21-0.55
			c0.14-0.17,0.31-0.32,0.5-0.44c0.2-0.12,0.4-0.22,0.62-0.29s0.4-0.1,0.55-0.1c0.17,0,0.33,0.03,0.49,0.08s0.31,0.13,0.44,0.22
			c0.14,0.09,0.26,0.21,0.38,0.33c0.12,0.13,0.22,0.26,0.3,0.41c-0.01-0.14-0.02-0.28-0.02-0.42s-0.01-0.29-0.01-0.44s0-0.31,0-0.48
			s0-0.35,0-0.55l0.42,0.3l0.05,0.08c0.01,0.12,0.03,0.2,0.05,0.24c0.03,0.04,0.08,0.09,0.17,0.14h0.25h0.22l0.63,0.65L50.01,47.46
			L50.01,47.46z M47.04,47.97c0.15,0.03,0.28,0.1,0.38,0.23s0.17,0.27,0.2,0.42l0.82-0.82c-0.15-0.15-0.34-0.23-0.55-0.23
			C47.52,47.57,47.23,47.71,47.04,47.97z"/>
	</g>
	<g>
		<g>
			<polygon class="st1" points="23.97,43.38 21.54,43.38 21.54,42.93 23.52,42.93 23.52,26.65 25.8,26.65 25.8,41.03 28.99,41.03 
				28.99,28.86 31.72,28.86 31.72,38.98 34.46,38.98 34.46,31.55 38.79,31.55 38.79,37.71 40.62,37.71 40.62,23.73 43.01,23.73 
				43.01,37.55 44.72,37.55 44.72,32.16 46.77,32.16 46.77,40.32 47.91,40.32 47.91,35.97 51.33,35.97 51.33,36.42 48.36,36.42 
				48.36,40.77 46.31,40.77 46.31,32.62 45.17,32.62 45.17,38.01 42.55,38.01 42.55,24.18 41.07,24.18 41.07,38.16 38.34,38.16 
				38.34,32 34.91,32 34.91,39.43 31.27,39.43 31.27,29.32 29.44,29.32 29.44,41.48 25.35,41.48 25.35,27.1 23.97,27.1 			"/>
		</g>
		<g>
			<path class="st1" d="M30.43,27.94c-0.98,0-1.77-0.79-1.77-1.77c0-0.98,0.79-1.77,1.77-1.77s1.77,0.79,1.77,1.77
				C32.21,27.14,31.41,27.94,30.43,27.94z M30.43,24.85c-0.73,0-1.32,0.59-1.32,1.32s0.59,1.32,1.32,1.32s1.32-0.59,1.32-1.32
				C31.75,25.44,31.16,24.85,30.43,24.85z"/>
		</g>
		<g>
			<path class="st1" d="M24.48,26.17c-0.98,0-1.77-0.79-1.77-1.77c0-0.98,0.79-1.77,1.77-1.77s1.77,0.79,1.77,1.77
				C26.25,25.38,25.45,26.17,24.48,26.17z M24.48,23.08c-0.73,0-1.32,0.59-1.32,1.32s0.59,1.32,1.32,1.32s1.32-0.59,1.32-1.32
				S25.21,23.08,24.48,23.08z"/>
		</g>
		<g>
			<path class="st1" d="M36.72,30.81c-0.98,0-1.77-0.79-1.77-1.77c0-0.98,0.79-1.77,1.77-1.77s1.77,0.79,1.77,1.77
				C38.49,30.01,37.7,30.81,36.72,30.81z M36.72,27.72c-0.73,0-1.32,0.59-1.32,1.32s0.59,1.32,1.32,1.32s1.32-0.59,1.32-1.32
				S37.45,27.72,36.72,27.72z"/>
		</g>
		<g>
			<path class="st1" d="M45.61,31.25c-0.98,0-1.77-0.79-1.77-1.77c0-0.98,0.79-1.77,1.77-1.77s1.77,0.79,1.77,1.77
				C47.38,30.46,46.59,31.25,45.61,31.25z M45.61,28.17c-0.73,0-1.32,0.59-1.32,1.32s0.59,1.32,1.32,1.32s1.32-0.59,1.32-1.32
				S46.34,28.17,45.61,28.17z"/>
		</g>
		<g>
			<path class="st1" d="M41.8,22.88c-0.98,0-1.77-0.79-1.77-1.77c0-0.98,0.79-1.77,1.77-1.77s1.77,0.79,1.77,1.77
				C43.57,22.09,42.77,22.88,41.8,22.88z M41.8,19.79c-0.73,0-1.32,0.59-1.32,1.32s0.59,1.32,1.32,1.32s1.32-0.59,1.32-1.32
				S42.52,19.79,41.8,19.79z"/>
		</g>
		<g>
			<path class="st1" d="M49.5,35.29c-0.98,0-1.77-0.79-1.77-1.77c0-0.98,0.79-1.77,1.77-1.77s1.77,0.79,1.77,1.77
				S50.48,35.29,49.5,35.29z M49.5,32.2c-0.73,0-1.32,0.59-1.32,1.32s0.59,1.32,1.32,1.32s1.32-0.59,1.32-1.32S50.23,32.2,49.5,32.2
				z"/>
		</g>
	</g>
</g>
</svg>
