<?xml version="1.0" encoding="utf-8"?>
<!-- Generator: Adobe Illustrator 28.2.0, SVG Export Plug-In . SVG Version: 6.00 Build 0)  -->
<svg version="1.1" id="Layer_1" xmlns="http://www.w3.org/2000/svg" xmlns:xlink="http://www.w3.org/1999/xlink" x="0px" y="0px"
	 viewBox="0 0 77.5 76.9" style="enable-background:new 0 0 77.5 76.9;" xml:space="preserve">
<style type="text/css">
	.st0{fill:#48DE7F;}
	.st1{fill:#0A2234;}
</style>
<g>
	<g>
		<path class="st0" d="M68.3,68H9.2V8.9h59.1V68z M10.1,67.1h57.2V9.9H10.1V67.1z"/>
	</g>
	<g>
		<path class="st0" d="M65.7,64.8h-54V59c0-2,1.6-3.7,3.6-3.7h46.7c2,0,3.7,1.6,3.7,3.7V64.8z"/>
	</g>
	<g>
		<g>
			<path class="st1" d="M26.5,57.9C26.5,57.9,26.5,57.9,26.5,57.9c0,0.1,0.1,0.1,0.1,0.1c0,0,0,0,0,0.1s0,0,0,0.1h0.7l0.6,0.6h-1.1
				v4.2c0,0-0.1-0.1-0.1-0.1c0,0-0.1-0.1-0.1-0.1s-0.1-0.1-0.1-0.1s0,0-0.1-0.1c0,0,0,0-0.1-0.1c0,0,0,0,0,0s0,0,0,0c0,0,0,0,0,0
				c0,0,0-0.1,0-0.1v-3.5h-0.5l-0.6-0.6h1C26.1,58.1,26,58.1,26,58c-0.1-0.1-0.1-0.2-0.1-0.3c0-0.2,0-0.4,0.2-0.5s0.2-0.3,0.4-0.4
				s0.3-0.2,0.5-0.3c0.2-0.1,0.4-0.1,0.5-0.1c0.2,0,0.5,0,0.7,0.1c0.2,0.1,0.4,0.2,0.6,0.3s0.4,0.2,0.6,0.4s0.4,0.3,0.5,0.5l0.2,0.6
				c-0.4-0.3-0.7-0.5-1-0.7s-0.6-0.3-0.8-0.3C28.1,57,27.9,57,27.7,57s-0.3,0-0.5,0.1s-0.2,0.1-0.4,0.2c-0.1,0.1-0.2,0.2-0.2,0.3
				S26.6,57.8,26.5,57.9C26.5,57.9,26.5,57.9,26.5,57.9z"/>
		</g>
		<g>
			<path class="st1" d="M28.3,58.8v2.6c0,0.1,0.1,0.2,0.2,0.2c0.1,0,0.2,0,0.3-0.1c0.1-0.1,0.2-0.2,0.3-0.2c0.1-0.1,0.2-0.2,0.3-0.3
				c0.1-0.1,0.1-0.2,0.2-0.3h0c-0.1,0-0.1,0-0.2,0c-0.1,0-0.1-0.1-0.2-0.1c-0.1,0-0.1-0.1-0.1-0.2c0-0.1,0-0.1,0-0.2
				c0-0.2,0.1-0.3,0.2-0.5c0.1-0.1,0.3-0.2,0.5-0.2c0.1,0,0.2,0,0.3,0.1c0.1,0,0.2,0.1,0.2,0.2s0.1,0.2,0.1,0.3c0,0.1,0,0.2,0,0.3
				c0,0.2,0,0.4-0.1,0.7c-0.1,0.2-0.2,0.5-0.4,0.7s-0.3,0.4-0.5,0.5s-0.4,0.2-0.6,0.2c-0.2,0-0.4,0-0.5-0.1S28,62,27.9,61.9
				s-0.1-0.3-0.1-0.4s0-0.4,0-0.6v-2.1h-0.6l-0.5-0.6h3.4V58c0-0.1,0-0.1-0.1-0.2s-0.2-0.1-0.3-0.1c-0.2,0-0.4,0-0.6,0
				c-0.2,0-0.4,0-0.6,0c-0.1,0-0.3,0-0.4,0c-0.1,0-0.3-0.1-0.4-0.2s-0.2-0.2-0.3-0.3s-0.1-0.3-0.1-0.5c0,0,0-0.1,0-0.2
				c0-0.1,0-0.1,0.1-0.2s0.1-0.1,0.1-0.1c0,0,0.1,0,0.2,0h0.1c0,0.1,0,0.1,0,0.1c0,0,0,0.1,0,0.1c-0.1,0.1-0.1,0.1-0.1,0.2
				c0,0.1,0,0.1,0,0.2c0,0,0.1,0.1,0.1,0.1c0,0,0.1,0.1,0.2,0.1s0.1,0,0.2,0c0.2,0,0.4,0,0.6,0c0.2,0,0.4,0,0.6,0
				c0.2,0,0.3,0,0.5,0.1s0.3,0.1,0.5,0.2c0.1,0.1,0.2,0.2,0.3,0.3c0.1,0.2,0.1,0.3,0.1,0.5h0.2c0,0,0,0,0.1,0c0,0,0,0,0,0
				c0,0,0,0,0,0l0.1,0.1c0,0,0,0.1,0.1,0.1s0.1,0.1,0.1,0.1c0,0,0.1,0.1,0.1,0.1L28.3,58.8L28.3,58.8z"/>
		</g>
		<g>
			<path class="st1" d="M32.8,61.3c-0.1,0.1-0.2,0.2-0.3,0.3c-0.1,0.1-0.2,0.1-0.4,0.1c-0.1,0-0.2,0-0.3-0.1c-0.1,0-0.2-0.1-0.2-0.2
				c-0.1-0.1-0.1-0.2-0.1-0.2c0-0.1,0-0.2,0-0.3s0-0.2,0.1-0.3c0-0.1,0.1-0.2,0.2-0.2c0.1-0.1,0.2-0.1,0.3-0.2
				c0.1,0,0.2-0.1,0.4-0.1c0,0,0,0,0.1,0c0,0,0.1,0,0.1,0h0c0,0,0,0,0,0c0-0.2-0.1-0.4-0.2-0.5c-0.1-0.1-0.2-0.2-0.4-0.2
				c-0.1,0-0.2-0.1-0.2-0.1c-0.1,0-0.1,0-0.2,0c-0.2,0-0.3-0.1-0.3-0.2c0,0-0.1-0.1-0.1-0.1c0,0-0.1-0.1-0.1-0.1s0-0.1-0.1-0.1
				c0,0,0-0.1-0.1-0.1c0,0-0.1-0.1-0.1-0.1s-0.1-0.1-0.1-0.1c0,0-0.1-0.1-0.1-0.1c0,0-0.1-0.1-0.2-0.2h4.3l0.6,0.6h-1v4.1
				c0,0-0.1,0-0.1,0c0,0-0.1,0-0.1-0.1c0,0-0.1-0.1-0.1-0.1c0-0.1,0-0.2-0.1-0.3s0-0.2-0.1-0.3s-0.1-0.2-0.1-0.2
				c0-0.1-0.1-0.1-0.2-0.2c-0.1-0.1-0.2-0.2-0.3-0.2C32.9,61.4,32.8,61.3,32.8,61.3z M33.5,58.8H32c0.1,0.1,0.2,0.1,0.2,0.2
				c0.1,0.1,0.2,0.1,0.2,0.2c0.1,0.1,0.2,0.2,0.3,0.3s0.1,0.2,0.2,0.4c0,0.1,0.1,0.2,0.1,0.4c0,0.1,0,0.3,0,0.4
				c0.1,0.1,0.2,0.2,0.3,0.3c0.1,0.1,0.2,0.2,0.2,0.3L33.5,58.8L33.5,58.8z"/>
		</g>
		<g>
			<path class="st1" d="M40.7,60.4c0-0.1-0.1-0.2-0.1-0.3c-0.1-0.1-0.1-0.2-0.2-0.3c-0.1-0.1-0.2-0.1-0.3-0.2s-0.2-0.1-0.3,0h0v3.2
				c0,0-0.1,0-0.1,0s-0.1,0-0.1-0.1s-0.1,0-0.1-0.1c-0.1-0.2-0.2-0.5-0.3-0.6c-0.1-0.2-0.2-0.4-0.4-0.5s-0.3-0.3-0.5-0.4
				c-0.2-0.1-0.4-0.2-0.7-0.2l-0.6-0.8c0.2-0.1,0.3-0.3,0.5-0.4c0.2-0.1,0.4-0.2,0.6-0.3s0.4-0.2,0.6-0.3c0.2-0.1,0.4-0.2,0.6-0.2
				v-0.2h-2.4L36,58.2h5.3l0.6,0.6h-2.2v0.1c0.2,0,0.5,0.1,0.7,0.2c0.2,0.1,0.4,0.2,0.5,0.4s0.2,0.3,0.3,0.5s0.1,0.4,0.1,0.6
				c0,0.1,0,0.2-0.1,0.3s-0.1,0.2-0.2,0.3s-0.2,0.2-0.2,0.2c-0.1,0-0.2,0.1-0.3,0.1c-0.1,0-0.2,0-0.2,0c-0.1,0-0.1-0.1-0.2-0.1
				s-0.1-0.1-0.1-0.2c0-0.1,0-0.2,0-0.2c0-0.1,0-0.2,0.1-0.3c0-0.1,0.1-0.2,0.2-0.2c0.1,0,0.2,0,0.3,0
				C40.5,60.3,40.5,60.4,40.7,60.4z M39.1,59.7c-0.2,0.1-0.4,0.2-0.6,0.3c-0.2,0.1-0.4,0.2-0.6,0.4c0.5,0.2,0.9,0.6,1.2,1V59.7z"/>
		</g>
		<g>
			<path class="st1" d="M42,57.9C42,57.9,42.1,57.9,42,57.9c0,0.1,0,0.1,0.1,0.1c0,0,0,0,0,0.1s0,0,0,0.1h0.7l0.6,0.6h-1.1v4.2
				c0,0-0.1-0.1-0.1-0.1c0,0-0.1-0.1-0.1-0.1S42,62.6,42,62.6s0,0-0.1-0.1c0,0,0,0-0.1-0.1c0,0,0,0,0,0s0,0,0,0c0,0,0,0,0,0
				c0,0,0-0.1,0-0.1v-3.5h-0.5l-0.6-0.6h1c-0.1-0.1-0.1-0.1-0.2-0.2c-0.1-0.1-0.1-0.2-0.1-0.3c0-0.2,0-0.4,0.2-0.5s0.2-0.3,0.4-0.4
				s0.3-0.2,0.5-0.3c0.2-0.1,0.4-0.1,0.5-0.1c0.2,0,0.5,0,0.7,0.1c0.2,0.1,0.4,0.2,0.7,0.3s0.4,0.2,0.6,0.4s0.4,0.3,0.5,0.5l0.2,0.6
				c-0.4-0.3-0.7-0.5-1-0.7s-0.6-0.3-0.8-0.3C43.6,57,43.4,57,43.2,57s-0.3,0-0.5,0.1s-0.2,0.1-0.3,0.2c-0.1,0.1-0.2,0.2-0.2,0.3
				S42.1,57.8,42,57.9C42.1,57.9,42,57.9,42,57.9z"/>
		</g>
		<g>
			<path class="st1" d="M44.7,61.3c-0.1,0.1-0.2,0.2-0.3,0.3c-0.1,0.1-0.2,0.1-0.4,0.1s-0.2,0-0.3-0.1c-0.1,0-0.2-0.1-0.2-0.2
				c-0.1-0.1-0.1-0.2-0.1-0.2c0-0.1,0-0.2,0-0.3s0-0.2,0.1-0.3s0.1-0.2,0.2-0.2c0.1-0.1,0.2-0.1,0.3-0.2c0.1,0,0.2-0.1,0.4-0.1
				c0,0,0,0,0.1,0c0,0,0.1,0,0.1,0h0c0,0,0,0,0,0c0-0.2-0.1-0.4-0.2-0.5c-0.1-0.1-0.2-0.2-0.4-0.2c-0.1,0-0.2-0.1-0.2-0.1
				c-0.1,0-0.2,0-0.2,0c-0.2,0-0.3-0.1-0.3-0.2c0,0-0.1-0.1-0.1-0.1c0,0-0.1-0.1-0.1-0.1s0-0.1-0.1-0.1s0-0.1-0.1-0.1
				c0,0-0.1-0.1-0.1-0.1s-0.1-0.1-0.1-0.1c0,0-0.1-0.1-0.1-0.1c0,0-0.1-0.1-0.2-0.2h4.3l0.6,0.6h-1v4.1c0,0-0.1,0-0.1,0
				c0,0-0.1,0-0.1-0.1c0,0-0.1-0.1-0.1-0.1c0-0.1,0-0.2-0.1-0.3s0-0.2-0.1-0.3s-0.1-0.2-0.1-0.2c0-0.1-0.1-0.1-0.2-0.2
				c-0.1-0.1-0.2-0.2-0.3-0.2C44.9,61.4,44.8,61.3,44.7,61.3z M45.5,58.8H44c0.1,0.1,0.2,0.1,0.2,0.2c0.1,0.1,0.2,0.1,0.2,0.2
				c0.1,0.1,0.2,0.2,0.3,0.3s0.1,0.2,0.2,0.4c0,0.1,0.1,0.2,0.1,0.4c0,0.1,0,0.3,0,0.4c0.1,0.1,0.2,0.2,0.3,0.3
				c0.1,0.1,0.2,0.2,0.2,0.3C45.5,61.2,45.5,58.8,45.5,58.8z"/>
		</g>
		<g>
			<path class="st1" d="M50.2,58.8v4.1c0,0-0.1,0-0.1-0.1s-0.1-0.1-0.2-0.2c-0.1-0.1-0.2-0.1-0.3-0.2l0-2.5c0-0.1,0-0.1-0.1-0.2
				c0-0.1-0.1-0.2-0.2-0.3c-0.1-0.1-0.1-0.2-0.2-0.2C49.1,59,49,59,48.9,59c-0.1,0-0.1,0-0.2,0.1s-0.1,0.1-0.1,0.1
				c0.1,0,0.2,0.1,0.3,0.2c0.1,0.1,0.2,0.2,0.2,0.3c0.1,0.1,0.1,0.2,0.1,0.3s0,0.2,0,0.3c0,0.1-0.1,0.2-0.2,0.2
				c-0.1,0.1-0.2,0.1-0.4,0.1c-0.1,0-0.3,0-0.4-0.1c-0.1-0.1-0.2-0.2-0.2-0.3c0,0-0.1,0.1-0.1,0.2s-0.1,0.1-0.2,0.1
				s-0.1,0.1-0.2,0.1c-0.1,0-0.1,0-0.2,0c-0.2,0-0.4-0.1-0.5-0.3s-0.1-0.3-0.1-0.5c0-0.2,0.1-0.3,0.2-0.5s0.3-0.3,0.5-0.3
				c-0.1-0.2-0.2-0.2-0.2-0.3c-0.1,0-0.2-0.1-0.4-0.1c0,0-0.1,0-0.2,0s-0.1,0-0.2,0c0,0,0,0-0.1,0c0,0,0,0,0,0c0,0,0,0,0,0
				s0,0-0.1-0.1c0,0,0,0-0.1-0.1c-0.1-0.1-0.1-0.1-0.2-0.2c0,0,0-0.1,0-0.1h0.2c0,0,0,0,0.1,0c0.1,0,0.2,0,0.2,0l0.4,0
				c0.2,0,0.4,0.1,0.5,0.2c0.2,0.1,0.3,0.3,0.4,0.4c0.1-0.2,0.2-0.3,0.4-0.4c0.2-0.1,0.3-0.2,0.6-0.2c0.1,0,0.1,0,0.2,0.1
				c0.1,0.1,0.2,0.1,0.2,0.2s0.2,0.2,0.2,0.3s0.2,0.2,0.2,0.3c0-0.1,0-0.2,0-0.4c0-0.1,0-0.2,0-0.4c0-0.1,0-0.3,0-0.4s0-0.3,0-0.5
				c0.1,0.1,0.2,0.2,0.3,0.2c0.1,0,0.1,0.1,0.1,0.2c0,0,0.1,0.1,0.1,0.2c0,0,0,0,0,0.1s0,0,0,0.1s0,0,0,0.1s0,0,0.1,0h0.4l0.7,0.6
				L50.2,58.8L50.2,58.8z"/>
		</g>
		<g>
			<path class="st1" d="M52.1,60.2C52.1,60.2,52.1,60.2,52.1,60.2C52.1,60.2,52.1,60.2,52.1,60.2c0,0.1,0.1,0.1,0.1,0.1
				c0,0,0,0,0,0.1c0.1,0.1,0.1,0.2,0.1,0.4c0,0.2-0.1,0.3-0.2,0.4c-0.1,0.1-0.3,0.1-0.4,0.1c-0.3,0-0.5-0.1-0.6-0.2
				s-0.2-0.4-0.2-0.6c0-0.2,0-0.3,0.1-0.4c0.1-0.1,0.1-0.2,0.2-0.3s0.2-0.2,0.3-0.2s0.3-0.1,0.4-0.1c0.2,0,0.3,0,0.5,0.1
				s0.3,0.1,0.4,0.2c0.1,0.1,0.2,0.2,0.3,0.3c0.1,0.1,0.2,0.2,0.2,0.4v-1.7h-2.7L50,58.2h4.2l0.6,0.6h-1v4.4l-0.3-0.4
				c0,0,0-0.1,0-0.1s0,0,0,0c0-0.1,0-0.3,0-0.4c0-0.2-0.1-0.3-0.1-0.5c-0.1-0.2-0.1-0.3-0.2-0.5s-0.2-0.3-0.3-0.5s-0.2-0.2-0.3-0.3
				C52.3,60.2,52.2,60.2,52.1,60.2z"/>
		</g>
	</g>
	<g>
		<g>
			<path class="st0" d="M39.4,44.5c0.2,0.3,0.5,0.5,0.6,0.6c0.6-0.2,1.2-0.6,1.3-0.5c0.5,0.6-0.2,0.8-0.5,1.3
				c-0.1,0.1-0.2,0.3-0.3,0.3c-1.1,0.2-0.7,1.1-0.7,1.8c0,0.8,0.1,1.5,0.1,2.2c0,0.2-0.2,0.5-0.3,0.7c-0.2-0.2-0.5-0.4-0.5-0.7
				C39,49.4,39,48.5,39,47.5c0-0.2-0.1-0.4-0.1-0.6c-0.1,0-0.2,0-0.3,0c0,0.6-0.1,1.2-0.2,1.8c0,0.5,0,1.1-0.1,1.6
				c0,0.2-0.3,0.4-0.5,0.6c-0.1-0.2-0.4-0.5-0.4-0.7c0-1.2,0.1-2.4,0.2-3.5c-0.2,0.2-0.3,0.3-0.5,0.4c-0.3-0.5-0.6-1.1-0.8-1.6
				c-0.1-0.3-0.1-0.6-0.2-0.9c0.3,0.1,0.6,0.2,0.8,0.3c0.1,0.1,0.2,0.2,0.4,0.4c0.2-0.3,0.5-0.5,0.7-0.8c-0.9-1.2-1.1-1.2-2.5-0.7
				c-3.5,1.5-2.8,0.7-3.4,4.4c-0.1,0.7-0.2,1.4-0.4,2c0,0.2-0.3,0.4-0.5,0.6c-0.1-0.2-0.4-0.5-0.3-0.7c0.2-1.6,0.4-3.2,0.8-4.8
				c0.2-0.6,0.8-1.2,1.4-1.5c0.8-0.5,1.8-0.7,2.6-1.1c0.8-0.4,1.4-0.3,2,0.2c0.3,0.3,0.6,0.5,0.9,0.7c0.1,0,0.2-0.1,0.3-0.2
				c1.1-1.2,2.2-1,3.6-0.4c3.5,1.5,3,1.5,3.5,4.4c0.2,0.8,0.3,1.7,0.4,2.5c0,0.3-0.2,0.5-0.3,0.8c-0.2-0.2-0.5-0.4-0.5-0.7
				c-0.3-1.4-0.5-2.7-0.7-4.1c-0.1-0.7-0.5-1.2-1.1-1.4c-0.6-0.3-1.3-0.5-1.9-0.8C40.6,43.3,40.6,43.3,39.4,44.5z"/>
		</g>
		<g>
			<path class="st0" d="M32.5,21.6c0-3.5,2.8-6.3,6.3-6.3c3.5,0,6.3,2.8,6.3,6.3c0,3.5-2.8,6.4-6.3,6.3
				C35.3,27.9,32.5,25.1,32.5,21.6z M44.1,21.6c0-3-2.4-5.4-5.4-5.4c-3,0-5.4,2.4-5.4,5.4c0,3,2.4,5.4,5.4,5.4
				C41.7,27,44.2,24.6,44.1,21.6z"/>
		</g>
		<g>
			<path class="st0" d="M27.2,42.2c0.1,0,0.2,0,0.2-0.1c0.6-0.4,1.3-1.2,1.9-1.1c1.1,0.2,2.2,0.8,3.3,1.3c0.1,0.1,0.2,0.4,0.2,0.6
				c-0.2,0.1-0.4,0.2-0.6,0.2c-0.3-0.1-0.6-0.2-1-0.4c0,0.2,0,0.3,0,0.4c0.1,0.8,0.3,1.2-0.8,1.6c-2.2,0.8-4.2,0.8-6.3-0.1
				c-0.2,1.2-0.4,2.4-0.6,3.5c0,0.1,0,0.3-0.1,0.4c-0.2,0.2-0.4,0.3-0.6,0.5c-0.1-0.2-0.3-0.4-0.3-0.6c0.2-1.3,0.4-2.7,0.6-4
				c0.1-0.5,0.2-1.1,0.2-1.6c-1.5,0.3-2.4,1-2.5,2.6c-0.1,1.1-0.3,2.2-0.5,3.3c-0.1,0.3-0.4,0.5-0.6,0.7c-0.1-0.3-0.3-0.6-0.3-0.9
				c0.2-1.4,0.5-2.7,0.7-4.1c0.1-1.1,0.7-1.7,1.7-2.1c0.9-0.4,1.8-0.7,2.6-1.1c0.7-0.3,1.2-0.3,1.7,0.2C26.5,41.8,26.9,42,27.2,42.2
				z M27.2,44.6c0.8-0.2,1.5-0.4,2.3-0.6c0.3-0.1,0.7-0.5,0.7-0.7c0-0.4-0.2-0.9-0.5-1.1c-0.2-0.2-0.7,0.1-1.1,0.2
				c-0.2,0.1-0.4,0.3-0.5,0.4c-0.5,0.5-1.1,0.5-1.6,0c-0.2-0.2-0.4-0.4-0.6-0.5c-0.4-0.1-0.9-0.3-1.1-0.2c-0.3,0.2-0.5,0.7-0.5,1.1
				c0,0.2,0.4,0.6,0.7,0.7C25.6,44.2,26.4,44.4,27.2,44.6z"/>
		</g>
		<g>
			<path class="st0" d="M27.4,28.8c2.4,0,4.5,2,4.6,4.4c0.1,1.6,0.4,3,1.1,4.4c0.3,0.7,0.3,1.6,0.3,2.3c0,0.4-0.5,0.8-0.8,1.1
				c-0.1,0.1-0.4,0-0.6,0c0-0.2,0-0.5,0.1-0.6c0.8-0.7,0.7-1.5,0.3-2.3c-0.8-1.6-1.1-3.2-1.2-5c-0.1-1.8-1.7-3.3-3.5-3.4
				c-1.9-0.1-3.6,1.2-4,3c-0.1,0.3-0.1,0.7-0.1,1c-0.3,1.3-0.6,2.6-1,3.9c-0.3,1-0.9,1.9,0.1,2.8c0.1,0.1,0.1,0.5,0,0.5
				c-0.2,0.1-0.5,0.1-0.6,0c-0.3-0.5-0.8-1-0.8-1.6c0-0.7,0.3-1.4,0.5-2.2c0.3-1.2,0.8-2.4,0.9-3.7C22.7,30.8,24.7,28.8,27.4,28.8z"
				/>
		</g>
		<g>
			<path class="st0" d="M41.1,34.2c-1.4,0.1-2.8,0.1-4.1,0.2c-0.3,0-0.7,0.4-0.9,0.7c-0.2,0.3-0.2,0.8-0.4,1.2
				c-0.1,0.2-0.4,0.4-0.6,0.5c-0.2,0-0.5-0.3-0.5-0.5c-0.3-1.5-0.4-2.9,0.2-4.3c0.6-1.3,1.8-1.8,3.1-1.9c1-0.1,2-0.1,2.9-0.2
				c0.6-0.1,1.2-0.3,1.7-0.5c0.9-0.3,1.5,0.1,1.4,1c-0.2,1.3-0.4,2.7-0.7,4c-0.1,0.4-0.5,0.8-0.9,1c-0.6,0.2-0.9-0.4-1-0.9
				C41.1,34.3,41.1,34.2,41.1,34.2z M43,30.5c-1.8,0.1-3.4,0.3-5,0.4c-2.1,0.2-3.2,1.4-2.8,3.6c0.5-1,1.3-1,2.2-1
				c0.8,0,1.6,0,2.3-0.1c1-0.2,2-0.5,2.3,1.1c0.1-0.1,0.2-0.1,0.2-0.2C42.6,33,42.8,31.6,43,30.5z"/>
		</g>
		<g>
			<path class="st0" d="M48,32.4c-0.3,0.6-0.5,1.3-0.9,2c-0.1,0.3-0.4,0.6-0.7,0.6c-0.2,0-0.6-0.3-0.7-0.6c-0.7-1.5-0.4-3.6,1.2-4.9
				c1.5-1.2,2.9-1.7,4.7-1.1c1.9,0.7,3.2,2,3.5,4c0.1,0.6,0,1.3-0.2,2c0,0.2-0.4,0.5-0.6,0.6c-0.2,0-0.5-0.2-0.6-0.4
				c-0.6-1.3-1.7-1.7-2.9-1.8C49.9,32.7,49.1,32.6,48,32.4z M46.3,33.5c0.3-0.5,0.5-0.9,0.8-1.3c0.5-0.7,1-1.1,1.9-0.6
				c0.3,0.2,0.8,0.3,1.2,0.3c1.6,0,3,0.3,4.2,1.8c0.1-1.9-0.7-3.1-2.1-4c-1.2-0.8-2.6-1-3.9-0.1C47.1,30.5,45.9,31.5,46.3,33.5z"/>
		</g>
		<g>
			<path class="st0" d="M27.7,39.9c-0.3,0-0.7,0-1,0c-0.3,0.3-0.5,0.5-0.7,0.8c-0.1-0.3-0.3-0.6-0.4-0.9c-0.1-0.2-0.2-0.5-0.4-0.7
				c-1.2-1.1-1.2-2.5-1-3.9c0-0.3,0.5-0.6,0.8-0.7c0.8-0.4,1.6-0.7,2.3-1.1c0.5-0.3,0.9-0.3,1.4,0.2c0.3,0.3,0.7,0.7,1.2,0.8
				c0.6,0.3,0.9,0.7,0.9,1.4c0,1.5-0.2,2.8-1.5,3.7c-0.1,0.1-0.2,0.3-0.2,0.5c-0.1,0.2-0.2,0.5-0.4,0.8
				C28.3,40.5,28.1,40.3,27.7,39.9z M27.7,34.2c-0.6,0.3-1.2,0.7-1.9,0.9c-0.8,0.2-1,0.7-0.9,1.4c0.1,1.1,0.5,1.9,1.5,2.3
				c0.9,0.4,1.8,0.3,2.6-0.4c0.9-0.8,0.9-1.8,0.8-2.9c0-0.1-0.1-0.2-0.2-0.3C28.9,34.9,28.3,34.5,27.7,34.2z"/>
		</g>
		<g>
			<path class="st0" d="M48.3,41c0.3,0.2,0.6,0.3,0.9,0.4c0.8,0.5,1.5,0.4,2.3,0c0.4-0.2,1-0.3,1.4-0.2c1,0.3,1.9,0.7,2.8,1
				c0.9,0.4,1.5,1,1.7,2c0.2,1.3,0.4,2.7,0.7,4c0.1,0.4,0.3,0.9-0.3,1c-0.2,0-0.5-0.5-0.6-0.9c-0.3-1.3-0.5-2.5-0.7-3.8
				c-0.1-0.8-0.5-1.3-1.2-1.5c-0.6-0.2-1.1-0.4-1.7-0.7c-0.8-0.4-1.5-0.5-2.3,0c-0.8,0.5-1.6,0.2-2.4-0.1c-0.4-0.2-0.9-0.2-1.2-0.1
				c-0.8,0.2-1.6,0.6-2.3,0.9c-0.2,0.1-0.5-0.1-0.8-0.1c0.2-0.2,0.3-0.6,0.5-0.7C46.1,41.9,47.2,41.5,48.3,41z"/>
		</g>
		<g>
			<path class="st0" d="M39.3,41.5c-0.3,0-0.7,0-1.2,0c0,0.1-0.1,0.2-0.1,0.3c-0.1,0.2-0.3,0.3-0.5,0.4c-0.1-0.2-0.3-0.3-0.4-0.5
				c-0.2-0.3-0.4-0.7-0.6-1c-0.5-0.8-1.1-1.5-1.5-2.3c-0.1-0.2,0.2-0.6,0.2-0.9c0.2,0.2,0.5,0.4,0.6,0.7c0.7,2.3,3.1,3.2,4.9,1.8
				c0.8-0.6,1.2-1.3,1.2-2.3c0-0.3,0-0.6,0-0.9c0.1-0.3,0.3-0.5,0.4-0.7c0.1,0.2,0.4,0.5,0.4,0.7c0.2,1.7-0.4,3.1-1.9,4.1
				c-0.2,0.1-0.3,0.3-0.4,0.5c-0.2,0.3-0.3,0.5-0.5,0.8C39.8,42,39.6,41.8,39.3,41.5z"/>
		</g>
		<g>
			<path class="st0" d="M49.7,40c-0.4,0.3-0.6,0.5-0.8,0.6c-0.1-0.2-0.3-0.5-0.4-0.7c-0.2-0.2-0.3-0.5-0.5-0.6
				c-0.9-0.7-1.5-1.5-1.7-2.5c0-0.2,0.2-0.5,0.3-0.8c0.2,0.2,0.5,0.3,0.5,0.5c0.6,1.7,1.7,2.6,3.2,2.6c1.5-0.1,2.5-1,3-2.6
				c0.1-0.2,0.4-0.4,0.6-0.6c0.1,0.2,0.3,0.5,0.3,0.7c-0.1,1.1-0.7,1.9-1.5,2.5c-0.4,0.3-0.9,0.5-0.9,1.2c0,0.1-0.6,0.2-0.6,0.2
				C50.8,39.7,50.1,40.2,49.7,40z"/>
		</g>
		<g>
			<path class="st0" d="M55,48.6c-0.1,0.1-0.2,0.4-0.3,0.4c-0.2,0-0.5-0.2-0.5-0.4c-0.2-0.8-0.3-1.5-0.4-2.3c0-0.2,0.2-0.4,0.3-0.5
				c0.2,0.1,0.5,0.2,0.5,0.4C54.7,47,54.8,47.7,55,48.6z"/>
		</g>
		<g>
			<path class="st0" d="M51,46.5c-0.3,0.2-0.4,0.4-0.6,0.5c-0.1-0.2-0.4-0.4-0.4-0.6c0-0.2,0.3-0.3,0.5-0.5
				C50.6,46.1,50.8,46.2,51,46.5z"/>
		</g>
		<g>
			<path class="st0" d="M51,44.4c-0.2,0.2-0.4,0.4-0.5,0.6c-0.2-0.2-0.5-0.3-0.5-0.5c0-0.2,0.2-0.4,0.4-0.6
				C50.5,44,50.7,44.2,51,44.4z"/>
		</g>
		<g>
			<path class="st0" d="M39.3,18.8c0.4,0.1,0.7,0.2,1,0.4c0.2,0.1,0.2,0.4,0.4,0.7c-0.2,0-0.5,0.1-0.7,0.1c-0.4,0-0.9-0.3-1.2-0.2
				c-0.3,0.1-0.6,0.5-1,0.7c0.3,0.3,0.5,0.6,0.8,0.8c0.4,0.2,0.8,0.2,1.2,0.3c0.6,0.2,1,0.5,1.1,1.2c0.1,0.7-0.2,1.2-0.9,1.5
				c-0.4,0.2-0.9,0.3-0.8,0.9c0,0.1-0.2,0.3-0.4,0.3s-0.3-0.2-0.4-0.3c-0.1-0.2-0.1-0.4-0.1-0.5c-0.5-0.2-1-0.3-1.4-0.5
				c-0.2-0.1-0.2-0.4-0.2-0.6c0.2,0,0.4-0.1,0.6-0.1c0.6,0.1,1.1,0.3,1.7,0.2c0.3,0,0.5-0.4,0.8-0.6c-0.2-0.2-0.4-0.6-0.7-0.7
				c-0.3-0.2-0.8-0.2-1.2-0.3c-0.7-0.2-1.2-0.6-1.2-1.4c0-0.8,0.4-1.4,1.1-1.7c0.2-0.1,0.4-0.3,0.6-0.5c0.2-0.2,0.3-0.4,0.4-0.6
				c0.1,0.2,0.3,0.4,0.4,0.6C39.3,18.6,39.3,18.7,39.3,18.8z"/>
		</g>
	</g>
</g>
</svg>
